<?xml version="1.0" encoding="UTF-8" standalone="no"?>
<!-- Created with Inkscape (http://www.inkscape.org/) -->

<svg width="97.17mm" height="73mm" viewBox="0 0 97.17 73" version="1.1" id="svg5" inkscape:version="1.1.2 (0a00cf5339, 2022-02-04)" sodipodi:docname="decisions.svg" xmlns:inkscape="http://www.inkscape.org/namespaces/inkscape" xmlns:sodipodi="http://sodipodi.sourceforge.net/DTD/sodipodi-0.dtd" xmlns="http://www.w3.org/2000/svg" xmlns:svg="http://www.w3.org/2000/svg">
  <sodipodi:namedview id="namedview7" pagecolor="#ffffff" bordercolor="#666666" borderopacity="1.0" inkscape:pageshadow="2" inkscape:pageopacity="0.0" inkscape:pagecheckerboard="0" inkscape:document-units="mm" showgrid="false" inkscape:zoom="2.003" inkscape:cx="333.8" inkscape:cy="232.2" inkscape:current-layer="layer1" />
  <defs id="defs2">
    <filter style="color-interpolation-filters:sRGB" inkscape:menu-tooltip="Fades hue progressively to white" inkscape:menu="Color" inkscape:label="Greyscale" id="filter3973" x="0" y="0" width="1" height="1">
      <feColorMatrix values="1 0 0 0 0 1 0 0 0 0 1 0 0 0 0 0 0 0 0 1 " type="matrix" result="r" in="SourceGraphic" id="feColorMatrix3945" />
      <feColorMatrix values="0 1 0 0 0 0 1 0 0 0 0 1 0 0 0 0 0 0 0 1 " type="matrix" result="g" in="SourceGraphic" id="feColorMatrix3947" />
      <feColorMatrix values="0 0 1 0 0 0 0 1 0 0 0 0 1 0 0 0 0 0 0 1 " type="matrix" result="b" in="SourceGraphic" id="feColorMatrix3949" />
      <feBlend result="minrg" in="r" mode="darken" in2="g" id="feBlend3951" />
      <feBlend result="p" in="minrg" mode="darken" in2="b" id="feBlend3953" />
      <feBlend result="maxrg" in="r" mode="lighten" in2="g" id="feBlend3955" />
      <feBlend result="q" in="maxrg" mode="lighten" in2="b" id="feBlend3957" />
      <feComponentTransfer result="q2" in="q" id="feComponentTransfer3961">
        <feFuncR slope="0" type="linear" id="feFuncR3959" />
      </feComponentTransfer>
      <feBlend result="pq" in="p" mode="lighten" in2="q2" id="feBlend3963" />
      <feColorMatrix values="-1 1 0 0 0 -1 1 0 0 0 -1 1 0 0 0 0 0 0 0 1 " type="matrix" result="qminp" in="pq" id="feColorMatrix3965" />
      <feComposite k3="1" operator="arithmetic" result="qminpc" in="qminp" in2="qminp" id="feComposite3967" k1="0" k2="0" k4="0" />
      <feBlend result="result2" in2="SourceGraphic" mode="screen" id="feBlend3969" />
      <feComposite operator="in" in="result2" in2="SourceGraphic" result="fbSourceGraphic" id="feComposite3971" />
      <feColorMatrix result="fbSourceGraphicAlpha" in="fbSourceGraphic" values="0 0 0 -1 0 0 0 0 -1 0 0 0 0 -1 0 0 0 0 1 0" id="feColorMatrix4053" />
      <feColorMatrix id="feColorMatrix4055" values="0.52 0.32 0.07 0 0 0.52 0.32 0.07 0 0 0.52 0.32 0.07 0 0 0 0 0 1 0 " in="fbSourceGraphic" />
    </filter>
    <filter style="color-interpolation-filters:sRGB" inkscape:menu-tooltip="Fades hue progressively to white" inkscape:menu="Color" inkscape:label="Greyscale" id="filter4003" x="0" y="0" width="1" height="1">
      <feColorMatrix values="1 0 0 0 0 1 0 0 0 0 1 0 0 0 0 0 0 0 0 1 " type="matrix" result="r" in="SourceGraphic" id="feColorMatrix3975" />
      <feColorMatrix values="0 1 0 0 0 0 1 0 0 0 0 1 0 0 0 0 0 0 0 1 " type="matrix" result="g" in="SourceGraphic" id="feColorMatrix3977" />
      <feColorMatrix values="0 0 1 0 0 0 0 1 0 0 0 0 1 0 0 0 0 0 0 1 " type="matrix" result="b" in="SourceGraphic" id="feColorMatrix3979" />
      <feBlend result="minrg" in="r" mode="darken" in2="g" id="feBlend3981" />
      <feBlend result="p" in="minrg" mode="darken" in2="b" id="feBlend3983" />
      <feBlend result="maxrg" in="r" mode="lighten" in2="g" id="feBlend3985" />
      <feBlend result="q" in="maxrg" mode="lighten" in2="b" id="feBlend3987" />
      <feComponentTransfer result="q2" in="q" id="feComponentTransfer3991">
        <feFuncR slope="0" type="linear" id="feFuncR3989" />
      </feComponentTransfer>
      <feBlend result="pq" in="p" mode="lighten" in2="q2" id="feBlend3993" />
      <feColorMatrix values="-1 1 0 0 0 -1 1 0 0 0 -1 1 0 0 0 0 0 0 0 1 " type="matrix" result="qminp" in="pq" id="feColorMatrix3995" />
      <feComposite k3="1" operator="arithmetic" result="qminpc" in="qminp" in2="qminp" id="feComposite3997" k1="0" k2="0" k4="0" />
      <feBlend result="result2" in2="SourceGraphic" mode="screen" id="feBlend3999" />
      <feComposite operator="in" in="result2" in2="SourceGraphic" result="fbSourceGraphic" id="feComposite4001" />
      <feColorMatrix result="fbSourceGraphicAlpha" in="fbSourceGraphic" values="0 0 0 -1 0 0 0 0 -1 0 0 0 0 -1 0 0 0 0 1 0" id="feColorMatrix4057" />
      <feColorMatrix id="feColorMatrix4059" values="0.52 0.32 0.07 0 0 0.52 0.32 0.07 0 0 0.52 0.32 0.07 0 0 0 0 0 1 0 " in="fbSourceGraphic" />
    </filter>
    <filter style="color-interpolation-filters:sRGB" inkscape:menu-tooltip="Fades hue progressively to white" inkscape:menu="Color" inkscape:label="Greyscale" id="filter4033" x="0" y="0" width="1" height="1">
      <feColorMatrix values="1 0 0 0 0 1 0 0 0 0 1 0 0 0 0 0 0 0 0 1 " type="matrix" result="r" in="SourceGraphic" id="feColorMatrix4005" />
      <feColorMatrix values="0 1 0 0 0 0 1 0 0 0 0 1 0 0 0 0 0 0 0 1 " type="matrix" result="g" in="SourceGraphic" id="feColorMatrix4007" />
      <feColorMatrix values="0 0 1 0 0 0 0 1 0 0 0 0 1 0 0 0 0 0 0 1 " type="matrix" result="b" in="SourceGraphic" id="feColorMatrix4009" />
      <feBlend result="minrg" in="r" mode="darken" in2="g" id="feBlend4011" />
      <feBlend result="p" in="minrg" mode="darken" in2="b" id="feBlend4013" />
      <feBlend result="maxrg" in="r" mode="lighten" in2="g" id="feBlend4015" />
      <feBlend result="q" in="maxrg" mode="lighten" in2="b" id="feBlend4017" />
      <feComponentTransfer result="q2" in="q" id="feComponentTransfer4021">
        <feFuncR slope="0" type="linear" id="feFuncR4019" />
      </feComponentTransfer>
      <feBlend result="pq" in="p" mode="lighten" in2="q2" id="feBlend4023" />
      <feColorMatrix values="-1 1 0 0 0 -1 1 0 0 0 -1 1 0 0 0 0 0 0 0 1 " type="matrix" result="qminp" in="pq" id="feColorMatrix4025" />
      <feComposite k3="1" operator="arithmetic" result="qminpc" in="qminp" in2="qminp" id="feComposite4027" k1="0" k2="0" k4="0" />
      <feBlend result="result2" in2="SourceGraphic" mode="screen" id="feBlend4029" />
      <feComposite operator="in" in="result2" in2="SourceGraphic" result="fbSourceGraphic" id="feComposite4031" />
      <feColorMatrix result="fbSourceGraphicAlpha" in="fbSourceGraphic" values="0 0 0 -1 0 0 0 0 -1 0 0 0 0 -1 0 0 0 0 1 0" id="feColorMatrix4061" />
      <feColorMatrix id="feColorMatrix4063" values="0.52 0.32 0.07 0 0 0.52 0.32 0.07 0 0 0.52 0.32 0.07 0 0 0 0 0 1 0 " in="fbSourceGraphic" />
    </filter>
  </defs>
  <g inkscape:label="Layer 1" inkscape:groupmode="layer" id="layer1" transform="translate(-61.73,-107)">
    <path id="path1109" style="fill:#acaaa9;stroke-width:0.264643;filter:url(#filter3973)" d="M 135.2,179.7 C 135,179.6 132.8,177.6 130.3,175.4 C 127.7,173.2 124.7,170.6 123.5,169.5 C 115.6,162.6 110.6,158.2 105.5,153.7 C 98.56,147.7 97.56,146.8 95.46,145.8 C 91.26,143.9 87.25,143.1 80.34,143.1 C 75.09,143.1 73.85,143.2 73.85,143.8 C 73.85,144.5 71.96,145.8 70.94,145.8 C 69.62,145.8 62.52,143.9 62.02,143.4 C 61.79,143.2 61.67,142.8 61.75,142.6 C 61.89,142.2 66.76,138.6 67.98,137.9 C 68.75,137.5 71.42,138.2 71.99,138.9 C 72.38,139.4 72.58,139.5 76.63,139.2 C 80.59,139.1 85.18,139.2 89.21,139.6 C 90.76,139.8 90.86,139.8 90.46,139.4 C 89.76,138.8 83.94,137 80.74,136.3 C 76.28,135.4 74.91,135.3 73.51,136 C 72.86,136.3 71.72,136.7 70.99,136.8 L 69.64,136.9 L 67.78,135.1 C 65.83,133.2 65.42,132.6 65.9,132 C 66.06,131.8 68.21,131.1 70.68,130.5 L 75.15,129.4 L 75.9,129.9 C 76.3,130.3 76.82,130.8 77.05,131.2 C 77.29,131.6 77.74,132 78.11,132 C 80.89,132.3 86.53,133.6 89.46,134.5 C 91.36,135.1 93.06,135.5 93.16,135.5 C 93.56,135.4 92.36,134.2 88.41,131 C 85.39,128.6 85.02,128.3 84.31,128.5 C 83.22,128.8 80.69,128.7 80.28,128.3 C 79.69,127.8 79.91,127.3 81.56,125.3 C 82.88,123.7 83.33,123.3 83.91,123.3 C 85.1,123.3 92.16,124.1 92.36,124.3 C 92.86,124.6 92.66,125.8 91.96,126.4 C 91.66,126.8 91.36,127.2 91.36,127.3 C 91.36,127.6 100.1,134.2 100.7,134.4 C 101.2,134.5 101.2,134.5 101,133.5 C 100.7,131.9 100.8,129.3 101.4,127.7 L 101.9,126.3 L 101,126 C 99.76,125.7 98.96,125 98.96,124.2 C 98.96,123.6 98.76,123.7 103.7,122.4 C 105.2,122.1 106.7,121.8 107,121.8 C 107.4,121.8 108.7,122.5 110.1,123.4 C 112.5,125 113,125.6 112.2,126.2 C 111.7,126.6 109.5,127 108.6,126.9 C 107.6,126.7 107.1,127.4 106.7,129.5 C 106.4,130.6 106.5,131.2 106.8,132.3 C 107.3,134 108.6,136.3 109.2,136.3 C 109.4,136.3 109.8,135.8 110,135.1 C 110.7,133.2 111.9,131.7 113.8,130.1 C 114.8,129.3 115.7,128.6 115.8,128.6 C 115.9,128.6 115.9,128.2 115.8,127.8 C 115.7,127.3 115.8,126.6 116,126.2 L 116.2,125.5 H 121 H 125.8 L 126.2,126.3 C 126.7,127.7 127,130.1 126.6,130.6 C 126.2,131.1 123.7,131.2 122.4,130.7 C 121.2,130.3 120.1,130.9 117.9,133 C 115.9,135.1 115.4,136.4 116.2,138.2 C 116.5,138.9 117.3,139.9 118.1,140.6 C 120.3,142.5 132.5,151.4 132.8,151.4 C 133.2,151.4 133.3,150.7 133.8,145.2 C 134.5,137.1 134.6,133.6 134.1,130.2 C 133.7,127.3 133.7,127.2 132.7,126.2 C 132.2,125.7 130,124.3 128,123.1 C 123.8,120.6 123.1,120.1 123.1,119.2 C 123.1,118.4 126.4,115 128.9,113 C 129.6,112.3 131,110.9 132,109.9 C 132.9,108.8 134.1,107.6 134.6,107.4 C 135.4,106.9 135.6,106.9 136.3,107.2 C 136.8,107.4 137.5,107.9 137.9,108.3 C 138.5,109 138.8,109.1 140.2,109.1 C 142.2,109.1 143.9,109.8 144.9,111.3 C 146.9,114.2 145.6,118.3 142.3,119.9 C 140.6,120.7 140.8,121.5 142.8,121.5 C 143.3,121.5 144.3,121.7 145,121.9 C 146.1,122.2 146.6,122.6 148.3,124.6 C 150.4,127 150.9,127.7 150.9,128.4 C 150.9,129.1 149.7,130 147,131.4 C 145.7,132.1 144.5,132.7 144.5,132.8 C 144.4,133 144.8,133.4 145.4,133.8 C 146.5,134.5 146.7,135.3 146,135.8 C 145.7,135.9 145.3,135.9 144.9,135.8 C 144.4,135.6 144.3,135.6 144.3,136.2 C 144.3,136.5 144.6,137.2 145,137.7 C 145.5,138.5 145.6,138.9 145.5,139.8 C 145.2,141.1 144.7,141.3 143.8,140.4 C 143.4,140.1 143,139.8 142.9,139.8 C 142.3,139.8 141.3,148.4 141.3,153.5 C 141.3,157.8 141.3,157.8 141.9,158.3 C 143,159.1 155.4,168.3 157.2,169.6 L 158.9,170.8 V 175.4 V 180 L 147.2,179.9 C 140.7,179.9 135.3,179.8 135.2,179.7 Z M 138.3,154.6 C 138.6,153.2 138.8,142.3 138.5,141.9 C 138.2,141.5 138.2,141.5 137.9,141.9 C 137.3,143 135.4,153 135.8,153.6 C 136,154 137.7,155.3 138,155.4 C 138.1,155.4 138.2,155 138.3,154.6 Z M 147.9,128.1 C 148.1,127.9 147.7,127.4 147,126.8 C 146.3,126.2 145.7,125.7 145.6,125.7 C 145.1,125.7 143.6,129.7 144,130.1 C 144.1,130.2 147.4,128.5 147.9,128.1 Z M 136.3,122.6 C 136.8,122.3 137.6,121.8 137.9,121.3 C 138.5,120.6 138.5,120.6 138,120.2 C 137.7,120 137,119.5 136.5,119.1 C 135.4,118.2 134.6,116.5 134.4,114.6 C 134.3,113.8 134.3,113.1 134.2,113.1 C 134.2,113 133.7,113.1 133,113.2 C 132,113.3 131.5,113.6 130.4,114.6 C 129.7,115.3 128.4,116.4 127.6,117.1 C 126.7,117.8 126,118.5 126,118.7 C 126,119.3 127.9,120.7 130.4,121.9 C 133,123.2 134.4,123.4 136.3,122.6 Z M 135.6,110.7 C 136.2,110.2 136.2,109.9 135.6,109.9 C 135.1,109.9 134.5,110.5 134.5,111 C 134.5,111.3 135.1,111.2 135.6,110.7 Z" />
    <path style="fill:#f59221;stroke-width:0.264643;filter:url(#filter4003)" d="M 135,178.7 C 133.8,177.6 125.4,170.3 119,164.8 C 117.9,163.8 113.7,160.1 109.8,156.7 C 99.46,147.7 98.56,146.9 96.66,145.9 C 92.66,143.7 87.46,142.7 80.01,142.7 C 74.28,142.7 73.62,142.8 73.29,143.7 C 73.05,144.4 71.59,145.6 70.99,145.6 C 70.63,145.6 65.37,144.2 63.45,143.5 C 62.55,143.3 62.2,143 62.26,142.7 C 62.39,142.1 68.04,138.2 68.9,138.2 C 69.87,138.2 71.44,138.8 71.63,139.3 C 71.76,139.7 72.62,139.7 77.78,139.6 C 82.53,139.4 84.65,139.5 87.91,139.9 C 93.06,140.4 93.56,140.4 91.46,139.3 C 88.23,137.7 81.62,135.8 76.79,135.2 C 74.29,134.9 74.16,134.9 73.48,135.5 C 73.09,135.8 72.39,136.1 71.92,136.2 C 71.46,136.3 70.86,136.4 70.6,136.5 C 70.28,136.6 69.52,136 68.16,134.7 C 67.07,133.6 66.18,132.6 66.18,132.5 C 66.18,132.3 66.51,132 66.91,131.9 C 68.02,131.4 74.01,130 74.71,130 C 75.36,130 76.77,131.2 76.77,131.8 C 76.77,132.1 77.16,132.2 79.81,132.6 C 83.28,133.1 87.49,134.2 91.26,135.4 C 93.36,136.1 95.16,136.5 95.26,136.5 C 95.46,136.3 94.06,135.1 89.36,131.2 C 85.66,128.2 85.05,127.8 84.47,128 C 83.59,128.2 80.81,128.3 80.57,128 C 80.12,127.6 82.67,124.1 83.67,123.7 C 84.15,123.6 90.96,124.3 91.76,124.6 C 92.36,124.8 92.16,125.6 91.26,126.3 L 90.46,127 L 91.36,127.8 C 92.76,129 99.86,134.5 100.8,135.1 C 101.3,135.4 101.8,135.5 101.9,135.4 C 102,135.3 101.9,134.8 101.7,134.1 C 101.2,132.2 101.3,128.9 102,127.3 C 102.6,125.6 102.6,125.7 101.8,125.7 C 100.9,125.7 99.66,125.1 99.46,124.5 C 99.26,124 100.2,123.6 104,122.7 C 106.4,122.1 107.1,122 107.6,122.2 C 108.8,122.8 112,125.2 112,125.6 C 112,126 109.9,126.5 108.4,126.4 C 107.5,126.4 107.4,126.5 106.7,127.6 C 105.7,129.4 105.8,131.4 107,134 C 107.6,135 108.4,136.3 108.8,136.7 C 109.7,137.5 109.7,137.5 110.1,137 C 110.3,136.7 110.4,136.2 110.4,135.8 C 110.4,134 112.3,131.5 115.1,129.5 C 116.5,128.5 116.7,128.3 116.5,127.9 C 116.3,127.6 116.2,127.2 116.4,126.6 L 116.7,125.9 L 120.9,125.8 C 123.2,125.8 125.3,125.8 125.5,125.9 C 125.9,126.2 126.5,129.5 126.2,130.1 C 126,130.6 123.1,130.7 122.6,130.1 C 122.2,129.6 121.6,129.7 119.5,131.1 C 117.6,132.3 116.5,133.5 115.7,135.1 C 115.2,136.1 115.1,136.4 115.4,137.3 C 116,139.1 117.2,140.4 120.9,143.2 C 131,150.7 132.7,152 132.8,152.4 C 133,152.8 132.5,160.4 132.2,161 C 132.1,161.4 131.8,161.4 130.5,161.3 C 128.2,161 126.8,161.8 126.8,163.2 C 126.8,163.8 128.3,165.3 130.1,166.4 C 132.8,168.3 134.7,168.8 135.8,167.9 C 136.3,167.5 136.4,167.1 136.4,164.8 V 162.2 L 137.4,162.3 L 138.3,162.4 V 163.9 C 138.3,165.7 138.8,166.2 140.2,166.2 C 141.9,166.2 142.2,165.2 141.8,161.3 C 141.6,159.5 141.7,159.1 141.9,159.1 C 142.3,159.1 144,160.3 151.9,166.2 C 155.3,168.7 158.3,170.8 158.5,170.9 C 158.8,171 158.9,171.8 158.9,175.5 V 180 H 147.6 H 136.4 Z M 135.8,158.4 C 135.8,157.2 135.5,155.7 135.6,154.4 C 137.3,155.5 137.7,155.6 138.1,156.1 V 158.8 C 137.2,158.9 136.3,158.5 135.8,158.4 Z" id="path1107" sodipodi:nodetypes="sssssssssssssssssssssssssssssssscssssssssssssssssssscssssssssssssssscccssssssscccscccsc" />
    <path id="path1105" style="fill:#b26d22;stroke-width:0.264643;filter:url(#filter4033)" d="M 135,178.7 C 133.8,177.6 125.4,170.3 119,164.8 C 117.9,163.8 113.7,160.1 109.8,156.7 C 99.46,147.7 98.56,146.9 96.66,145.9 C 92.66,143.7 87.46,142.7 80.01,142.7 C 74.28,142.7 73.62,142.8 73.29,143.7 C 73.16,144.1 72.63,144.7 72.11,145 C 71.05,145.8 71.64,145.8 65.77,144.2 C 62.44,143.3 62.07,143.1 62.28,142.6 C 62.41,142.3 63.1,142.4 66.49,143.3 C 68.72,144 70.69,144.5 70.86,144.5 C 71.04,144.5 71.51,144.2 71.92,143.9 L 72.66,143.2 L 71.93,142.9 C 69.97,142 72.05,141.7 79.68,141.6 C 90.66,141.6 95.46,143.1 102,148.7 C 103.8,150.3 109.1,154.9 113.9,158.9 C 118.6,163 124.4,168 126.8,170 C 129.1,172.1 131.4,173.9 131.8,174.1 C 132.2,174.2 133.3,175.2 134.2,176.2 C 135.1,177.2 136.2,178.3 136.7,178.5 C 137.2,178.7 137.7,179.1 137.8,179.4 C 137.9,179.9 137.8,180 137.2,180 C 136.6,180 136,179.6 135,178.7 Z M 133.2,172.3 C 132.4,172.2 132.2,172 132,171.3 C 131.9,170.8 131.4,170.1 130.8,169.6 C 127,166.4 126.1,165.2 126,163.6 C 126,162.8 126.3,162.9 127.3,164.1 C 127.8,164.7 128.9,165.7 129.8,166.2 C 132.8,168.3 134.7,168.8 135.8,167.9 C 136.3,167.5 136.4,167.1 136.4,164.8 V 162.2 L 137.4,162.3 L 138.3,162.4 V 163.9 C 138.3,165.7 138.8,166.2 140.2,166.2 C 141.5,166.2 141.9,165.5 142.2,163 C 142.2,162.9 142.3,162.8 142.4,162.8 C 142.8,162.8 143.2,164.3 143.2,165.5 C 143.2,166.4 143.1,166.7 142.3,167.3 C 141.7,167.8 141.2,168.7 140.6,170.1 C 139.7,172.3 139.5,172.6 138.5,172.6 C 137.9,172.6 137.7,172.4 137.6,171.7 C 137.5,171.2 137.3,170.5 137.2,170.1 C 136.9,169.3 136.9,169.3 136.4,169.8 C 136.1,170 135.5,170.8 135.2,171.4 C 134.8,172 134.4,172.5 134.3,172.5 C 134.2,172.5 133.7,172.4 133.2,172.3 Z M 96.06,141.6 C 95.26,141.3 93.76,140.6 92.76,140 C 91.76,139.4 90.06,138.6 88.89,138.2 C 86.08,137.1 80.04,135.6 76.86,135.2 C 74.29,134.9 74.17,134.9 73.48,135.5 C 73.09,135.8 72.39,136.1 71.92,136.2 C 71.46,136.3 70.86,136.4 70.6,136.5 C 70.28,136.6 69.52,136 68.16,134.7 C 66.41,133 65.78,132.1 66.37,132.1 C 66.47,132.1 67.35,132.9 68.31,133.8 L 70.06,135.5 L 71.29,135.2 C 72.23,135 72.53,134.8 72.53,134.4 C 72.53,134.1 72.72,133.9 72.95,133.7 C 73.99,133.3 83.49,135.3 87.91,136.8 C 92.76,138.5 97.96,141.1 97.96,141.9 C 97.96,142.2 97.76,142.2 96.06,141.6 Z M 70.3,139.8 C 70.23,139.7 70.38,139.4 70.65,139.1 C 71.07,138.7 71.17,138.7 71.46,139.1 C 71.64,139.3 71.7,139.6 71.61,139.8 C 71.41,140.1 70.5,140.1 70.3,139.8 Z M 97.66,138.1 C 97.06,137.8 95.86,136.9 95.06,136.1 C 93.16,134.2 85.29,127.8 84.89,127.8 C 84.73,127.8 84.23,128 83.78,128.1 C 82.59,128.6 80.41,128.2 80.53,127.6 C 80.6,127.3 80.88,127.2 82.13,127.3 C 83.09,127.3 83.65,127.3 83.65,127.1 C 83.65,126.9 83.89,126.7 84.15,126.5 C 84.57,126.3 85.45,126.9 90.06,130.6 C 92.96,133.1 96.26,135.8 97.36,136.6 C 99.86,138.6 99.96,139.2 97.66,138.1 Z M 110.1,138 C 109.8,137.4 110.2,136.9 110.4,137.4 C 110.7,137.9 110.7,138.4 110.4,138.4 C 110.3,138.4 110.1,138.2 110.1,138 Z M 102.8,136.8 C 102.3,136.2 101.3,133 101.5,132.7 C 101.6,132.6 101.7,132.6 101.7,132.8 C 101.7,132.9 102.2,134 102.9,135.1 C 103.5,136.3 104.1,137.2 104.1,137.3 C 104.1,137.6 103.3,137.3 102.8,136.8 Z M 115.2,135.3 C 115.2,133.7 117.7,130.8 120.6,129.2 C 122.2,128.2 122.8,128.2 123,128.9 C 123.1,129.4 123.4,129.4 124.7,129.4 C 126.1,129.4 126.3,129.5 126.3,129.9 C 126.1,130.5 123.3,130.7 122.6,130.1 C 122,129.6 121.6,129.7 119.4,131.2 C 117.4,132.4 116.8,133.1 115.9,134.7 C 115.3,135.7 115.2,135.8 115.2,135.3 Z M 74.56,131.9 C 74.22,131.5 74.39,131.3 75.22,131 C 76.11,130.7 76.77,131 76.77,131.7 C 76.77,132.1 74.91,132.3 74.56,131.9 Z M 106.1,128 C 106.3,126.8 107.2,125 107.7,124.8 C 107.9,124.7 108.4,124.9 108.8,125.1 C 109.3,125.5 109.6,125.5 110.5,125.3 C 111.7,125 112,125 112,125.6 C 112,126.1 109.8,126.6 108.6,126.4 C 107.6,126.2 107.5,126.3 107.1,127.1 C 106.8,127.5 106.4,128.1 106.2,128.3 C 105.9,128.7 105.9,128.7 106.1,128 Z M 116.4,127.9 C 116.3,127.8 116.2,127.5 116.2,127.3 C 116.2,126.9 116.5,126.8 117.3,126.8 C 117.9,126.8 118.4,126.9 118.5,127.1 C 118.9,127.7 117,128.5 116.4,127.9 Z M 89.34,126.4 C 89.05,126.2 88.92,125.9 89.02,125.6 C 89.15,125.3 89.36,125.2 90.16,125.4 C 90.86,125.5 91.26,125.4 91.56,125.1 C 92.06,124.6 92.16,124.6 92.16,125.1 C 92.16,125.8 90.96,126.8 90.26,126.8 C 90.06,126.8 89.56,126.6 89.34,126.4 Z M 100.5,125.4 C 99.76,125 99.26,124.4 99.46,124.1 C 99.46,124 99.86,124 100.3,124.3 C 100.8,124.6 101.1,124.6 101.9,124.4 C 103,124.1 103.6,124.4 103.1,125.1 C 102.8,125.7 101.2,125.9 100.5,125.4 Z" sodipodi:nodetypes="sssssssssssscssssssssssssssssssscccsssssssssssssssssssssssscssssssssssssssssssssssssssssssssssssssssssssssssssssssssssssssssssssssss" />
  </g>
</svg>
