<?xml version="1.0" encoding="UTF-8" standalone="no"?>
<!-- Created with Inkscape (http://www.inkscape.org/) -->

<svg
   id="svg8087"
   sodipodi:docname="Icon-set-graph.svg"
   viewBox="0 0 552.40693 129.34575"
   version="1.1"
   inkscape:version="1.2.2 (b0a8486541, 2022-12-01)"
   width="552.40692"
   height="129.34575"
   xmlns:inkscape="http://www.inkscape.org/namespaces/inkscape"
   xmlns:sodipodi="http://sodipodi.sourceforge.net/DTD/sodipodi-0.dtd"
   xmlns="http://www.w3.org/2000/svg"
   xmlns:svg="http://www.w3.org/2000/svg"
   xmlns:rdf="http://www.w3.org/1999/02/22-rdf-syntax-ns#"
   xmlns:cc="http://creativecommons.org/ns#"
   xmlns:dc="http://purl.org/dc/elements/1.1/">
  <defs
     id="defs4266" />
  <sodipodi:namedview
     id="base"
     bordercolor="#666666"
     inkscape:pageshadow="2"
     inkscape:window-y="0"
     fit-margin-left="0"
     pagecolor="#ffffff"
     fit-margin-top="0"
     inkscape:window-maximized="1"
     inkscape:zoom="2.2755981"
     inkscape:window-x="0"
     inkscape:window-height="1451"
     showgrid="false"
     borderopacity="1.0"
     inkscape:current-layer="layer1"
     inkscape:cx="348.91926"
     inkscape:cy="77.781749"
     fit-margin-right="0"
     fit-margin-bottom="0"
     inkscape:window-width="2256"
     inkscape:pageopacity="0.0"
     inkscape:document-units="px"
     inkscape:showpageshadow="0"
     inkscape:pagecheckerboard="0"
     inkscape:deskcolor="#d1d1d1" />
  <g
     id="layer1"
     inkscape:label="Livello 1"
     inkscape:groupmode="layer"
     transform="translate(23.698195,-19.224987)">
    <g
       id="g5491"
       transform="translate(34.716148,-3.0761144)">
      <g
         id="g9391"
         transform="translate(365.99,22.648)">
        <g
           id="layer1-9"
           transform="translate(0,-924.36)">
          <path
             id="path3160-2"
             d="m 128.29,64.865 a 63.766,63.892 0 1 1 -127.53,0 63.766,63.892 0 1 1 127.53,0 z"
             style="fill:none;stroke:#000000;stroke-width:1.9947;stroke-linecap:round;stroke-linejoin:round"
             inkscape:connector-curvature="0"
             transform="matrix(0.98823,0,0,0.98628,0.23592,924.39)" />
        </g>
        <path
           id="path4119"
           d="m 24,100 c 0,2.7614 -2.2386,5 -5,5 -2.7614,0 -5,-2.2386 -5,-5 0,-2.7614 2.2386,-5 5,-5 2.7614,0 5,2.2386 5,5 z"
           style="color:#000000;fill:#4d4d4d"
           inkscape:connector-curvature="0" />
        <path
           id="path4122"
           d="M 11.195,55.805 9,58 11.805,60.805 9,63.61 11.195,65.805 14,63 16.805,65.805 19,63.61 16.195,60.805 19,58 16.805,55.805 14,58.61 Z"
           style="color:#000000;text-indent:0;text-transform:none;fill:#4d4d4d"
           inkscape:connector-curvature="0" />
        <path
           id="path4169"
           style="color:#000000;fill:#4d4d4d"
           inkscape:connector-curvature="0"
           d="m 49,90 c 0,2.7614 -2.2386,5 -5,5 -2.7614,0 -5,-2.2386 -5,-5 0,-2.7614 2.2386,-5 5,-5 2.7614,0 5,2.2386 5,5 z" />
        <path
           id="path4171"
           style="color:#000000;text-indent:0;text-transform:none;fill:#4d4d4d"
           inkscape:connector-curvature="0"
           d="M 28.39,43 26.195,45.195 29,48 26.195,50.805 28.39,53 31.195,50.195 34,53 36.195,50.805 33.39,48 36.195,45.195 34,43 31.195,45.805 Z" />
        <path
           id="path4173"
           d="m 74,95 c 0,2.7614 -2.2386,5 -5,5 -2.7614,0 -5,-2.2386 -5,-5 0,-2.7614 2.2386,-5 5,-5 2.7614,0 5,2.2386 5,5 z"
           style="color:#000000;fill:#4d4d4d"
           inkscape:connector-curvature="0" />
        <path
           id="path4175"
           d="m 51.195,30.195 -2.1951,2.1951 2.8049,2.8049 -2.805,2.805 2.195,2.195 2.805,-2.805 2.805,2.805 2.195,-2.195 -2.805,-2.805 2.805,-2.805 -2.195,-2.195 -2.805,2.805 -2.805,-2.805 z"
           style="color:#000000;text-indent:0;text-transform:none;fill:#4d4d4d"
           inkscape:connector-curvature="0" />
        <path
           id="path4177"
           style="color:#000000;fill:#4d4d4d"
           inkscape:connector-curvature="0"
           d="m 89,75 c 0,2.7614 -2.2386,5 -5,5 -2.7614,0 -5,-2.2386 -5,-5 0,-2.7614 2.2386,-5 5,-5 2.7614,0 5,2.2386 5,5 z" />
        <path
           id="path4179"
           style="color:#000000;text-indent:0;text-transform:none;fill:#4d4d4d"
           inkscape:connector-curvature="0"
           d="m 71.195,35.195 -2.1951,2.1951 2.8049,2.8049 -2.805,2.805 2.195,2.195 2.805,-2.805 2.805,2.805 2.195,-2.195 -2.805,-2.805 2.805,-2.805 -2.195,-2.195 -2.805,2.805 -2.805,-2.805 z" />
        <path
           id="path4181"
           d="m 86.195,30.195 -2.1951,2.1951 2.8049,2.8049 -2.805,2.805 2.195,2.195 2.805,-2.805 2.805,2.805 2.195,-2.195 -2.805,-2.805 2.805,-2.805 -2.195,-2.195 -2.805,2.805 -2.805,-2.805 z"
           style="color:#000000;text-indent:0;text-transform:none;fill:#4d4d4d"
           inkscape:connector-curvature="0" />
        <path
           id="path4183"
           d="m 104,90 c 0,2.7614 -2.2386,5 -5,5 -2.7614,0 -5,-2.2386 -5,-5 0,-2.7614 2.2386,-5 5,-5 2.7614,0 5,2.2386 5,5 z"
           style="color:#000000;fill:#4d4d4d"
           inkscape:connector-curvature="0" />
        <path
           id="path4185"
           style="color:#000000;fill:#4d4d4d"
           inkscape:connector-curvature="0"
           d="m 124,75 c 0,2.7614 -2.2386,5 -5,5 -2.7614,0 -5,-2.2386 -5,-5 0,-2.7614 2.2386,-5 5,-5 2.7614,0 5,2.2386 5,5 z" />
        <path
           id="path4187"
           style="color:#000000;text-indent:0;text-transform:none;fill:#4d4d4d"
           inkscape:connector-curvature="0"
           d="m 106.2,45.195 -2.2,2.195 2.8,2.805 -2.8,2.805 2.2,2.195 2.8,-2.805 2.8,2.805 L 114,53 111.2,50.195 114,47.39 111.8,45.195 109,48 Z" />
        <path
           id="path4189"
           d="M 14,58 29,48 54,33 74,38 89,33 109,48"
           style="fill:none;stroke:#4d4d4d;stroke-dasharray:3, 1"
           inkscape:connector-curvature="0" />
        <path
           id="path4191"
           d="M 19,100 119,75"
           style="fill:none;stroke:#4d4d4d;stroke-dasharray:2, 1"
           inkscape:connector-curvature="0" />
      </g>
    </g>
    <g
       id="g5509"
       transform="translate(37.328299,-3.0761144)">
      <g
         id="g8235"
         transform="translate(79.571,22.648)">
        <g
           id="layer1-5"
           transform="translate(0,-924.36)">
          <path
             id="path3160"
             d="m 128.29,64.865 a 63.766,63.892 0 1 1 -127.53,0 63.766,63.892 0 1 1 127.53,0 z"
             style="fill:none;stroke:#000000;stroke-width:1.9947;stroke-linecap:round;stroke-linejoin:round"
             inkscape:connector-curvature="0"
             transform="matrix(0.98823,0,0,0.98628,0.23592,924.39)" />
        </g>
        <g
           id="g4012"
           transform="translate(-138,-924.36)">
          <path
             id="path4024"
             d="m 264.53,995.77 -40.125,-43.406 -36.406,45 -20.812,-25 -27.812,22.281 a 63.015,63.015 0 0 0 125.16,1.125 z"
             style="fill:#4d4d4d"
             inkscape:connector-curvature="0" />
        </g>
      </g>
      <g
         id="g8830"
         transform="translate(222.78,22.648)">
        <g
           id="g4045"
           style="color:#000000;fill:#4d4d4d"
           transform="translate(0,-924.36)">
          <path
             id="path4076"
             d="m -135.34,43 a 63.015,63.015 0 0 0 -3.66,21 63.015,63.015 0 0 0 24,49.406 v -70.41 h -20.344 z m 77.625,10 v 71.25 a 63.015,63.015 0 0 0 25.84,-15.28 V 53.001 h -25.844 z m -55.406,10 v 51.906 a 63.015,63.015 0 0 0 25.844,11.031 V 62.999 h -25.844 z m 83.12,10 v 33.969 a 63.015,63.015 0 0 0 16.281,-33.97 h -16.281 z m -55.438,15 v 38.25 a 63.015,63.015 0 0 0 25.875,-1.4375 v -36.812 h -25.875 z"
             style="color:#000000;fill:#4d4d4d"
             transform="translate(140,924.36)"
             inkscape:connector-curvature="0" />
        </g>
        <g
           id="layer1-1"
           transform="translate(0,-924.36)">
          <path
             id="path3160-6"
             d="m 128.29,64.865 a 63.766,63.892 0 1 1 -127.53,0 63.766,63.892 0 1 1 127.53,0 z"
             style="fill:none;stroke:#000000;stroke-width:1.9947;stroke-linecap:round;stroke-linejoin:round"
             inkscape:connector-curvature="0"
             transform="matrix(0.98823,0,0,0.98628,0.23592,924.39)" />
        </g>
      </g>
    </g>
    <g
       id="g5497"
       transform="translate(-103.26955,-145.45626)">
      <g
         id="g9221"
         transform="translate(79.571,165.67)">
        <path
           id="path4212"
           d="m 62.281,38 c -8.586,0.30397 -17.039,1.813 -25,4.4375 l 27.176,62.732 z m 8.0312,6.875 -4.1091,60.294 49.265,-41.763 C 103.9181,51.973 87.5801,45.251 70.3101,44.874 Z m -28.843,18.531 c -3.18,1.5249 -6.1972,3.3497 -9,5.4688 -10.662,8.0608 -17.109,19.379 -19.375,31.406 0.23597,0.35659 0.47557,0.71078 0.71875,1.0625 1.2619,1.6804 2.6079,3.2977 4.0312,4.8438 1.4144,1.5524 2.9065,3.034 4.4688,4.4375 1.5678,1.4037 3.2059,2.7289 4.9062,3.9688 1.7016,1.2329 3.465,2.3807 5.2812,3.4375 1.8044,1.0603 3.6616,2.0307 5.5625,2.9062 1.9181,0.86834 3.8797,1.6405 5.875,2.3125 1.9899,0.68407 4.0141,1.2684 6.0625,1.75 2.0421,0.47765 4.108,0.85327 6.1875,1.125 2.0837,0.27125 4.1809,0.4382 6.2812,0.5 2.0946,0.0524 4.1918,2.2e-4 6.2812,-0.15625 2.0941,-0.14569 4.1809,-0.39611 6.25,-0.75 2.0733,-0.3552 4.1288,-0.8143 6.1562,-1.375 2.0212,-0.5667 4.0141,-1.2345 5.9688,-2 1.9578,-0.75768 3.8776,-1.6133 5.75,-2.5625 1.8735,-0.94966 3.6994,-1.9931 5.4688,-3.125 1.7685,-1.1425 3.4797,-2.3737 5.125,-3.6875 1.6408,-1.3058 3.2163,-2.6935 4.7188,-4.1562 1.5129,-1.4581 2.9528,-2.9919 4.3125,-4.5938 1.1905,-1.4386 2.317,-2.9301 3.375,-4.4688 -1.5137,-7.6081 -4.5862,-15.008 -9.75,-21.562 l -41.568,31.431 z"
           sodipodi:nodetypes="cccccccccscccccccccccccccccccccccc"
           style="color:#000000;fill:#4d4d4d;stroke:#4d4d4d;stroke-width:1.1569;stroke-linecap:round;stroke-linejoin:round;stroke-dasharray:3.47064, 1.15688"
           inkscape:connector-curvature="0" />
        <g
           id="layer1-51"
           transform="translate(0,-924.36)">
          <path
             id="path3160-61"
             d="m 128.29,64.865 a 63.766,63.892 0 1 1 -127.53,0 63.766,63.892 0 1 1 127.53,0 z"
             style="fill:none;stroke:#000000;stroke-width:1.9947;stroke-linecap:round;stroke-linejoin:round"
             inkscape:connector-curvature="0"
             transform="matrix(0.98823,0,0,0.98628,0.23592,924.39)" />
        </g>
      </g>
    </g>
  </g>
  <metadata
     id="metadata4263">
    <rdf:RDF>
      <cc:Work>
        <dc:format>image/svg+xml</dc:format>
        <dc:type
           rdf:resource="http://purl.org/dc/dcmitype/StillImage" />
        <cc:license
           rdf:resource="http://creativecommons.org/publicdomain/zero/1.0/" />
        <dc:publisher>
          <cc:Agent
             rdf:about="http://openclipart.org/">
            <dc:title>Openclipart</dc:title>
          </cc:Agent>
        </dc:publisher>
        <dc:title>Icon Set Graph</dc:title>
        <dc:date>2012-09-06T20:29:21</dc:date>
        <dc:description>Check others icons on my &quot;Minimal Icon Set&quot; collection.\nSet of simple icons useful for gui design and applications use interface. Icons representing various graph and plotting </dc:description>
        <dc:source>https://openclipart.org/detail/172197/icon-set-graph-by-mi_brami-172197</dc:source>
        <dc:creator>
          <cc:Agent>
            <dc:title>mi_brami</dc:title>
          </cc:Agent>
        </dc:creator>
        <dc:subject>
          <rdf:Bag>
            <rdf:li>Icon</rdf:li>
            <rdf:li>area</rdf:li>
            <rdf:li>b&amp;w</rdf:li>
            <rdf:li>barcode</rdf:li>
            <rdf:li>bars</rdf:li>
            <rdf:li>black</rdf:li>
            <rdf:li>data</rdf:li>
            <rdf:li>graph</rdf:li>
            <rdf:li>gray</rdf:li>
            <rdf:li>icon</rdf:li>
            <rdf:li>pie</rdf:li>
            <rdf:li>plot</rdf:li>
            <rdf:li>round</rdf:li>
            <rdf:li>scatter</rdf:li>
            <rdf:li>table</rdf:li>
            <rdf:li>transparent</rdf:li>
            <rdf:li>white</rdf:li>
            <rdf:li>xy</rdf:li>
          </rdf:Bag>
        </dc:subject>
      </cc:Work>
      <cc:License
         rdf:about="http://creativecommons.org/publicdomain/zero/1.0/">
        <cc:permits
           rdf:resource="http://creativecommons.org/ns#Reproduction" />
        <cc:permits
           rdf:resource="http://creativecommons.org/ns#Distribution" />
        <cc:permits
           rdf:resource="http://creativecommons.org/ns#DerivativeWorks" />
      </cc:License>
    </rdf:RDF>
  </metadata>
</svg>
