<svg id="Graphic_Element" data-name="Graphic Element" xmlns="http://www.w3.org/2000/svg" viewBox="0 0 1200 1200"><title>job668-131-v</title><g id="layer1"><path id="path4160" d="M570.81,278.18c-2.41-.3-3.91.68-3.85,3,0,1.77,7.86,7,17.35,11.63,25.62,12.5,53.79,36,38.3,32-3.1-.81-10.4-4.49-16.23-8.19-19.23-12.19-83.57-36.68-93.07-35.42-5.95.78-5.33,1.33,4.74,4.25,18.66,5.41,46.25,16.63,46.25,18.82,0,2.57-2.16,2.53-17.22-.33-6.78-1.29-22.74-3.74-35.46-5.45s-28.83-4.7-35.8-6.65c-15-4.19-22-4.5-22-1,0,1.41,3.55,2.57,7.91,2.57s15,2.77,23.77,6.17,20.48,7.58,26.13,9.31S523,313,524.34,314.29c3.65,3.37-7.46,2.78-34.31-1.83-13.08-2.25-24.23-3.63-24.79-3.07s9.37,4.17,22.05,8,23,8.29,23,9.83c0,2.8-5.12,2.36-30.84-2.68-6.36-1.25-21.39-4.18-33.4-6.51s-27.43-5.36-34.25-6.74c-13.56-2.73-26.53-3.31-24.31-1.09,1.41,1.41,32.21,9.62,52.78,14.07,6,1.3,14.11,4.08,18,6.19l7.06,3.83-7,.1c-3.86.05-24.68-3-46.26-6.75-41.9-7.31-63.16-8.87-64.26-4.71-.38,1.45,8.24,3.31,19.89,4.28A321.32,321.32,0,0,1,405.78,333c9.63,2.24,21.19,4.09,25.7,4.11s9.89,1.12,12,2.43c8,5.09-6.14,5.95-48.37,2.95-43.58-3.09-55.69-4.26-73.22-7-8.7-1.38-9.77-1-9,3.24.68,3.58,3.52,5,11.16,5.54,25.11,1.79,21,6.76-9,10.92-12,1.66-27.5,3.45-34.42,4-24.37,1.85-19,7.09,6.74,6.62,10.28-.19,22.73.61,27.68,1.77l9,2.11L309.9,372.5c-31.6,6.37-53.3,9.26-64.53,8.58-9.25-.56-12.22.25-13.54,3.69-1.5,3.9-.3,4.22,10.62,2.77,31-4.12,63.79-6.3,65.71-4.37,3.32,3.3-88.31,24.2-99.49,22.69-2.67-.36-5.43,1-6.13,2.94-1,2.87.78,3.26,8.72,1.89,13.25-2.27,52.53-4.46,46-2.56-2.83.82-19,5.58-36,10.57s-34.79,9.78-39.62,10.65c-10.76,1.91-13.9,8-4.14,8,3.73,0,11.77-1.25,17.87-2.79s13.67-2.4,16.82-1.93c7,1.06-17.28,11.86-45.54,20.25-20.11,6-25.58,11.8-8.35,8.88,5.65-1,10.27-.76,10.27.42S159.3,468.66,148,474c-17,8-20.55,10.7-20.55,15.63,0,3.28.77,6.74,1.71,7.68a5.76,5.76,0,0,0,2.65,1.71c.8,0,22-15.91,30.8-23.08,22.25-18.22,96.37-57,128-66.9,9.89-3.11,29.55-10,43.68-15.4,55.1-20.91,85.56-24.49,204.3-24.06,117.07.42,154.74,4.73,214.57,24.56,8.48,2.81,17.23,6.05,19.45,7.19s12.79,5.72,23.48,10.17,21.6,10.49,24.23,13.4,10,8,16.35,11.23a236.12,236.12,0,0,1,24.41,15.14c7.06,5.06,14,9.18,15.41,9.15,3.44-.08-33.33-34.83-42.72-40.37-7.7-4.55-9.94-11-3.84-11,1.95,0,5,1.82,6.88,4,4.63,5.58,17.85,12.16,17.85,8.89,0-1.45-2.6-5-5.78-7.9s-7.77-7.1-10.2-9.36c-7.59-7-2.05-9,6.09-2.15,9.41,7.92,15.11,8.59,8.36,1-9.52-10.71-29.53-25.08-33-23.72-2,.75-10.18-3.06-18.24-8.47s-21.17-14.18-29.11-19.48c-19.44-13-42-24.63-59-30.48-7.71-2.65-15.3-5.78-16.87-7s-8.63-4.58-15.69-7.55-24.42-10.77-38.55-17.32c-40.19-18.65-24.79-8.05,25.81,17.77,18.08,9.22,31,18.83,28.51,21.27-.94.95-5.64-.16-10.45-2.45s-16.07-5.52-25-7.17c-16.15-3-69.25-26.51-81.46-36.12-3.54-2.79-6.85-4.37-9.26-4.68Zm162.75,12.75a2.76,2.76,0,0,0-.65,0,1.83,1.83,0,0,0-1.57,2.06c0,1.2,2.6,3.43,5.78,5s7.51,2.78,9.63,2.76c3.38,0,3.38-.22,0-1.53a25.54,25.54,0,0,1-7.25-4.94c-2.13-2.12-4.38-3.27-6-3.35Zm-33.21,7.63a2.5,2.5,0,0,0-2.42,2.57c0,1.41,1.8,2.56,4,2.56s3.3-1.15,2.42-2.56a5.47,5.47,0,0,0-4-2.57Zm-272.46.31a7,7,0,0,0-2.83.5c-2.05.82-1.45,1.43,1.55,1.55,2.71.11,4.22-.5,3.37-1.35a3.18,3.18,0,0,0-2.09-.7ZM756.82,304a7,7,0,0,0-2.84.5c-2.05.82-1.44,1.43,1.55,1.55,2.71.11,4.23-.5,3.37-1.35a3.15,3.15,0,0,0-2.08-.7Zm-27.68,9.35c-.25,0-.37.08-.37.22,0,1.08,6.64,5.61,14.77,10.06,14,7.66,27.84,11.33,22.36,5.91C762.25,326,732.8,313.16,729.14,313.36ZM661,324.25c7.38,0,11.15,1.93,18,9.18,4.76,5,8.66,10.83,8.66,12.85,0,6.41-9.43,4-20.56-5.32-5.92-4.95-11.81-9-13.09-9s-2.33-1.73-2.33-3.85C651.67,325.39,654.42,324.25,661,324.25Zm-96.7,2.57c2.83,0,5.14,1.16,5.14,2.57S567.13,332,564.3,332s-5.14-1.16-5.14-2.57S561.48,326.82,564.3,326.82Zm261.43,3.09a1.45,1.45,0,0,0-1.08.38c-1.39,1.39,9.15,12.95,13.47,14.77,2.31,1,17.83,17.49,41.45,44.12,6.86,7.73,12.14,11.59,14.58,10.65,2.11-.81,10,2.66,17.48,7.73,14.94,10.06,15,10.09,15,7.17,0-1.1-3.18-4-7.06-6.34a154.4,154.4,0,0,1-17.35-13.6c-5.65-5.09-15.48-13.51-21.84-18.71s-12-10.47-12.54-11.73C863.67,354.58,832.76,329.79,825.73,329.91Zm-220.21,4.7c2.75,0,5.74,1.33,6.72,3.89.84,2.18,1,4.53.27,5.22s-4.88,2.29-9.31,3.56c-6.36,1.82-8.06,1.53-8.06-1.37,0-2,1.16-3.67,2.57-3.67s2.57-1.73,2.57-3.85C600.28,335.84,602.78,334.59,605.52,334.61ZM773.2,335a3.35,3.35,0,0,0-1.27.16c-2.67.89,16.94,15.84,31.62,24.1a70.58,70.58,0,0,1,10.92,8.35c3.22,3,7.15,5.5,8.75,5.5,3.29,0,17.57,8.05,32.75,18.47,12.86,8.84,19,9.4,11,1-11.68-12.3-28.58-24.86-31.81-23.62-1.82.7-10.88-3.58-20.14-9.51C784.3,339.77,776.63,335.15,773.2,335Zm-49.27,2.13c1.41,0,1.85,1.16,1,2.57a5.64,5.64,0,0,1-4.16,2.57c-1.41,0-1.85-1.16-1-2.57A5.62,5.62,0,0,1,723.93,337.1Zm-156.23.16c3.12-.07,4.31,1.11,4.31,3.7s-2.55,3.85-7.56,3.85c-9.36,0-12.4-4-4.62-6.1a35.82,35.82,0,0,1,7.87-1.45Zm66,2.74a8.89,8.89,0,0,1,3.21.54c1.76.71.32,1.29-3.21,1.29s-5-.58-3.22-1.29A8.91,8.91,0,0,1,633.69,340Zm-116.15,3.22a61,61,0,0,1,9.26.67c9.61,1.32,11.3,2.28,8.94,5.12-3.55,4.29-8.88,4.29-18.89,0-7.71-3.29-6.6-5.69.69-5.82Zm127.69.32a4.74,4.74,0,0,1,1.19,0,5.87,5.87,0,0,1,1.46.36c2.07.8,3.13,2.48,2.34,3.74-1.66,2.7-4.72,3-7,.66-2.1-2.1-.58-4.46,2.05-4.77Zm92.13,3.84c8.44,0,18.94,7.58,15.4,11.13-3.22,3.21-12.41,1.56-18.21-3.27-7.79-6.51-7.31-7.86,2.81-7.86Zm-254.1.67c3.81-.1,6.52,1.64,6.52,4.62s-7.82,3.09-12.55.09c-2.79-1.77-2.38-2.62,1.91-4a15,15,0,0,1,4.12-.73Zm-89.6,6.47c7.53,0,9.92,1.74,7.57,5.54-2,3.29-21.77,3.59-26.78.41-4.4-2.78,1.37-4.93,15.66-5.82C391.4,354.57,392.58,354.52,393.66,354.52Zm378.49,7.35a13,13,0,0,1,4.33,1c11.87,4.52,16.7,7.86,15.09,10.46-.86,1.4-.18,4.23,1.53,6.29,2.55,3.08,2.13,3.75-2.35,3.75-3,0-5.45-1.49-5.45-3.31s-3.47-5.35-7.71-7.85c-8-4.75-10.11-10.36-5.44-10.33ZM357.7,365.92a6.5,6.5,0,0,1,3.57.72,5.54,5.54,0,0,1,2.6,4c0,3.13-12.09,3.16-14,0-1.35-2.17,3.71-4.63,7.85-4.77Zm409.5,15.51c2.61,0,5.25,2,5.25,4.65,0,3.12-7,3.14-8.88,0a2.94,2.94,0,0,1,1.13-4,4.54,4.54,0,0,1,2.5-.67ZM831.34,394a3.2,3.2,0,0,1,2.09.7c.85.85-.67,1.46-3.38,1.35-3-.12-3.6-.73-1.55-1.55a7.23,7.23,0,0,1,2.84-.5Zm63.5,11.64c-1.18-.16-2,.89-3.32,3-2.44,3.91-.3,6.41,15.31,17.9,10,7.35,18.62,13.37,19.21,13.37,1.53,0-18.27-23.31-25.56-30.11-2.88-2.67-4.45-4-5.64-4.18Zm48.84.89c-1.6,0,1.77,4.34,7.49,9.64a178.46,178.46,0,0,1,17.65,19.27C973,441,978.26,445,981.3,445c5.16,0,5.16-.08.34-5.55s-4.82-5.52.24-4.06c2.83.81,17.28,6.29,32.12,12.17s29.88,11.66,33.41,12.84c8.81,2.94,18,3.07,18,.25,0-1.28-6.65-4.3-14.78-6.72s-18.42-6-22.87-7.95-9.23-3.55-10.62-3.55-17.83-8.09-36.53-18-35.31-18-36.92-18Zm-74.86,14.77,8.85,9.32c8.94,9.4,13.88,12,11.56,6.1-.69-1.77-5.56-6-10.83-9.32l-9.58-6.1Zm-435,6.93a1.46,1.46,0,0,0-.66.19q-5.49,3.39,8.34,10.53c9.74,5,18.85,13.27,16.87,15.24-.8.81-8.49-1.49-17.08-5.1s-16.31-6.58-17.16-6.58c-3.29,0,6.48,7.82,12.76,10.2,7,2.67,9,7.79,3.07,7.79-3.57,0-18.74-5.61-29-10.7-3-1.51-6.93-2.28-8.66-1.7s4.23,6,13.24,12.08l16.37,11-11.15-1.29c-12.93-1.5-45.83-16.83-52.9-24.64-2.67-2.95-6.69-5.32-8.94-5.28-6.47.11,11.13,13.44,32.35,24.5,16.36,8.53,23.23,14.18,16.87,13.88-7.34-.35-32.68-8.22-45.13-14-8.22-3.83-15.72-6.18-16.67-5.24-2.35,2.35,7.44,9.41,26.91,19.4,17,8.71,21.29,14,9.2,11.35-16.09-3.55-41.15-12.48-51-18.16-20.78-12-14-2.93,8.6,11.54C362.37,497.44,356,501,327.93,490c-9-3.53-17-5.74-17.83-4.91-2.3,2.32,13,13.55,20.77,15.26,3.82.84,8.46,3.37,10.33,5.63,3.06,3.71,1.95,3.94-11.54,2.36-8.21-.95-17.46-3.27-20.56-5.14s-10.65-5-16.79-6.88a36.05,36.05,0,0,1-17.65-12c-5.7-7.47-16.4-11.86-16-6.58.26,3.54,31.74,24.73,50.9,34.27,10.4,5.18,17.77,10.11,16.38,11-3.65,2.25-41.54-8.12-51-14-8.48-5.23-15.13-6.57-12.64-2.54.82,1.32,4.93,4.21,9.15,6.42l14.72,7.72c3.89,2,10.54,5.13,14.78,6.88,7.23,3,7.35,3.25,1.88,4.2-7.21,1.25-19.12-2.45-45.12-14-19.54-8.69-28.3-9.71-18.25-2.12,2.72,2.06,16.23,9.71,30,17s25.05,14.28,25.05,15.51-.63,2.24-1.4,2.24c-4.6,0-36.28-8.8-38.3-10.64-1.35-1.22-4.64-2.21-7.34-2.21s-10.65-2.89-17.68-6.42c-13.44-6.75-17.6-8-13.53-4.07s27,16,60.26,31.63l9,4.23-10.34.16c-12.1.19-45.85-8.68-53.56-14.08q-9.33-6.54-9.34-1.23c0,3.42,16.6,11.64,37.07,18.36,29.66,9.74,18.4,13.34-18.16,5.81-21.58-4.44-36.46-10.83-44.91-19.28-5.48-5.47-12.54-4.89-12.54,1,0,6.2,50.28,26.78,72.95,29.85,7.93,1.08,15.21,2.77,16.19,3.75s-1.9,5.16-6.42,9.28c-7.29,6.66-10.61,12.92-6.86,12.92,5.57,0,66.54-19.72,75.75-24.5,11.48-6,28.34-13.71,52.36-24.06,6.9-3,15.64-5.4,19.43-5.4a22,22,0,0,0,11.88-4c4.63-3.71,4.07-3.89-7.86-2.38-13.15,1.66-26.06,5.45-43,12.62-12.62,5.35-16.5,5.28-12-.22,1.94-2.35,9.59-7,17-10.24,16.79-7.44,71.71-23.9,90.61-27.16,7.77-1.34,26.27-5.21,41.11-8.6,19.69-4.49,35.32-6.23,57.82-6.44,38.8-.35,75.81,2.49,75.81,5.82,0,1.62-8.61,1.9-23.82.76-55.54-4.17-97.13-1.49-119,7.64-4.91,2-10.7,3-12.87,2.22-2.32-.9-6.87,1.29-11.08,5.32s-8.74,6.22-11.15,5.3c-5.22-2-30.23,10.67-30.23,15.31,0,2-6.42,6.23-14.27,9.48-10.52,4.36-15.19,8-17.8,13.74-8.05,17.8-9.25,56.73-2.54,82.34,2.22,8.48,5.22,20.28,6.66,26.23,4.69,19.33,25.54,47.16,52.62,70.24,9.31,7.93,41.3,23.67,58.84,29h0c7.06,2.12,22.1,4,33.4,4.09,36.75.4,65.39-6.45,103.72-24.81,35.61-17.05,73-60.84,80.53-94.42,9.61-42.64,10.33-78,1.93-95.35-7.33-15.14-17.18-26.71-22.73-26.71-2.43,0-11.64-2.44-20.47-5.43C663.15,534,659,534.77,664,542.76c1.71,2.74,3.1,8.76,3.1,13.38l0,8.38-3.84-7.36c-2.11-4-3.84-9.12-3.84-11.27,0-4.83-11.77-16.06-16.83-16.06s-4.65,3.5,1.25,8.84c11.16,10.11,16.3,26.91,16.33,53.47,0,20.71.64,24.54,3.5,22.17,2.4-2,3.54-10.06,3.72-26.33.24-22.72.35-23.13,3.47-13.18,9,28.86-11.57,89.32-36.59,107.3-20.87,15-34.75,21.66-54.39,26.13-26.17,5.95-42.68,6.71-56.44,2.6-19-5.66-51.56-20.17-51.59-23,0-1.41-4.21-5.92-9.34-10-5.78-4.61-12.14-13.66-16.73-23.77-4.28-9.45-9-16.33-11.23-16.33a3.66,3.66,0,0,1-3.83-3.44c0-1.9-4.11-6.38-9.14-10-8.57-6.1-8.78-6.59-3.52-8,4.34-1.14,5.33-2.91,4.39-7.83-1-5.09,0-6.58,4.82-7.5,6.31-1.21,8.43,2.51,2.69,4.71-1.84.71-3.28,4.42-3.22,8.27.09,5.06,1.44,7,4.91,7,4.31,0,4.88-2.8,5.83-28.27.58-15.55,2.08-30.58,3.34-33.41s2.93-7.16,3.72-9.63c2.84-8.91,6.2-4.55,4,5.14a83.5,83.5,0,0,0-2,17.34l.2,7.71,1.94-8.14c2.56-10.74,16.34-35,20.72-36.42,2.36-.79,1.83,1.62-1.65,7.57-2.81,4.8-7.85,17.28-11.2,27.74l-6.09,19,5.86,4.74c3.42,2.77,5.25,6.36,4.39,8.61-1.66,4.31-6.78,5.29-6.78,1.29a2.58,2.58,0,0,0-2.57-2.57c-4.18,0-3,21,1.47,25.92,3.72,4.11,5.53,9.17,6,16.91.44,6.68,26.15,31,40.42,38.2,13.23,6.7,18.2,7.7,42.32,8.52,29.76,1,50.6-3.17,65.15-13.1,11.49-7.84,27.05-23.09,27.05-26.51,0-1.65,2.21-5.81,4.92-9.25,6.09-7.74,9.47-24.16,5.87-28.51s-6.88-37.88-3.62-37.88,5.67,6.23,5.67,14.19c0,6.93,4,10.61,5.92,5.5,1.45-3.79.61-17.88-1.59-26.65s-15.48-30.23-16.63-26.79c-.57,1.7.4,4.81,2.15,6.92,4.86,5.86,1.41,6.92-4.85,1.49-6-5.16-7.35-10.63-2.71-10.63,1.57,0,2.26-1.45,1.53-3.21-5.62-13.76-5.85-13.12,4.14-11.5,5.16.84,10,.44,10.87-.88,2.28-3.69,13-2.85,16.46,1.29,1.68,2,9.63,4.41,17.66,5.28s17.66,3.26,21.42,5.3,8.06,3.72,9.58,3.72,11.59,4.14,22.4,9.2,25.24,10.08,32.08,11.16,13.91,3.14,15.74,4.57,12.57,7.6,23.87,13.68,22.29,12,24.41,13.17c11,6,60.56,26.83,79.67,33.48,29.63,10.33,47.21,14.65,65.52,16.09l51,4.07C1060.81,648.37,1068,648,1068,643c0-1.61-8.27-2.55-21.32-2.41-23.74.26-45.49-2.33-45.49-5.41,0-1.11,8.16-2.84,18.13-3.84s17.76-2.21,17.29-2.68-7.76-1-16.21-1.27c-24.74-.67-46.83-4.74-65.77-12.11s-23.37-12.5-8.69-10.12c9.06,1.47,12.43-1.49,5-4.35-8.52-3.27-.79-6,10.29-3.66,6.31,1.35,14.71,2.07,18.67,1.62,5.86-.67,3.64-2.1-12.09-7.75-35.87-12.89-39.34-14.72-35.83-19,3.8-4.58,4.07-4.31-10.91-11.07-23.47-10.59-17.54-13.21,15.9-7,10.6,2,25.64,4.28,33.41,5.16,23.95,2.7,8.43-3.19-23.7-9-33.89-6.13-61.07-12.91-74.93-18.7-7-2.94-13.77-3.67-23.38-2.54-14.16,1.66-21.7-2.24-11-5.69,5.66-1.84,5.61-2-1.87-5.06a34.23,34.23,0,0,0-15.73-1.88c-9.23,1.5-13.08-2.27-7.26-7.1,3.24-2.69,8.3-2.2,28.21,2.73,13.35,3.3,24.9,5.38,25.67,4.61s-8.76-4.5-21.18-8.28-31.25-9.76-41.85-13.3-22.17-7.1-25.7-7.93a30.6,30.6,0,0,1-10-4.38c-2-1.57-11.81-3.08-21.84-3.35-21.83-.58-34.94-2.78-34.94-5.86,0-2.42,58.12-1.4,67.54,1.19,11.69,3.21-3-5.73-16.9-10.27-7.3-2.39-16.19-6.38-19.76-8.87-8.33-5.81-19.84-8.58-21.88-5.27-.88,1.42-.08,2.59,1.77,2.59,7,0,22.63,5.47,22.63,7.87,0,1.38-2.8,3.78-6.23,5.34-5.06,2.31-8.93,1.73-20.53-3.08-14.49-6-20.15-5.57-14.59,1.13,5,6,.17,6.31-22.89,1.37s-39-6.23-22.29-1.79c5.41,1.43,10.45,4.2,11.2,6.15.95,2.47,6,3.56,16.51,3.56,9.49,0,15.14,1.07,15.14,2.88,0,3.1-17.34,2-38.55-2.46-20.25-4.25-48.2-6.12-42.91-2.87,2.54,1.56,11,3.5,18.68,4.3,11.57,1.19,16.06,3.2,25.32,11.36,8.61,7.58,13.44,9.92,20.5,9.92,5.09,0,9.25,1.19,9.25,2.65,0,5.28-8.57,5.72-22.77,1.16-8-2.56-17.84-4.43-21.93-4.17s-12.6-1.48-18.9-3.89c-9.09-3.47-12.46-3.74-16.32-1.34-3.58,2.24-8,2.34-16.86.35s-12.49-1.9-13.79.22c-1.21,1.95-6.77,2.35-16.93,1.21-11-1.23-14.07-.94-11.27,1,4.24,3-14.76,1.48-30.19-2.42-4.9-1.24-8.35-1.13-8.35.25a2.57,2.57,0,0,0,2.72,2.37c1.5,0,2.1,1,1.34,2.22s-8.62,3.63-17.49,5.34C478.36,506,416,523.72,388.39,533.71c-28,10.12-71.9,30.24-74.21,34-.88,1.42-8,5.81-15.79,9.76s-14.19,8-14.19,9-2.31,2.45-5.14,3.19-5.13.35-5.13-.86c0-3.79,48.85-45.45,61.34-52.29,52-28.53,93.5-46,119.82-50.59,7.07-1.22,21.52-4,32.12-6.26,28.28-5.94,56.31-8.61,92.38-8.79,22.24-.11,31.18-1,29.31-2.85-4.18-4.18-68.06-3.26-99.76,1.45-15.49,2.3-28.86,4.61-29.7,5.13-2.74,1.69-54.5,11.78-55.47,10.81-1.14-1.14,21.2-10.18,38.83-15.72,24.78-7.78,54.3-12.16,91.95-13.65,20.89-.83,38.59-2.49,39.34-3.7s-4.21-2.36-11-2.56-14.66-.57-17.49-.84l-10.28-1c-4.3-.4-4.51-.89-1.29-3,6.85-4.42,2.09-3.77-38.84,5.36-10.85,2.42-13.24,2-28.19-5.27-9-4.35-14.93-6.5-13.2-4.77,4.6,4.6,3.84,7.25-2.08,7.25-8.16,0-21.53-6.42-29.07-14-3.3-3.31-7-5.54-8.79-5.46Zm179.29,12a19,19,0,0,0-4.5.49c-2.47.64-.45,1.17,4.5,1.17s7-.53,4.5-1.17A19,19,0,0,0,613.13,440.19Zm-31,0a7,7,0,0,0-2.84.5c-2,.82-1.44,1.43,1.55,1.55,2.71.11,4.23-.5,3.37-1.35a3.15,3.15,0,0,0-2.08-.7Zm45.22.2c-2.56,0-3.83.3-3.2,1,1.09,1.12,12.07,3.4,24.41,5.06,29.64,4,35.78,3.92,19-.17C654.1,443,635,440.4,627.3,440.41ZM502,442.51c-4.68,0-5.05.51-1.93,2.52,5,3.22,7.71,3.22,7.71,0C507.77,443.62,505.17,442.48,502,442.51Zm395.09,1.8,7.71,7.59c4.24,4.18,10,8.88,12.82,10.45s5.65,2.34,6.28,1.71c1.22-1.23-6-6.92-18.93-14.89Zm-564.2,3.29c-1.5,0-2,1.16-1.14,2.57s2.1,2.57,2.72,2.57,1.14-1.15,1.14-2.57A2.66,2.66,0,0,0,332.88,447.6Zm274.89,5.46a7,7,0,0,0-2.83.5c-2.05.82-1.45,1.42,1.55,1.55,2.71.11,4.22-.5,3.37-1.35a3.18,3.18,0,0,0-2.09-.7Zm-321.15,15.1c-1.49,0-2,1.16-1.13,2.57s2.1,2.57,2.72,2.57,1.13-1.15,1.13-2.57A2.66,2.66,0,0,0,286.62,468.16Zm648.7,2.57c-2.12,0-3.14,1.16-2.26,2.57s3.32,2.57,5.44,2.57,3.14-1.15,2.27-2.57S937.44,470.73,935.32,470.73ZM294,473.58c-1.32,0-1.42,1.16-.55,3.43a8.84,8.84,0,0,0,5.71,4.69c7.41,1.7,9.08-1.28,2.7-4.82C297.89,474.66,295.36,473.56,294,473.58Zm657.44,8.65c-1,.1-.54,1,1,2.84,3.39,4.08,7.54,4.84,7.54,1.38,0-1.25-2.38-2.89-5.29-3.65a11.12,11.12,0,0,0-3.27-.57Zm-241.71.08a46.78,46.78,0,0,1,8.7.86c5.42,1.15,9.31,3.64,9.82,6.29.57,3-.69,4.26-3.84,4-25.5-2.24-34.23-4-34.23-7C690.22,483.94,700.39,482.14,709.77,482.31Zm-106.24.19c-1.62-.13-2.41.36-1.82,1.32.79,1.28,3.11,2.33,5.14,2.33,5.32,0,4.56-1.75-1.44-3.32A11,11,0,0,0,603.53,482.5Zm129.09.54,18,1.87c19.28,2,21.84,2.77,21.84,6.53,0,1.33-4.91,2.49-10.92,2.58-9.14.14-10,.55-5.14,2.49,6.75,2.71,7.49,6.42,1.72,8.64-4.64,1.78-4.38,1.8-26.77-1.71-16.66-2.61-16.69-2.63-9-6,4.24-1.84,10.49-3.41,13.89-3.47,6.12-.12,6.13-.17,1.28-5.53L732.62,483Zm-485.53,10.9c-1.33,0-.17,1.62,2.57,3.69s6.08,3.81,7.41,3.86.17-1.62-2.57-3.69S248.42,494,247.09,493.94Zm116.91.27c2.18.28,5,2.67,5,4.94a2.42,2.42,0,0,1-2.41,2.42c-3,0-6.28-5-4.44-6.86a2.11,2.11,0,0,1,1.85-.5Zm415.35,5.35c5.55.13,13.66,2.53,13.66,4.78,0,3.1-17.25,3.08-19.16,0a3,3,0,0,1,1.19-4,8.47,8.47,0,0,1,4.31-.71Zm132.55,4.71c-1.94,0-3.25.82-3.25,2.44,0,1.41,3.18,2.56,7.06,2.53,5.51,0,6.22-.59,3.21-2.53A13.81,13.81,0,0,0,911.9,504.27ZM709.26,507.9a63.53,63.53,0,0,1,8.67.51c10.94,1.29,12.9,2.23,10.53,5.08-3.46,4.17-24.34,4.72-26.82.7s.38-6.11,7.62-6.29Zm70.91,1.78c11.74.09,18,2.71,18,7.62,0,2.24-20.38,2.48-34.21.4-13-2-5.93-7.1,10.86-7.91,1.9-.09,3.69-.13,5.37-.11ZM739.9,517c15.55,0,20.74,2.07,16.88,6.72a9.63,9.63,0,0,1-7.13,3.25C729.38,525.49,721.07,517,739.9,517Zm135.12.32a7,7,0,0,0-2.83.49c-2.05.82-1.44,1.43,1.55,1.55,2.71.11,4.23-.49,3.37-1.35a3.18,3.18,0,0,0-2.09-.69ZM806.83,524c8.2.12,14.45,2.36,14.45,5.77,0,2.66-16,3.32-23.13,1-10.71-3.57-10.71-4.43,0-6.1A52.7,52.7,0,0,1,806.83,524Zm110.81,3.37,12.85,3.5c7.07,1.92,15.16,3.56,18,3.64,9.59.26-4.45-4.11-18.3-5.7ZM782.9,532.88c11.16,0,20.11,4.82,11.18,8.25a17.59,17.59,0,0,1-7.06,1.14c-1.66-.22-6.76-.88-11.36-1.45-10.46-1.29-10.79-4.9-.64-7.13A36.68,36.68,0,0,1,782.9,532.88Zm-582.36,4.67c-2.2,0-3.3,1.15-2.42,2.57a5.5,5.5,0,0,0,4,2.57,2.51,2.51,0,0,0,2.42-2.57C204.54,538.7,202.74,537.55,200.54,537.55Zm637.65,0c8.27,0,11.47,1,10.72,3.21-1.09,3.34-13.7,5.21-19.28,2.85-7-3-2.6-6.06,8.56-6.06Zm33.48,1c6,.12,11.44,2.34,10.53,5.08-1.1,3.3-5.19,3.93-15.31,2.36-8.58-1.33-9.2-4.8-1.21-6.81A23.11,23.11,0,0,1,871.67,538.57Zm-196.82,3.91a2.65,2.65,0,0,1,1.46.86c.83.83,1,3.63.4,6.21-1.07,4.49-1.2,4.49-3.11.09-1.64-3.77-.68-7.43,1.25-7.16Zm-95.48.27a4,4,0,0,1,.92,0c1.34.2,2,1.16,1.4,3s-4.24,3.93-8.18,5c-7,1.86-7,1.77-2.65-3.07,2.71-3,6.19-4.75,8.51-4.92Zm242.4,2.52c6.65,0,8.57,5.49,3.26,9.37h0c-5.49,4-4.58,4-17.89-.16l-10.28-3.23,10.28-3c5.66-1.64,12.24-3,14.63-3Zm-208.86.3a3.18,3.18,0,0,1,2.09.7c.85.85-.66,1.46-3.37,1.35-3-.12-3.6-.73-1.55-1.55a7.15,7.15,0,0,1,2.83-.5ZM860.38,553c10.67,0,17.43,2.1,17.43,5.42,0,4-19.49,1.46-24.29-3.1C852.05,553.88,854.76,553,860.38,553Zm34.13,0c2.12,0,3.86,1.16,3.86,2.57s-1.74,2.57-3.86,2.57-3.85-1.15-3.85-2.57S892.39,553,894.51,553ZM514,557c1.28-.09,2.82.45,5,1.61,8,4.29,27.26,23.39,27.31,27.14.05,4-4.14,3.8-14.09-.67-4.24-1.91-10.21-2.87-13.28-2.14-3.82.91-6.42-.25-8.28-3.74-1.5-2.78-5.64-5.8-9.21-6.7-8.26-2.07-8.34-6.11-.17-8.16,3.48-.87,7.65-3.18,9.26-5.13,1.16-1.39,2.19-2.12,3.48-2.21Zm164.67.29c.19,0,.38.3.58.83a14.25,14.25,0,0,0,5.25,6.09c3.16,1.86,3.21,2.59.26,4.45-6,3.8-7.38,2.62-7.17-6,.09-3.44.53-5.44,1.08-5.33Zm-39.91.53a2.83,2.83,0,0,1,1.56.93c.81.81,1,4.76.5,8.77l-1,7.31-2.09-7.19c-1.63-5.6-1-10,1-9.82Zm207.15,5.74a13,13,0,0,1,4.93.63c2.13.81,3.86,2.68,3.86,4.13,0,3.37-17.16,3.5-19.23.16-1.4-2.28,4.92-4.71,10.44-4.91Zm-434.48,2.27c2.21,0,3.1,1.53,2.21,3.86-.82,2.12-1.81,3.85-2.21,3.85s-1.4-1.73-2.22-3.85C408.3,567.34,409.18,565.81,411.41,565.81Zm182.6,0c2,0,3.7,1.16,3.7,2.57s-2.38,2.57-5.29,2.57-4.58-1.15-3.7-2.57A6.79,6.79,0,0,1,594,565.81Zm294.08,0c7.42,0,10.28,1.07,10.28,3.86,0,2.54-2.41,3.78-7.07,3.65-16-.46-19-7.51-3.21-7.51Zm-412.79,6c.23,0,.51.43.81,1.2h0c.74,1.86.65,4.07-.2,4.92s-1.47-.66-1.35-3.37c.07-1.87.34-2.81.73-2.75Zm-47,1.9c2,0,2.36,2.88,1,8.47-.93,3.7-2.72,6.73-4,6.73-3.24,0-2.86-12.19.45-14.24a5.3,5.3,0,0,1,2.57-1Zm443.72,0c2.73,0,3.83,1.86,2.06,4.73-2.13,3.45-5.75,3.52-7.83.15-.88-1.42.26-3.3,2.53-4.17a9.62,9.62,0,0,1,3.24-.71Zm43.73.94c4.23-.08,5.76,1.54,5.76,5.4,0,2-1.44,3.54-3.21,3.35-15.73-1.71-19.65-5.82-7.72-8.1A31.26,31.26,0,0,1,915.73,574.7Zm-219.27,3.44c.2-.11.44.27.68,1.21a14.77,14.77,0,0,1-.09,7.71c-.71,1.74-1.24-.3-1.19-4.54,0-2.65.27-4.21.6-4.38ZM475.3,584.69c.23,0,.51.43.81,1.2h0c.74,1.85.65,4.07-.2,4.92s-1.47-.66-1.35-3.37c.07-1.87.34-2.81.73-2.75Zm237.83,2a3.2,3.2,0,0,1,2.09.7c.85.85-.66,1.46-3.37,1.35-3-.13-3.6-.73-1.55-1.56a7,7,0,0,1,2.83-.49Zm-157.48,2.25c3.77,0,11.22,5.85,11.22,8.81,0,2.57-15,1.58-16.7-1.1C548,593.11,551,588.94,555.65,588.94Zm359.91.26c4.51-.14,8.92.9,9.79,2.31,1.83,3-2.34,3-11.56,0-6.14-2-6.06-2.07,1.77-2.31Zm-222.08,5.63c.65-.29,1.92.82,4.39,3,2.79,2.53,4.45,5.6,3.7,6.82-3.08,5-8.78,2-8.78-4.6C692.79,596.79,692.82,595.11,693.48,594.83Zm-10.36,2.94c1.24.26,1.66,4.52,1.18,12.2-1.62,26.12-34.51,82.22-52.94,90.3-3.67,1.6-7.25,3.65-8,4.53-3.25,4.08-28.77,13.37-45.84,16.68-17.73,3.44-46.74,4.41-58.24,2-30.06-6.42-72.08-31.71-52.68-31.71,2.83,0,5.14,1.1,5.14,2.44,0,4.51,32,20,47.54,23,21,4.09,64.3.28,84.4-7.42a122.16,122.16,0,0,0,28-16.4c12.68-10.39,35-42.53,35.24-50.69.06-2.24.94-4.89,1.94-5.9,3.15-3.15,11-25.73,11-31.64,0-3.09,1.17-6.35,2.61-7.24a.74.74,0,0,1,.57-.13Zm-272.85,1.45a2.51,2.51,0,0,1,2.42,2.57c0,1.41-1.8,2.57-4,2.57s-3.29-1.16-2.41-2.57a5.5,5.5,0,0,1,4-2.57Zm499.66,0c2.29,0,3.44,1.16,2.57,2.57s-2,2.57-2.57,2.57-1.7-1.16-2.57-2.57S907.64,599.22,909.93,599.22Zm85.87.32A7,7,0,0,0,993,600c-2.05.82-1.45,1.43,1.55,1.55,2.7.11,4.22-.49,3.37-1.35a3.2,3.2,0,0,0-2.09-.69Zm-502.48,5.78c.49,0,1,.64,1.74,1.74a20.45,20.45,0,0,1,2.39,9.1c0,3,2.64,8.23,5.82,11.7,31.44,34.31,79.61,32.24,102.26-4.41,5.74-9.29,10.17-11.43,10.17-4.92,0,8.49-15.7,27.84-24.83,30.6a21.06,21.06,0,0,0-8.66,5.44c-3.63,4.37-39.22,4.92-53.44.83C507.13,649.16,487.22,625.2,491,610c.82-3.28,1.46-4.75,2.28-4.67Zm46.39,7.51a21.6,21.6,0,0,1,6.44,1.74c5.69,2.35,9.77,2.48,15.53.47,7.3-2.54,7.63-2.39,5.12,2.29-3.26,6.1-19.47,6.92-27.06,1.37-4.42-3.23-4.39-5.52-1.51-5.86a8.93,8.93,0,0,1,1.48,0Zm-24.47,2c1.91.12,4.91,3.07,8.57,8.72,4,6.22,8.4,9.46,14.3,10.59,9.2,1.77,29.88.2,37.11-2.81,2.53-1.06,4.5-.75,4.5.69s-2.86,3.29-6.36,4.16a199.32,199.32,0,0,1-21.2,3.06c-13.47,1.33-16,.74-27-6.4-8-5.12-12.21-9.68-12.21-13.06s.84-5,2.33-5Zm125.45.52c.34.27.44,1.89.52,5,.1,3.89-1,7.07-2.38,7.07-3,0-3-2,0-9,1-2.27,1.53-3.36,1.86-3.09Zm-49.6,2.1c1.06.09,1.48,1,1,2.44a8.06,8.06,0,0,1-4.5,4.5c-1.93.64-2.89-.33-2.25-2.25a8.06,8.06,0,0,1,4.5-4.5,3.17,3.17,0,0,1,1.25-.19Zm-125.57,4.85c2.2,0,3.29,1.15,2.42,2.57a5.52,5.52,0,0,1-4,2.57,2.51,2.51,0,0,1-2.42-2.57c0-1.42,1.81-2.57,4-2.57Zm190.8,3.44c-.5-.12-1.47,1.54-3.38,5.2-2.11,4-3.84,8.43-3.84,9.75,0,5.79-22,30.68-35.39,40.08-26.28,18.41-52.84,22-102.73,14-7.42-1.19-13.49-1.48-13.49-.63,0,3.12,17.11,8.62,32.12,10.33,40.2,4.59,85.79-9.73,106.11-33.32,11.42-13.25,21.1-32.55,21.08-42,0-2.15-.1-3.32-.48-3.41Zm34.15,6.61c.57.07,1.11.79,1.6,2.15.63,1.77,3.87,3.22,7.2,3.22s6.78,1.15,7.65,2.57-1.63,2.56-6.12,2.56c-4.24,0-8.42,1.16-9.3,2.57-3.39,5.5-6.94,2.44-5.2-4.49,1.46-5.82,2.9-8.74,4.17-8.58Zm203.89,11.4c-4-.36,8,7.29,33,19.59,17.49,8.61,23,13.14,18.08,14.79-1.46.48-2.18,3.44-1.6,6.57.73,4-1.82,8.63-8.44,15.4-9,9.17-9.77,9.47-14.23,5.43-3.9-3.53-5.43-3.7-8.69-1-5.27,4.37-7.52,1.72-4-4.76,6.27-11.74,2.64-14-5.49-3.43-6.5,8.46-9.92,10.75-16.09,10.75-4.31,0-12.12,2.29-17.35,5.09s-11.07,4.5-13,3.76-7.8,2.1-13.08,6.3-13,8.38-17.17,9.29-7.57,2.73-7.57,4-1.6,2.37-3.55,2.37-5,1.82-6.9,4c-4.34,5.23-27.67,17.07-30.35,15.41-1.14-.7-7,3.31-13,8.91s-12,10.17-13.31,10.17-7.1,3-12.83,6.58c-7.86,5-11.26,5.88-13.84,3.75-1.88-1.57-6.41-2.09-10.08-1.17-7.67,1.93-9.12-2.34-2.18-6.38,3.19-1.86,3.45-2.65.89-2.7-2-.05-7.19,2.52-11.57,5.7a159.77,159.77,0,0,1-17.86,10.83c-5.45,2.78-8.73,5.45-7.29,5.93s8.46-2.18,15.59-5.91c11.74-6.14,18.32-6.71,18.32-1.59,0,2.45-23.39,10.15-39.83,13.11a144.69,144.69,0,0,0-20.09,5.07c-9.06,3.45-14.6,3.52-14.6.19,0-1.42,2.09-2.57,4.64-2.57s6.9-1.66,9.64-3.7c4.56-3.37,4.21-3.52-4-1.69a143.84,143.84,0,0,0-21.44,7.51c-14.81,6.56-65.93,11.07-65.93,5.82a2.55,2.55,0,0,1,3.22-2.44c13.89,2.56,96.52-23.71,107.83-34.28,4.24-4,8.8-7.2,10.15-7.2,7.53,0,46.18-44.19,42.17-48.2-1-1-3.09.44-4.59,3.25-4.69,8.82-31.84,34.08-47.45,44.16-26,16.77-48.93,25.68-86.91,33.76-13.72,2.91-58.6,2.49-86.09-.82-9.19-1.1-15.95-1.2-15-.21,2.62,2.83,40.51,9,56.16,9.13,10.09.09,13,.84,10.28,2.62-5.63,3.63-21.06,3.12-45.8-1.51-12-2.25-24.5-3.56-27.82-2.93s-6,.37-6-.59-6.65-3.83-14.77-6.39S436.2,796.22,432,792.81c-41.43-33.33-52-42.25-56.07-47.1-2.58-3.11-5.31-5-6.07-4.26-4,4,38.1,45.28,49.94,49,3.18,1,5.78,2.9,5.78,4.22,0,3.64-8.36,2.71-14-1.54-2.75-2.08-6.62-3.77-8.6-3.77s-12.45-9.06-23.27-20.13c-22.6-23.11-27-28.33-29.58-35-1-2.66-5-9.79-8.83-15.85-6.78-10.72-10.82-13.93-10.82-8.59,0,2.85,11.92,22.48,16.46,27.11,1.55,1.57,5.7,6.74,9.24,11.48s9.43,12.15,13.11,16.47c7.82,9.17,13.57,19.41,10.9,19.41-4,0-19-11.81-20.34-16.06-.8-2.48-3.69-5.7-6.42-7.16-5.36-2.87-6.71-.11-2.17,4.43,2,2,2,3.3-.16,4.62-1.73,1.06-7-2.53-12.62-8.64-7-7.57-10.45-9.7-12.47-7.67s-5.27.93-11.68-4c-5.57-4.25-10.51-6.14-13.25-5.09-3,1.14-7.39-1.26-13.82-7.5-8.61-8.35-9.91-8.85-14.45-5.49-6.48,4.8-8,4.66-8.34-.8-.38-5.7-8.25-26.16-8.4-21.84-.2,5.61-8.83,3.44-17.09-4.3-5.51-5.17-11.88-8-20.56-9.31-6.92-1-14-3-15.75-4.35-4.26-3.39-11.22-.5-9.51,4,.75,1.95,5.89,6.09,11.42,9.2S217,713,219.94,716.7s9.62,8.91,14.88,11.54c18.13,9.08,23.69,12.6,23.69,15,0,4-4.91,2.78-17-4.31-6.32-3.71-12.16-6.07-13-5.26-3.34,3.34,2.12,9.44,13.78,15.41,69.76,35.73,113.44,54.73,145.62,63.34,60.22,16.11,151.46,29.14,185.67,26.52,10.52-.81,20.29-.29,23,1.22,7.8,4.37-25.89,6.65-73.39,5-27.62-1-40.3-.66-36.37.92,8.3,3.33,57.2,7.44,92.9,7.8l29.55.3-19.12,3.48c-24.68,4.5-38.51,5-74.67,2.44-16.25-1.13-28.83-1.27-28-.31s9.55,3.32,19.27,5.26c22.7,4.51,19.71,4.45,65.63,1.23,37-2.6,56.43-5.95,71.53-12.33,5-2.1,2.33-2.36-11.56-1.17-21.95,1.88-20.94-.95,1.59-4.46,51.2-8,112.36-26.14,121.61-36.14,3-3.27,2.81-3.22-24.26,5.56-9.19,3-20.76,6.45-25.7,7.72-37.84,9.7-55.39,13.06-73.24,14l-20.56,1.1,20.56-3.66c11.31-2,25.18-5.38,30.84-7.47s19-5.58,29.55-7.74c24.85-5.06,48.08-11.19,53.6-14.15,2.39-1.28,11.84-3.67,21-5.32,15.1-2.71,63.38-24.8,60.5-27.68-.6-.59-16.49,4.68-35.32,11.7-40,14.93-49.31,17.49-47.88,13.18.55-1.65,7.31-5.28,15-8.05,38.15-13.71,77.52-29.17,93.82-36.86,14.26-6.72,23.65-9.11,44-11.2,14.23-1.46,29-3.84,32.79-5.28a54.79,54.79,0,0,1,15.11-2.83,65.55,65.55,0,0,0,17.18-3.47c9.88-3.6,20.56-.82,20.56,5.36,0,4.12-6.13,4.47-13.06.77a9.35,9.35,0,0,0-9.46-.17c-3.75,2.1-3.85,2.69-.61,3.67,16.13,4.92,28.24,10.33,33,14.74,3.07,2.86,5.58,4.06,5.58,2.67s-2.47-4.24-5.47-6.35c-3.92-2.75-5-5.51-4-9.79s-.79-8.68-7.09-16.18l-8.57-10.22,10-14.69c5.48-8.08,10-16.2,9.95-18,0-2-10.12-6.4-25.06-10.92a448.61,448.61,0,0,1-49.09-18.76c-14.44-6.72-22.54-9.82-24.91-10ZM627.79,645a2.13,2.13,0,0,1,1.86.66c2,2-.17,5.3-7.53,11.57-14.85,12.65-18.86,10.83-6.1-2.78,5.87-6.27,9.49-9.22,11.77-9.45Zm300.35,1.36a1.33,1.33,0,0,0-.79.14c-3.62,3.62,21.56,11.74,44.38,14.32,14.07,1.59,34.82,3.91,46.13,5.16,23,2.55,49.88,1.33,53.64-2.42,4.29-4.29-4.92-5.74-21-3.31-17.41,2.64-53-.93-95.29-9.54-12.81-2.62-24-4.39-27.06-4.35Zm-500,3.21c4.74-.22,12.79,3.25,12.79,6,0,4.82-4.85,5.44-7.38.93-2.14-3.81-2.76-3.92-3.81-.7-.69,2.12-1.68,5.43-2.19,7.35-.77,2.85-1.53,2.79-4.11-.31-3.45-4.16-1.89-11.1,2.91-12.92A5.6,5.6,0,0,1,428.17,649.54Zm24.21,1.17a.68.68,0,0,0-.89.47,3.16,3.16,0,0,0,1.93,4,4.64,4.64,0,0,1,3,4.11c0,1.72,1.36,4.49,3,6.17,5.83,5.83,5.36.6-.75-8.33-2.53-3.71-5-6.15-6.29-6.44Zm231,1.11c1,.07,1.65.71,1.64,2.09,0,1.72-2.3,6.89-5.1,11.48-5.89,9.66-11.55,11.57-7.61,2.57,1.39-3.18,3.2-7.73,4-10.1C677.63,654.27,681.28,651.66,683.43,651.82Zm-206.94,1.36a2.82,2.82,0,0,1,3,2.57c0,1.42,2.89,2.57,6.43,2.57,4,0,6.42,1.46,6.42,3.86,0,5.84-6.09,4.62-12.85-2.57-3.32-3.54-4.67-6.43-3-6.43Zm-287.22,2.57c-5.64,0-8.94,3.87-6.57,7.71,2.1,3.41,4.72,3.24,8.48-.51C195.67,658.45,195,655.75,189.27,655.75ZM913.72,666c-6.34,0-1.38,5,9.7,9.75,14,6,16.06,6.48,16.06,3.61C939.48,677.2,917.94,666,913.72,666Zm-671.67.7c-.44,0-1,.35-1.82,1.13-1.57,1.58-2.09,4.12-1.14,5.66q4,6.45,4-2.87C243.09,668.06,242.79,666.8,242.05,666.73Zm361.3,1.87c1.52,0-.18,2.31-3.77,5.14-6.74,5.3-16.25,7.12-13.43,2.57.87-1.41,3.76-2.57,6.42-2.57s5.55-1.16,6.42-2.57a5.83,5.83,0,0,1,4.36-2.57Zm-159.18.08c.49,0,1.44,1.17,3.29,3.63,2.08,2.74,3.78,5.92,3.78,7.06,0,2.52-3.63,2.73-6,.36-.94-.94-1.68-4.12-1.63-7.06,0-2.63.07-3.95.56-4Zm-254.11.81c-.39-.06-.66.88-.73,2.75-.12,2.71.49,4.23,1.35,3.37s.94-3.07.2-4.92C190.57,669.92,190.29,669.53,190.06,669.49Zm15.45.11a1.76,1.76,0,0,0-1,.31,3,3,0,0,0-1.13,4c2.2,3.56,3.74,2.9,3.74-1.61,0-1.66-.66-2.68-1.6-2.71Zm798,1.89a6.89,6.89,0,0,0-2.84.5c-2,.82-1.44,1.42,1.56,1.55,2.7.11,4.22-.5,3.37-1.35a3.2,3.2,0,0,0-2.09-.7Zm-568.92,2.25c2.16,0,5.12,3.16,6.59,7s3.46,7.64,4.43,8.4,5.16,5.12,9.32,9.69c5.67,6.25,6.52,8.31,3.39,8.31-2.28,0-6-1.82-8.19-4-5.38-5.39-5.2-1.51.22,4.47,3.62,4,3.68,4.71.39,4.71-5.46,0-14.63-10.69-10.43-12.16,5-1.76,3.8-7-3.21-13.54C429.88,679.81,428.69,673.74,434.59,673.74Zm265.69.32a3.18,3.18,0,0,1,2.09.7c.85.85-.66,1.46-3.37,1.35-3-.13-3.6-.73-1.55-1.55a6.81,6.81,0,0,1,2.83-.5Zm-197.61.32c2-.16,5.39,1.08,8.17,3,6.53,4.57,3.94,5-5.64,1-3.67-1.54-5.07-3.2-3.28-3.88a3.2,3.2,0,0,1,.75-.16Zm-278.41,1.93c-1.25,0-1.58,1.83-.72,4.07a25.92,25.92,0,0,1,1.56,7.71,3.64,3.64,0,0,0,3.63,3.64c3,0,3.1-1.41.72-7.71C227.85,679.78,225.52,676.31,224.26,676.31Zm332.25.65c2.57-.09,3.22,1.87,1.77,5.67-.84,2.18-3.84,4-6.66,4-6,0-4.73-6.39,1.69-8.86a10.21,10.21,0,0,1,3.2-.77Zm-81.47.82a2.84,2.84,0,0,0-.72,0,1.79,1.79,0,0,0-.64.22c-1.42.88.18,3.13,3.55,5,9.1,5,11.57,4.27,4.9-1.51-2.47-2.15-5.28-3.57-7.09-3.72Zm-218.17,2c-.39-.06-.65.88-.73,2.75-.11,2.71.49,4.23,1.35,3.37s.94-3.07.2-4.92C257.38,680.2,257.1,679.81,256.87,679.77Zm310,1.68A2.57,2.57,0,1,1,564.3,684,2.58,2.58,0,0,1,566.87,681.45Zm285,1.43c-1.42.32-4,3.9-6.17,8.7-2.48,5.5-9,15-14.49,21s-10,11.95-10,13.06c0,4.8,5.41,1.28,13.65-8.88,10.85-13.39,20.49-32,17.52-33.84a.64.64,0,0,0-.53-.07ZM893.71,684c-2.09,0-13.33,14-13.33,16.6,0,3.41,6,.87,10.42-4.39,5-6,6.5-12.21,2.91-12.21Zm32.77,0c-1.33,0-2.38,3.18-2.34,7.07.08,6.69.28,6.81,3.78,2.19,3.72-4.91,3-9.26-1.44-9.26Zm31.62,0c4.42,0,4.92,1.16,3.51,8.22-.91,4.53-3.08,9.13-4.82,10.24a17.41,17.41,0,0,1-7.72,2.06c-3.66,0-4.22-1.34-2.86-7C948.5,688,952,684,958.1,684Zm-83.6.81c-.57-.16-1.53.45-3.11,1.76-2.12,1.76-3.86,4.79-3.86,6.74s-2.31,5.85-5.14,8.68c-5.09,5.09-5.09,5.14-.06,5.14,5.24,0,12.91-11.56,12.91-19.47,0-1.76-.17-2.69-.74-2.85Zm-210.85.07c.77-.23.68.65,0,2.55a28.74,28.74,0,0,0-1.7,6.76c0,1.13-2.31,2.67-5.14,3.4-7,1.85-6.44-1.23,1.7-8.64,2.75-2.51,4.38-3.84,5.14-4.07Zm164.64,2.4c-.33-.25-.89.85-1.87,3.15A31.67,31.67,0,0,0,824,699c-.1,1.85,1,2.65,2.39,1.78s2.48-4.7,2.38-8.51C828.72,689.14,828.62,687.54,828.29,687.3Zm-520,.18c-.39-.06-.66.88-.74,2.75-.11,2.71.5,4.23,1.35,3.37s.95-3.06.2-4.92C308.78,687.91,308.5,687.52,308.27,687.48Zm472.82,0c-.39-.06-.65.88-.73,2.75-.11,2.71.5,4.23,1.35,3.37s.94-3.06.2-4.92C781.6,687.91,781.33,687.52,781.09,687.48Zm-536.87,1.68c-2.2,0-3.29,1.16-2.42,2.57a5.51,5.51,0,0,0,4,2.57,2.5,2.5,0,0,0,2.42-2.57C248.23,690.32,246.43,689.16,244.22,689.16Zm83.83,2.51a2.17,2.17,0,0,0-1.71.74c-.84.85-.63,3,.48,4.8v0c1.61,2.61,2.22,2.61,3.09,0,.93-2.79-.24-5.4-1.86-5.55ZM672.79,693a6.61,6.61,0,0,1,1.09,0,2.86,2.86,0,0,1,2.2,1.27c.79,1.28-.91,3.58-3.78,5.12s-5.21,4.48-5.21,6.55-2.24,3.77-5,3.77-6.51,2.1-8.35,4.66c-3.72,5.17-12.35,9.26-12.35,5.85,0-1.19,5.75-6.07,12.78-10.84s12.81-10,12.85-11.6c.05-2.5,3.12-4.53,5.76-4.78Zm-378.94,1.9c-.61-.21-1,.66-1.35,2.52a10.44,10.44,0,0,0,2.45,8.1c4.62,5,5.75.69,1.74-6.59-1.38-2.5-2.23-3.81-2.84-4Zm441.54,4.6c-.14-.06-.35.45-.59,1.59-.65,3-3.43,7.55-6.18,10s-5,5.64-5,7,2.6.77,5.78-1.33c3.91-2.59,5.91-6.63,6.18-12.52.13-3,0-4.68-.2-4.78Zm-88.53.23a2.41,2.41,0,0,1,1.46.77c1.14,1.21.73,2.69-.91,3.27s-5.68,3.47-9,6.4A63.29,63.29,0,0,1,624.13,719c-15.8,6.74-14.76,3.39,1.85-5.95,9.18-5.16,17.5-10.6,18.49-12.09a2.54,2.54,0,0,1,2.39-1.26Zm-336,.06c-.6-.1-.91.57-.91,2,0,5.42,18.6,37.7,26.39,45.8,4.41,4.6,8.53,8.35,9.14,8.35s-2-3.75-5.76-8.35-11-16.75-16.05-27c-6.57-13.37-11-20.52-12.81-20.81Zm37.82.21c-1.38-.08-1.74,1.48-1,4.42s2.49,5.29,3.84,5.29c3.42,0,1.49-8.34-2.21-9.57a2.52,2.52,0,0,0-.66-.14Zm-71.53,0c-.29,0-.34.18-.08.71.69,1.41,2.14,4.88,3.23,7.71,1.39,3.62,2.36,4.11,3.27,1.67.7-1.9-.75-5.37-3.24-7.71A10.3,10.3,0,0,0,277.1,700Zm-10.23,8.35a.4.4,0,0,0-.28.12c-.61.61.35,2.87,2.14,5,4.59,5.53,5.83,4.87,2.1-1.1-1.51-2.42-3.16-4.07-4-4ZM374,709.71c-1.49,0-2,1.16-1.13,2.57s2.1,2.57,2.72,2.57,1.13-1.15,1.13-2.57A2.66,2.66,0,0,0,374,709.71Zm443.88.73c-.6,0-1.56.63-3,1.84-2.12,1.76-3.85,4.88-3.85,6.93,0,3.19.55,3.17,3.85-.14,2.12-2.12,3.86-5.23,3.86-6.92,0-1.16-.24-1.73-.84-1.71Zm-516.16,1.84c-2.88,0-.14,9.82,4,14.32,1.59,1.74,3.34,2.73,3.89,2.21C311.34,727.15,304.23,712.28,301.71,712.28Zm659.62,2.57c2.12,0,3.85,1.16,3.85,2.57s-1.73,2.57-3.85,2.57-3.86-1.15-3.86-2.57S959.21,714.85,961.33,714.85Zm-489.84.42c3,.26,9.18,2.79,14.9,6.14,7.41,4.35,16,7.08,22.84,7.27,6,.17,11.83,1.17,12.89,2.23,2.89,2.89,39.07,2.33,40.9-.64.87-1.41,7-2.59,13.64-2.63a121.1,121.1,0,0,0,22.05-2.38c9.1-2.11,9.63-2,5.95,1.72-2.22,2.23-9.61,5.14-16.42,6.46-17.28,3.37-58.62,4.52-74.4,2.08-7.26-1.13-16.51-3.79-20.56-5.92s-11.76-6-17.14-8.67c-6.22-3-8.31-5.1-5.72-5.64a4,4,0,0,1,1.07,0Zm320.07.83c-1,.18-2.84,2.38-4.63,5.82-2.38,4.59-3.19,8.35-1.79,8.35,3.37,0,8.48-9.74,7.16-13.63C792.16,716.21,791.9,716.05,791.56,716.1Zm136.3.94c10.11,0,17.67.44,18.37,1.14,2.93,2.93-4.57,4.05-35,5.26-22.48.88-32.53,2.46-42,6.57-6.83,3-14.7,5.4-17.49,5.4-9.82,0-1.8-5,17.91-11.27,14.9-4.71,26.82-6.46,47.39-7C920.83,717.07,924.49,717,927.86,717Zm-640,1.37c-2.3.31-.29,4.68,5.58,11.66,3.66,4.35,7,7.91,7.4,7.91,2.22,0-7.86-18-10.69-19.11a5.1,5.1,0,0,0-2.29-.46Zm-44.9,1.93c1.68.23,4.88,1.71,10.16,4.52,4.8,2.55,7.69,5.2,6.42,5.88-3.42,1.84-16-3.45-17.54-7.35C241.13,721.16,241.27,720.12,242.94,720.34Zm715.32,2.3c5,0,7.13.74,5.5,2.37-3.24,3.24-44.21,10.48-66.12,11.67-19.94,1.09-30.06,3.87-52.43,14.39-8.75,4.11-17.13,7.47-18.63,7.47-6,0-2.15-4.62,7.54-9,5.66-2.55,10.28-5.48,10.28-6.52s2.61-2.5,5.79-3.26,10.4-3.08,16.06-5.18,20.1-4.44,32.12-5.22,28.78-2.61,37.26-4.09a154.35,154.35,0,0,1,22.63-2.64Zm-490,2.57a12.48,12.48,0,0,1,8.66,3.78c4.37,5.26-2.22,5.32-9.14.08-4.89-3.7-4.88-3.78.48-3.86Zm-87.61.13a.81.81,0,0,0-.39,0c-1.37.47.39,5,5.52,13.8,8.12,13.86,28.71,32.73,44.89,41.16a182.47,182.47,0,0,1,21.84,13.88c10.49,8,14.45,9.4,17.66,6.19,1-1-1.6-3.6-5.76-5.78-20-10.45-45.85-31.09-63.82-50.88-10.89-12-17.68-18.18-19.94-18.41Zm249.39.87a.82.82,0,0,1,.57.14c2.15,2.16-3.07,7.17-10.74,10.3-15,6.12-20.41,7.28-18.33,3.91C603.54,737.34,625.94,726.26,630.05,726.21ZM700.22,729c-1.26.29-6.72,4.56-13.21,10.41-7.42,6.67-16.09,13.32-19.27,14.78s-5.79,3.43-5.79,4.39c0,4.39-47.05,24.12-71.33,29.91-24.69,5.88-76.93,5.84-96.37-.09-24.66-7.51-52-23.41-69-40.15-8.69-8.57-16.36-15-17-14.33-1.52,1.51,19.89,27.23,22.67,27.23,1.1,0,8.49,6.19,16.42,13.75,11.61,11.06,17,14.29,27.8,16.54,12.91,2.69,47.49,7.49,66.06,9.17,16.2,1.46,37.47-2.3,74.52-13.18,21.59-6.34,36.43-12.84,38.14-16.71.48-1.1,5.11-4.19,10.28-6.87,9-4.64,36.38-30.81,36.38-34.72C700.5,729,700.4,728.92,700.22,729Zm-46.67.21c1.08.17-.25,2.15-3.73,6.21-2.44,2.84-5.91,5.17-7.71,5.17-5.87,0-3.47-4.67,4.42-8.61C650.41,730,652.71,729,653.55,729.17ZM776.46,738c-.63,0-1.85,1.16-2.72,2.57s-.37,2.57,1.13,2.57a2.66,2.66,0,0,0,2.72-2.57C777.59,739.14,777.08,738,776.46,738Zm62.59.32a3.2,3.2,0,0,1,2.09.7c.85.85-.67,1.46-3.38,1.35-3-.13-3.6-.73-1.55-1.55a6.89,6.89,0,0,1,2.84-.5Zm-343.61.48c2.75.07,8.56,1.07,17.2,3.17,13.67,3.32,25.21,4.11,46.88,3.22,18.9-.78,26.62-.38,22.54,1.16-3.41,1.29-17.76,2.77-31.89,3.29-20.54.75-29-.1-42-4.24-13.41-4.25-17.31-6.72-12.72-6.6Zm258.21,2c-1.87.16-8.33,5.38-15.62,12.74-8.34,8.41-14.12,15.24-12.85,15.18,4.18-.2,30-24.83,29-27.67a.42.42,0,0,0-.5-.25Zm-130.12,2.26c1.43,0,2.45.43,2.45,1.59,0,3.36-11.93,11.16-17.18,11.24a43.46,43.46,0,0,0-12.12,2.56c-4.16,1.58-7,1.58-8,0-.84-1.36.77-2.47,3.57-2.47a14.69,14.69,0,0,0,9-3.85c2.11-2.12,5.48-3.22,7.48-2.45s5.12-.39,6.93-2.58a12.15,12.15,0,0,1,7.93-4Zm306.55.47a13.52,13.52,0,0,0-4.09.64c-3.18.91-9,2.35-12.85,3.2-7,1.53-8.63,3.61-5.35,6.89,2.45,2.45,4.24,2.19,14.67-2.17,8.3-3.47,11.73-8.32,7.62-8.56ZM262.23,746.9c5.51.89,41.44,16.58,50.24,22.12,8.48,5.34,26,12.47,34.59,14.08,5,.94,9.1,2.52,9.1,3.51,0,2.12,29.5,13.59,46.62,18.11,6.57,1.74,14.21,2.44,17,1.56a7.64,7.64,0,0,1,8.06,2c1.66,2,10.49,5,19.61,6.76s16,4.16,15.18,5.42c-1.74,2.82-10.93,2.67-17.81-.29a39.05,39.05,0,0,0-11.93-2.39c-3.73-.1-20.5-4.7-37.26-10.22s-35.15-11.29-40.87-12.81-19.64-7.7-30.94-13.73-29.16-15-39.71-19.86c-20.87-9.69-24.7-12.12-22.55-14.28.08-.08.31-.08.68,0Zm235.41,3.93c1.5,0,2,1.16,1.14,2.57s-2.1,2.57-2.72,2.57-1.14-1.16-1.14-2.57A2.66,2.66,0,0,1,497.64,750.83Zm-262.23,1.68c-1.95.24-.89,3.46,3.89,9.15,3.5,4.15,6.36,8.54,6.36,9.75s2.31,2.94,5.14,3.83a7.6,7.6,0,0,1,5.14,6.71c0,3.66,4.15,7,14.86,12.1,8.17,3.87,18.47,9.6,22.88,12.74s9.71,5.71,11.77,5.71,6.8,2.4,10.52,5.32,9.28,4.88,12.55,4.31c5.39-.93,5.26-1.21-1.92-4a105,105,0,0,1-14.13-7,193.06,193.06,0,0,0-17.36-8.91c-6-2.71-12.38-6.19-14.14-7.73a120.75,120.75,0,0,0-12.18-8.3c-13.29-8.1-3.67-8.85,11.88-.92,45.1,23,56.11,27.15,98.61,37.28,10.6,2.52,23.32,5.85,28.27,7.39s13.62,3.9,19.27,5.23c14.23,3.35,13.68,3.32,15.2.86.75-1.22-8.14-4.22-19.76-6.66-39-8.22-89.62-26.09-129.44-45.76-21.41-10.57-42.9-22.26-47.76-26s-8.14-5.28-9.65-5.09Zm528.27.71a11.52,11.52,0,0,0-3.13,1.21,97.28,97.28,0,0,0-15.42,9.91,177.64,177.64,0,0,1-14.44,10.43c-3.88,2.45-7.06,5.51-7.06,6.82,0,5.12,14.79-3.35,29.55-16.91,8.89-8.18,12.07-11.55,10.5-11.46Zm-46.06,3.07c-1.36-.06-8.49,4.54-19.7,13.17-9.64,7.42-19.65,14.87-22.25,16.55-3,1.94-3.48,3.12-1.34,3.22,4,.18,20.82-11.3,35.16-24,6.74-6,9.18-8.85,8.13-8.9Zm-145.46,2.25c1.5,0,2,1.16,1.14,2.57s-2.1,2.57-2.72,2.57-1.14-1.16-1.14-2.57A2.66,2.66,0,0,1,572.16,758.54ZM542,761.47c9.38-.23,14.34.59,13.34,2.21-1.71,2.77-2.5,2.77-18,0C527.48,761.92,527.68,761.82,542,761.47Zm297.84,5a6,6,0,0,0-3.8,2.06c-2.52,2.54-2.23,2.83,1.44,1.44,2.53-1,3.95-2.4,3.16-3.19a1.12,1.12,0,0,0-.8-.31ZM572,768.82a2.57,2.57,0,1,1-2.57,2.57A2.57,2.57,0,0,1,572,768.82Zm415.25,5.86a.82.82,0,0,0-.64.11c-.73.72,1.09,2.61,4,4.19,6.51,3.48,7,9.23.9,11.56-2.45.94-20.24.9-39.52-.07-36.77-1.87-43.4-.87-37.92,5.74,2.3,2.77,6.36,3.42,14.9,2.42,6.46-.75,29.38-2.12,50.94-3s39.18-2.53,39.18-3.59c0-2.41-27.1-16.92-31.88-17.33ZM667.63,792.14a6.05,6.05,0,0,0-3.79,2.05c-2.52,2.54-2.23,2.84,1.44,1.44,2.53-1,4-2.4,3.16-3.19a1.14,1.14,0,0,0-.81-.3Zm-404.22,7.92c-1.75,0-.52,2.34,5.38,7.3,4.94,4.17,11.17,7.6,13.83,7.64,4.27.06,4.12-.5-1.28-4.69-8.5-6.59-15.68-10.29-17.93-10.25Zm-35.25,3.25c-3.91,0-6.24,5.8-4.23,12.12,1.82,5.72,6.31,6.38,6.31.93,0-3.85,5.8-5.18,17.8-4.09,5.4.49,5.79,0,2.88-3.47-1.84-2.22-6.38-3.88-10.09-3.68s-8.61-.44-10.9-1.42a4.58,4.58,0,0,0-1.77-.39Zm688.5,13C906,815.92,872.08,819.75,870,822c-1,1.12-2.67,4.65-3.63,7.83s-.64,5.78.7,5.78,3-2.13,3.68-4.74c1.28-4.89,14.91-8.06,35-8.15,9.89,0,17.86-3.47,13.84-6a8,8,0,0,0-3-.45Zm-645.52,4.19a6.89,6.89,0,0,0-2.84.5c-2.05.82-1.44,1.42,1.55,1.55,2.71.11,4.23-.5,3.38-1.35a3.15,3.15,0,0,0-2.09-.7Zm275.28.53c3.38.15,7.6,2.32,7.6,4.57,0,1.26-2.89,2.29-6.42,2.29-6.35,0-8.61-3.48-4.08-6.28a5,5,0,0,1,2.9-.58Zm-11.59,1.72c2.08,0,3.78,1.09,3.78,2.42,0,4.31-4.56,5.37-6.08,1.42C531.63,824.29,532.54,822.78,534.83,822.78ZM227.2,827.92c-1.7,0-1.51,1.47.52,3.92,1.79,2.15,3.78,3.38,4.43,2.74,1.78-1.79-1.84-6.66-5-6.66Zm221.29,8.76c-.84.12-.33.59,1.46,1.4,4.93,2.24,18.7,3.69,16.49,1.75-.59-.52-5.7-1.65-11.35-2.51A32.88,32.88,0,0,0,448.49,836.68ZM431,841.51a3.13,3.13,0,0,0-1.07.07c-3.54,1.33-2.92,1.59,21.33,9.09,26.2,8.1,29.47,6.3,4.36-2.4-10.88-3.77-21.1-6.55-24.62-6.76ZM851,845.91c-2,0-6.1,4-9.1,8.81-14,22.61-23.52,26.15-87.48,32.38-32.68,3.18-53.33,7.32-77.64,15.56-14,4.75-19.71,5.26-43.13,3.89-14.84-.86-32-2.27-38.11-3.13-9.83-1.37-12-.7-18.79,5.8-7.1,6.8-9.44,7.43-30.93,8.27-26.79,1-74.55-6.91-101.05-16.84-7.56-2.83-21.48-3.87-52.68-3.93-39.71-.08-43.12-.48-53.71-6.22-13.18-7.13-16.2-6.88-5.26.45,4.16,2.79,7.57,6.47,7.57,8.19,0,6.74,9.33,8.33,31.17,5.34,32.46-4.46,59.79-2.5,92.18,6.6,7.78,2.18,25.12,5.72,38.55,7.86A257,257,0,0,0,554,921.58c23.34-1.08,27.59-2,31.48-6.62,4.28-5.12,6.09-5.3,37.26-3.68,33.88,1.75,34.06,1.73,89.3-10.92,12.72-2.91,39.32-7.2,59.11-9.53,62.58-7.36,66.66-9,77.36-30.06C855.72,846.59,855.84,845.91,851,845.91ZM290.25,849.1c-1.09-.07-.11.68,2.65,2.54s8,5.85,11.9,9a63.07,63.07,0,0,0,13.14,8.18c8.34,3.34,8.46,3.31,4.67-1.26-1.84-2.21-6.89-5.84-11.24-8.06s-8.47-4.89-9.18-5.92-4.17-2.61-7.71-3.54a32.88,32.88,0,0,0-4.23-1Zm-41.53.55c-.45,0-.33.57.42,1.64,2.12,3,8.28,8.23,13.68,11.55s10.11,6.07,10.46,6.12c2.57.32-1.28-3.19-13.68-12.46-6.09-4.56-9.88-6.92-10.88-6.85Zm46,17.48c-.1.16,1.09,1.13,3.49,3,5.24,4.2,6.57,4.77,6.57,2.8,0-.66-2.6-2.45-5.78-4-2.78-1.35-4.17-2-4.28-1.86ZM284,874.68c-4,1.33,11.35,12.75,29.92,22.26,15,7.67,22.52,8.51,12.84,1.43C313.52,888.71,286.62,873.8,284,874.68Z"/></g></svg>