<svg id="Graphic_Elements" data-name="Graphic Elements" xmlns="http://www.w3.org/2000/svg" viewBox="0 0 1200 1200"><metadata><?xpacket begin="﻿" id="W5M0MpCehiHzreSzNTczkc9d"?>
<x:xmpmeta xmlns:x="adobe:ns:meta/" x:xmptk="Adobe XMP Core 6.0-c002 79.164488, 2020/07/10-22:06:53        ">
   <rdf:RDF xmlns:rdf="http://www.w3.org/1999/02/22-rdf-syntax-ns#">
      <rdf:Description rdf:about=""
            xmlns:xmp="http://ns.adobe.com/xap/1.0/"
            xmlns:xmpMM="http://ns.adobe.com/xap/1.0/mm/"
            xmlns:stEvt="http://ns.adobe.com/xap/1.0/sType/ResourceEvent#">
         <xmp:Label>Approved</xmp:Label>
         <xmp:MetadataDate>2022-05-17T14:48:28+07:00</xmp:MetadataDate>
         <xmpMM:InstanceID>xmp.iid:c37a537d-4e07-4197-812e-656b4522d9a6</xmpMM:InstanceID>
         <xmpMM:DocumentID>xmp.did:c37a537d-4e07-4197-812e-656b4522d9a6</xmpMM:DocumentID>
         <xmpMM:OriginalDocumentID>xmp.did:c37a537d-4e07-4197-812e-656b4522d9a6</xmpMM:OriginalDocumentID>
         <xmpMM:History>
            <rdf:Seq>
               <rdf:li>
                  <rdf:Description>
                     <stEvt:action>saved</stEvt:action>
                     <stEvt:instanceID>xmp.iid:c37a537d-4e07-4197-812e-656b4522d9a6</stEvt:instanceID>
                     <stEvt:when>2022-05-17T14:48:28+07:00</stEvt:when>
                     <stEvt:softwareAgent>Adobe Bridge 2021 (Macintosh)</stEvt:softwareAgent>
                     <stEvt:changed>/metadata</stEvt:changed>
                  </rdf:Description>
               </rdf:li>
            </rdf:Seq>
         </xmpMM:History>
      </rdf:Description>
   </rdf:RDF>
</x:xmpmeta>
                                                                                                    
                                                                                                    
                                                                                                    
                                                                                                    
                                                                                                    
                                                                                                    
                                                                                                    
                                                                                                    
                                                                                                    
                                                                                                    
                                                                                                    
                                                                                                    
                                                                                                    
                                                                                                    
                                                                                                    
                                                                                                    
                                                                                                    
                                                                                                    
                                                                                                    
                                                                                                    
                           
<?xpacket end="w"?></metadata>
<defs><style>.cls-1{fill:#231f20;fill-rule:evenodd;}</style></defs><g id="Graphic_Elements-2" data-name="Graphic Elements"><path id="path925" class="cls-1" d="M770,399.65c-10.12,0-18.33,5.88-18.33,13.13s8.21,13.13,18.33,13.13,18.32-5.88,18.32-13.13-8.2-13.13-18.32-13.13m-340,0c-10.12,0-18.32,5.88-18.32,13.13s8.2,13.13,18.32,13.13,18.32-5.88,18.32-13.13-8.2-13.13-18.32-13.13m411.33,166c-10.12,0-18.33,5.88-18.33,13.13s8.21,13.13,18.33,13.13,18.32-5.88,18.32-13.13-8.2-13.13-18.32-13.13M770,739.46c-10.12,0-18.33,5.88-18.33,13.13s8.21,13.13,18.33,13.13,18.32-5.88,18.32-13.13-8.2-13.13-18.32-13.13M358.67,565.6c-10.12,0-18.33,5.88-18.33,13.13s8.21,13.13,18.33,13.13S377,586,377,578.73s-8.2-13.13-18.32-13.13M430,739.46c-10.12,0-18.32,5.88-18.32,13.13s8.2,13.13,18.32,13.13,18.32-5.88,18.32-13.13-8.2-13.13-18.32-13.13m170,72.67c-10.12,0-18.32,5.87-18.32,13.12s8.2,13.13,18.32,13.13,18.32-5.88,18.32-13.13-8.2-13.12-18.32-13.12m0-485.7c-10.12,0-18.32,5.88-18.32,13.13s8.2,13.13,18.32,13.13,18.32-5.88,18.32-13.13-8.2-13.13-18.32-13.13m41.53,298.25a46.62,46.62,0,1,1-64.78-67,48.3,48.3,0,1,0,64.78,67M322.09,580.62a41.86,41.86,0,0,1,76.78,32.68,41.6,41.6,0,0,0,8.9-25.8,42.9,42.9,0,0,0-.66-7.48,13.29,13.29,0,0,1,8.51-3.61c8.22,0,13.14,10.56,11,23.59a39.71,39.71,0,0,1-1.47,6,44.77,44.77,0,0,0,4.72-10.49c1.85-6.12,2.06-11.7.92-15.9a13,13,0,0,1,8-3.19c8.22,0,13.14,10.56,11,23.59a39.19,39.19,0,0,1-1.53,6.17,44.61,44.61,0,0,0,4.83-10.67c1.85-6.12,2.07-11.7.92-15.9a13,13,0,0,1,8-3.19c4.72,0,8.36,3.49,10.19,8.93A32,32,0,0,1,511.69,570a93.49,93.49,0,0,1,35.11-46.6,93.29,93.29,0,0,0-39.18,29.36l-.5-.49A31.94,31.94,0,0,1,501.35,515c-8.42,3.21-16.83,2.92-21.11-1.37-3.32-3.32-3.44-8.32-.93-13.42-6.37,1.25-12.17.32-15.49-3s-3.43-8.28-.95-13.38c-6.34,1.24-12.12.31-15.43-3-3.14-3.14-3.42-7.77-1.33-12.58a41.85,41.85,0,0,1-56.32-51A278.73,278.73,0,0,0,345.28,487l-25.7-6.76,23,13a277.15,277.15,0,0,0-20.52,87.35m67.7,202.2a41.86,41.86,0,0,1,77.4-31.19,41.71,41.71,0,0,0-11.95-24.54,42.14,42.14,0,0,0-5.77-4.82,13.29,13.29,0,0,1,3.47-8.57c5.81-5.82,16.76-1.83,24.46,8.9a39.64,39.64,0,0,1,3.19,5.28,44.93,44.93,0,0,0-4.08-10.75c-3-5.64-6.82-9.74-10.59-11.9a13,13,0,0,1,3.4-7.92c5.81-5.81,16.76-1.82,24.46,8.91a39.39,39.39,0,0,1,3.28,5.45,44.49,44.49,0,0,0-4.13-11c-3-5.64-6.82-9.74-10.59-11.9a13,13,0,0,1,3.4-7.92c3.34-3.34,8.38-3.44,13.52-.89a32,32,0,0,1,17.11-38.75,93.45,93.45,0,0,1-8.15-57.73,92.83,92.83,0,0,0-7.63,37,94,94,0,0,0,.7,11.44h-.7a32,32,0,0,1-30.47-22.31c-3.68,8.23-9.83,14-15.89,14-4.69,0-8.31-3.44-10.15-8.83-3.62,5.39-8.37,8.83-13.07,8.83s-8.29-3.42-10.13-8.78c-3.61,5.36-8.36,8.78-13,8.78-4.43,0-7.91-3.07-9.83-8a41.86,41.86,0,0,1-75.92,3.74A277,277,0,0,0,353.56,730l-19.47,15.66,22.07-10.85a279.32,279.32,0,0,0,33.63,48m190.83,95.09a41.86,41.86,0,0,1,32.68-76.78A41.9,41.9,0,0,0,580,792.9a13.35,13.35,0,0,1-3.62-8.52c0-8.22,10.57-13.14,23.6-11a39.71,39.71,0,0,1,6,1.47,44.77,44.77,0,0,0-10.49-4.72c-6.12-1.85-11.7-2.07-15.9-.91a13,13,0,0,1-3.2-8c0-8.22,10.57-13.14,23.6-11a39.47,39.47,0,0,1,6.17,1.53,44.61,44.61,0,0,0-10.67-4.83c-6.12-1.85-11.7-2.07-15.9-.92a13,13,0,0,1-3.2-8c0-4.72,3.5-8.36,8.94-10.19A32,32,0,0,1,570,688.31a93.44,93.44,0,0,1-46.6-35.11,93.29,93.29,0,0,0,29.36,39.18l-.49.51A32,32,0,0,1,515,698.65c3.21,8.42,2.91,16.83-1.37,21.11-3.32,3.32-8.32,3.44-13.43.93,1.26,6.37.33,12.17-3,15.49s-8.28,3.43-13.38,1c1.24,6.34.31,12.11-3,15.42-3.14,3.14-7.77,3.42-12.58,1.32a41.86,41.86,0,0,1-51.05,56.33A278.58,278.58,0,0,0,483,852.89l-6.16,15.4,10.65-13.36a277.44,277.44,0,0,0,93.12,23m202.19-67.7a41.85,41.85,0,0,1-31.18-77.4,41.89,41.89,0,0,0-29.36,17.72,13.34,13.34,0,0,1-8.58-3.47c-5.81-5.81-1.82-16.76,8.91-24.46a39,39,0,0,1,5.28-3.19,44.93,44.93,0,0,0-10.75,4.08c-5.64,3-9.74,6.81-11.9,10.6a13,13,0,0,1-7.92-3.41c-5.81-5.81-1.82-16.76,8.91-24.46a39.39,39.39,0,0,1,5.45-3.28,44.35,44.35,0,0,0-11,4.13c-5.65,3-9.74,6.82-11.9,10.59a13,13,0,0,1-7.92-3.4c-3.34-3.34-3.44-8.38-.89-13.52a32,32,0,0,1-38.75-17.11,93.45,93.45,0,0,1-57.73,8.15,92.83,92.83,0,0,0,37,7.63,94,94,0,0,0,11.44-.7v.7a32,32,0,0,1-22.31,30.47c8.22,3.68,14,9.83,14,15.88,0,4.7-3.45,8.32-8.83,10.16,5.39,3.62,8.83,8.37,8.83,13.06s-3.42,8.3-8.78,10.14c5.36,3.61,8.78,8.36,8.78,13,0,4.43-3.07,7.91-8,9.83a41.87,41.87,0,0,1,3.74,75.92,277,277,0,0,0,89.9-21.59l11,12L715,853.81a278.58,278.58,0,0,0,67.82-43.6m95.1-190.83a41.85,41.85,0,0,1-76.78-32.68A41.9,41.9,0,0,0,792.9,620a13.34,13.34,0,0,1-8.52,3.61c-8.22,0-13.14-10.56-11-23.59a39.72,39.72,0,0,1,1.48-6,44.89,44.89,0,0,0-4.72,10.48c-1.85,6.13-2.07,11.72-.92,15.91a13,13,0,0,1-8,3.19c-8.22,0-13.14-10.56-11-23.59a38.65,38.65,0,0,1,1.53-6.17,44.54,44.54,0,0,0-4.83,10.66c-1.85,6.13-2.07,11.72-.92,15.91a13,13,0,0,1-8,3.19c-4.73,0-8.36-3.49-10.19-8.93A32,32,0,0,1,688.31,630a93.4,93.4,0,0,1-35.11,46.6,93,93,0,0,0,31.59-20.77,94,94,0,0,0,7.59-8.59l.5.49A31.94,31.94,0,0,1,698.65,685c8.42-3.21,16.83-2.91,21.1,1.37,3.33,3.32,3.45,8.32.94,13.43,6.36-1.25,12.16-.33,15.48,3s3.44,8.29,1,13.38c6.34-1.24,12.12-.31,15.43,3,3.13,3.13,3.41,7.77,1.32,12.58a41.86,41.86,0,0,1,56.33,51.05,279.53,279.53,0,0,0,32.22-45.5L855,739.57,844.86,733a276.67,276.67,0,0,0,26.44-69.48l17.44-.67-16.1-5.39a280,280,0,0,0,5.27-38m-67.7-202.19a41.85,41.85,0,0,1-77.4,31.18,41.68,41.68,0,0,0,12,24.54,42.14,42.14,0,0,0,5.77,4.82,13.34,13.34,0,0,1-3.47,8.58c-5.81,5.81-16.76,1.82-24.46-8.91a39.64,39.64,0,0,1-3.19-5.28,45.33,45.33,0,0,0,4.07,10.75c3,5.64,6.82,9.74,10.6,11.9a13,13,0,0,1-3.4,7.92c-5.81,5.81-16.76,1.82-24.46-8.91a39.39,39.39,0,0,1-3.28-5.45,44.49,44.49,0,0,0,4.13,11c3,5.64,6.82,9.74,10.59,11.9a13,13,0,0,1-3.4,7.92c-3.34,3.34-8.38,3.44-13.53.89a32,32,0,0,1-17.1,38.75,93.45,93.45,0,0,1,8.15,57.73,92.83,92.83,0,0,0,7.63-37,94,94,0,0,0-.7-11.44h.7a32,32,0,0,1,30.47,22.31c3.67-8.22,9.83-14,15.88-14,4.7,0,8.32,3.44,10.16,8.83,3.62-5.39,8.37-8.83,13.06-8.83s8.3,3.42,10.14,8.78c3.61-5.36,8.35-8.78,13-8.78,4.44,0,7.92,3.07,9.84,8a41.86,41.86,0,0,1,75.92-3.75,278.25,278.25,0,0,0-12.27-64.76l11.86-6.57L864.37,512a277,277,0,0,0-18.23-42.53l13.11-7.65-14.72,4.66a279,279,0,0,0-34.32-49.25m-190.83-95.1a41.85,41.85,0,0,1-32.68,76.78,41.6,41.6,0,0,0,25.8,8.9,42.9,42.9,0,0,0,7.48-.66,13.31,13.31,0,0,1,3.61,8.51c0,8.22-10.56,13.14-23.59,11a38.54,38.54,0,0,1-6-1.47,44.89,44.89,0,0,0,10.48,4.72c6.13,1.85,11.72,2.07,15.91.92a13,13,0,0,1,3.19,8c0,8.22-10.56,13.14-23.59,11a40.34,40.34,0,0,1-6.17-1.54,44.54,44.54,0,0,0,10.66,4.83c6.13,1.85,11.72,2.07,15.91.92a13,13,0,0,1,3.19,8c0,4.72-3.49,8.36-8.93,10.19A32,32,0,0,1,630,511.69a93.49,93.49,0,0,1,46.6,35.11,93.29,93.29,0,0,0-29.36-39.18l.49-.5A32,32,0,0,1,685,501.35c-3.21-8.42-2.91-16.82,1.37-21.1,3.32-3.33,8.32-3.45,13.43-.94-1.26-6.36-.33-12.16,3-15.48s8.29-3.44,13.38-1c-1.24-6.34-.31-12.12,3-15.43,3.13-3.13,7.77-3.42,12.58-1.32a41.86,41.86,0,0,1,51-56.33,278.23,278.23,0,0,0-88.35-51.93l4-16-9.79,14a277.88,277.88,0,0,0-69.3-13.75M600,506.76a93.27,93.27,0,0,1,16.48,1.46,92.83,92.83,0,0,0-37-7.63,94,94,0,0,0-11.44.7v-.7a32,32,0,0,1,22.31-30.47c-8.22-3.68-14-9.83-14-15.88,0-4.7,3.45-8.32,8.84-10.16-5.39-3.62-8.84-8.37-8.84-13.07s3.43-8.29,8.79-10.13c-5.36-3.61-8.79-8.35-8.79-13,0-4.44,3.08-7.92,8-9.84a41.87,41.87,0,0,1-3.74-75.92,278.11,278.11,0,0,0-67.21,13.06l-15.74-25,8.72,27.42a278.31,278.31,0,0,0-89.21,52.24,41.86,41.86,0,0,1,31.19,77.4,41.65,41.65,0,0,0,24.54-11.95,42.14,42.14,0,0,0,4.82-5.77,13.29,13.29,0,0,1,8.57,3.47c5.82,5.81,1.83,16.76-8.9,24.46a39.64,39.64,0,0,1-5.28,3.19,44.9,44.9,0,0,0,10.75-4.07c5.64-3,9.74-6.82,11.89-10.6a13,13,0,0,1,7.93,3.4c5.81,5.81,1.82,16.77-8.91,24.46a39.39,39.39,0,0,1-5.45,3.28,44.86,44.86,0,0,0,11-4.12c5.64-3,9.74-6.82,11.9-10.6a13,13,0,0,1,7.92,3.4c3.34,3.34,3.44,8.38.89,13.52a32,32,0,0,1,38.75,17.11A92.78,92.78,0,0,1,600,506.76m0-274.09a367.37,367.37,0,0,1,91.3,11.45l-3.6,21.07,7.66-20a364.59,364.59,0,0,1,73.22,28.39l-6.93,22.51,12.17-19.75a367.51,367.51,0,0,1,52.56,34.39,20.46,20.46,0,0,1,5.49-10.43c10.19-10.2,30.25-7.17,47.65,6.19l2.22-2.22a115.71,115.71,0,0,0,28.68-45.68c3.45-9.9,10.22-20.56,19.76-30.1,21-21,47.53-28.58,59.22-16.9s4.12,38.2-16.91,59.22c-9.53,9.54-20.2,16.31-30.1,19.76A115.32,115.32,0,0,0,898,318a63.5,63.5,0,0,0-13.43-7.2c.8.74,1.6,1.5,2.38,2.28,18.73,18.74,24.44,43.41,12.74,55.11-.31.3-.63.6-1,.88a151.77,151.77,0,0,0-13.16-15c-13.63-13.63-28.39-23.41-40.94-28a368.46,368.46,0,0,1,84.42,110.65l-16.71,9.19,18.53-5.5q7.29,15.12,13.24,31l-39.26,21.33,42.79-11.48a365.1,365.1,0,0,1,17,74.33A20.53,20.53,0,0,1,975.88,552c14.43,0,26.47,16.32,29.32,38.07h3.14a115.57,115.57,0,0,0,52.57-12c9.45-4.56,21.77-7.31,35.26-7.31,29.73,0,53.83,13.39,53.83,29.92s-24.1,29.93-53.83,29.93c-13.49,0-25.81-2.76-35.26-7.32a115.41,115.41,0,0,0-50.74-12,63.38,63.38,0,0,0-4.4-14.58c0,1.09.07,2.18.07,3.29,0,26.5-13.42,48-30,48-.44,0-.87,0-1.3-.05a149.25,149.25,0,0,0,1.3-19.92c0-19.27-3.52-36.62-9.15-48.74q.59,10.31.6,20.73a366.38,366.38,0,0,1-25.59,135l-25.63-4.51,23,10.91a367.09,367.09,0,0,1-49.86,85,20.49,20.49,0,0,1,10.43,5.48c10.2,10.2,7.17,30.26-6.19,47.65l2.22,2.22a115.78,115.78,0,0,0,45.68,28.68c9.89,3.46,20.56,10.22,30.1,19.76,21,21,28.58,47.53,16.9,59.22s-38.2,4.12-59.22-16.91c-9.54-9.53-16.31-20.19-19.76-30.09A115.29,115.29,0,0,0,882.05,898a63.5,63.5,0,0,0,7.2-13.43c-.74.8-1.5,1.6-2.28,2.38-18.73,18.74-43.41,24.44-55.1,12.74-.32-.31-.61-.63-.89-1a150.64,150.64,0,0,0,15-13.16c13.63-13.63,23.41-28.39,28-40.94a368.9,368.9,0,0,1-72.09,62.24l-8.41-10.76,4.5,13.3a365.6,365.6,0,0,1-85.3,40.26L699.87,928l6.71,23.65a365.31,365.31,0,0,1-62.1,13A20.53,20.53,0,0,1,648,975.88c0,14.43-16.33,26.47-38.07,29.32v3.14a115.64,115.64,0,0,0,12,52.58c4.55,9.44,7.31,21.77,7.31,35.25,0,29.73-13.4,53.83-29.92,53.83s-29.92-24.1-29.92-53.83c0-13.49,2.75-25.81,7.31-35.26a115.41,115.41,0,0,0,12-50.74,63.38,63.38,0,0,0,14.58-4.4c-1.09,0-2.18.07-3.29.07-26.5,0-48-13.41-48-30,0-.43,0-.87,0-1.3a149.25,149.25,0,0,0,19.92,1.3c19.27,0,36.62-3.52,48.74-9.14-6.86.38-13.77.59-20.73.59A367.58,367.58,0,0,1,495,952.1l3.6-19.46-9.23,17.73a364.78,364.78,0,0,1-80-36.35l5.94-20.69-12.81,16.41q-14.94-9.56-28.87-20.46a20.45,20.45,0,0,1-5.48,10.43c-10.2,10.2-30.26,7.17-47.65-6.19l-2.22,2.22a115.78,115.78,0,0,0-28.68,45.68c-3.45,9.9-10.22,20.57-19.76,30.1-21,21-47.53,28.58-59.22,16.9s-4.12-38.2,16.91-59.22c9.53-9.54,20.2-16.3,30.09-19.76A115.29,115.29,0,0,0,302,882.05a63.26,63.26,0,0,0,13.43,7.2c-.8-.73-1.6-1.5-2.38-2.28-18.74-18.73-24.44-43.4-12.74-55.1.31-.31.62-.6.95-.89a150.64,150.64,0,0,0,13.16,15c13.63,13.63,28.39,23.41,40.93,28a368.28,368.28,0,0,1-92.58-128.21L288,730.44l-29.36,5.36a364.85,364.85,0,0,1-23.26-91.32,20.57,20.57,0,0,1-11.24,3.5c-14.43,0-26.47-16.33-29.32-38.08h-3.14a115.64,115.64,0,0,0-52.58,12c-9.44,4.56-21.77,7.31-35.25,7.31C74.1,629.23,50,615.84,50,599.31s24.1-29.92,53.83-29.92c13.48,0,25.81,2.75,35.25,7.31a115.34,115.34,0,0,0,50.74,12,63.73,63.73,0,0,0,4.41,14.58c0-1.09-.07-2.18-.07-3.29,0-26.49,13.41-48,30-48,.43,0,.87,0,1.3,0a149.25,149.25,0,0,0-1.3,19.92c0,19.27,3.52,36.62,9.14,48.74-.38-6.86-.59-13.77-.59-20.73a367.06,367.06,0,0,1,16.45-109l22,4.47-20.22-10.11a366.24,366.24,0,0,1,31-69.22l18.22,7.25-15.53-11.81a370,370,0,0,1,26.1-38,20.43,20.43,0,0,1-10.43-5.47c-10.2-10.2-7.17-30.27,6.19-47.66l-2.22-2.22a115.78,115.78,0,0,0-45.68-28.68c-9.9-3.45-20.56-10.22-30.1-19.75-21-21-28.59-47.54-16.9-59.23s38.2-4.11,59.22,16.91c9.54,9.53,16.3,20.2,19.76,30.1A115.32,115.32,0,0,0,318,302a63.26,63.26,0,0,0-7.2,13.43c.74-.8,1.5-1.6,2.28-2.38,18.73-18.74,43.4-24.44,55.1-12.74.31.31.61.63.89.95a151.77,151.77,0,0,0-15,13.16c-13.63,13.63-23.41,28.39-28,40.93A369.13,369.13,0,0,1,420,279.77L435.89,297l-8.82-21.15a364.57,364.57,0,0,1,75.17-30l11.34,17.47L509.07,244a366.36,366.36,0,0,1,46.45-8.68A20.53,20.53,0,0,1,552,224.12c0-14.43,16.32-26.47,38.07-29.32v-3.14a115.7,115.7,0,0,0-12-52.57c-4.56-9.45-7.32-21.77-7.32-35.26,0-29.73,13.4-53.83,29.93-53.83s29.92,24.1,29.92,53.83c0,13.49-2.75,25.81-7.31,35.26a115.41,115.41,0,0,0-12,50.74,63.62,63.62,0,0,0-14.59,4.4c1.09,0,2.19-.07,3.3-.07,26.5,0,48,13.41,48,30,0,.44,0,.87,0,1.3a150.94,150.94,0,0,0-19.92-1.3c-19.27,0-36.62,3.52-48.74,9.14,6.86-.38,13.77-.59,20.73-.59"/></g></svg>