<svg id="Graphic_Elements" data-name="Graphic Elements" xmlns="http://www.w3.org/2000/svg" viewBox="0 0 1200 1200"><metadata><?xpacket begin="﻿" id="W5M0MpCehiHzreSzNTczkc9d"?>
<x:xmpmeta xmlns:x="adobe:ns:meta/" x:xmptk="Adobe XMP Core 6.0-c002 79.164488, 2020/07/10-22:06:53        ">
   <rdf:RDF xmlns:rdf="http://www.w3.org/1999/02/22-rdf-syntax-ns#">
      <rdf:Description rdf:about=""
            xmlns:xmp="http://ns.adobe.com/xap/1.0/"
            xmlns:xmpMM="http://ns.adobe.com/xap/1.0/mm/"
            xmlns:stEvt="http://ns.adobe.com/xap/1.0/sType/ResourceEvent#">
         <xmp:Label>Approved</xmp:Label>
         <xmp:MetadataDate>2022-04-28T15:07:53+07:00</xmp:MetadataDate>
         <xmpMM:InstanceID>xmp.iid:8b7b84cc-7991-4b3f-9ed1-9cadd0ff68e0</xmpMM:InstanceID>
         <xmpMM:DocumentID>xmp.did:8b7b84cc-7991-4b3f-9ed1-9cadd0ff68e0</xmpMM:DocumentID>
         <xmpMM:OriginalDocumentID>xmp.did:8b7b84cc-7991-4b3f-9ed1-9cadd0ff68e0</xmpMM:OriginalDocumentID>
         <xmpMM:History>
            <rdf:Seq>
               <rdf:li>
                  <rdf:Description>
                     <stEvt:action>saved</stEvt:action>
                     <stEvt:instanceID>xmp.iid:8b7b84cc-7991-4b3f-9ed1-9cadd0ff68e0</stEvt:instanceID>
                     <stEvt:when>2022-04-28T15:07:53+07:00</stEvt:when>
                     <stEvt:softwareAgent>Adobe Bridge 2021 (Macintosh)</stEvt:softwareAgent>
                     <stEvt:changed>/metadata</stEvt:changed>
                  </rdf:Description>
               </rdf:li>
            </rdf:Seq>
         </xmpMM:History>
      </rdf:Description>
   </rdf:RDF>
</x:xmpmeta>
                                                                                                    
                                                                                                    
                                                                                                    
                                                                                                    
                                                                                                    
                                                                                                    
                                                                                                    
                                                                                                    
                                                                                                    
                                                                                                    
                                                                                                    
                                                                                                    
                                                                                                    
                                                                                                    
                                                                                                    
                                                                                                    
                                                                                                    
                                                                                                    
                                                                                                    
                                                                                                    
                           
<?xpacket end="w"?></metadata>
<path id="Graphic_Elements-2" data-name="Graphic Elements" d="M261.92,725.93c4.08-1.17,5.77,11,1.49,7.58C262.61,731.34,260.15,727.54,261.92,725.93Zm112.56-80.68c6.27-1.2,3.37,9.23,4.94,13.28C371.57,660.47,374.74,650,374.48,645.25Zm347.24-1.87c5.24.82,2,10.71,1.87,14.74C716.34,659.8,718.36,646.81,721.72,643.38Zm-36.75.26c10.79-3.92,11.14,15.05,2.07,15.72-3.15-.26-.74-3.56-.16-5.18-7,2.64-7.14-9.24-1.91-10.54m3.12,2.48C678.74,651.77,695.41,649.53,688.09,646.12Zm-76.38-3.27c10.91-.89,3.58,14.33-2.69,15.61-2.51-3.92,3.11-7.08,2.8-11-7.16,2.53-5-5.07-.11-4.59Zm-37.91-.17c5.28,1.17-4,8.76,2.49,11.59,6-.16-4.28-5.47,2.42-5.73,8.76.13.91,13.29-5.16,10.11C568.55,654.92,569.84,646.85,573.8,642.68Zm-124,.07c9.82-3.8,10,18.86-.18,14.68-7.69-.34.22-5.84,3.73-6.23-4.12-1,0-7-4.41-4.6C444.91,648,447.45,643.13,449.78,642.75ZM734.16,642c9.45,1.5,9.39,15.53,0,16.38-5.88-3.14-5.46-13.27,0-16.38m1,6.59C728.63,654.78,742.27,651,735.13,648.6Zm-319.22-6.7c9.43-1.42,8.69,9.32,3.8,14.26,10.57-5.31,9.19,7.71-1.23,2.93-11.12.93-.88-7.4-.61-11.19C414.8,647.05,412.24,644.29,415.91,641.9Zm-98.2.23c8.05-2.81,17.93,5.58,12.19,13.78-3.46,8.57-15.85,6.68-20.44.14-1.67-5.78,1.32-13.86,8.25-13.92m.05,5c-8.57.85-.92,13.76,5.52,9.28C330.4,653.65,325.42,642.22,317.76,647.14Zm219-6.09c4.83-1,9,3,4.07,5.79,3.62,4.18-.48,13.87-6.4,9.8-4.11-3.28,5.26-2.51,2.32-5.95-8.74.49-3.3-6.82,0-9.64Zm-42,0c6.77-1.32,6.43,18.92.77,14.85.83-5.29-8.21,1.47-7.7-4.07,1.45-3.87,3.45-8.31,6.93-10.78m-1.86,5.73C492,653,499,645.9,492.87,646.82Zm385.18-15.67c5.83,1.59,11.82,8.58,11.41,15.41-4.26,6.64-14.62,14.91-21.91,6.24-6.58-8.89.89-19.63,10.5-21.65m-3.15,6.63c-7.19,3.18-5,15.54,3.84,13.22C887.48,648.28,881.08,636.69,874.9,637.78ZM859.42,515.33c3.79-.41,7.56-.62,2.26,1.95-21.39,6.84-46.81,3.19-67,14.22-6.84-4.6,3.63-9.75,8.06-9.17,18.44-6,37.81-3.79,56.66-7ZM172,512.83c5.73.9,15.61-2.35,18.32,2.9-31.86-2.91-63.51,4.75-94.38,12.25-2.9.93-8.68-2.22-5.52-5.43C116.82,514.31,144.47,514.06,172,512.83Zm860-1.18c27.47-.95,54.29,4.8,81.37,8.62,2.39,2.39,13.25,3.73,7.69,7.59-28.13-7.51-58-10.65-87.24-13.4C1032.07,514.52,1028.66,512.35,1032,511.65Zm-139.46-.51c3.43.41,10.75-2.37,12.83.29-13-.69-27.31,6.23-39.41,3.53C871.87,509.69,884.46,513.38,892.54,511.14Zm100-1.82c4.85,1.9,19.28-4.16,19.51,3.36C1007.7,509.14,984.57,512.49,992.54,509.32Zm-632.46-2.43c16.9,4.35,34.76,2.95,51.05,9.22,5.28-1.26,17.8,4.74,9.91,10.15-23.07-10.41-50.87-9.93-75.43-17.46C349.92,507.24,355.34,507.72,360.08,506.89Zm-138.32-3.67c3.58,0,7.4,1.88,10.45,3.53C232.46,514.11,214.15,508.63,221.76,503.22Zm-3.33-10c4.22.23,10.35-.06,12.94,3.38C229.68,501.13,208.73,498.85,218.43,493.23Zm-4.23-11.11c4.52,2.12,13.76-1.45,14.77,5C225.18,491.42,206.5,489.54,214.2,482.12Zm-3.91-9.71c6,.87,13.27,1.56,17.89,4.64C226.34,484.59,195.79,478.81,210.29,472.41Zm-5.06-8.56c7,.48,18.11-1.14,22.9,4.79-6.29,5.53-16.21.56-23.95.35C200.7,468.09,202.28,464.14,205.23,463.85ZM564.5,348.68c4.16-.64,4.45,9.25-.84,7.15C563.36,353.52,561,349.39,564.5,348.68Zm68.19-.84c6.44.24,3.06,10.43-2.64,8.84C627.4,354.17,630,349.41,632.69,347.84Zm-11-1.67c3.13.31.08,7.38.12,9.37C616,357.82,616.24,346.59,621.71,346.17ZM608.42,346c6-2.22,4.21,5.7,2.87,8.42C606.75,355.05,604.19,348,608.42,346Zm-32,.18c4.48-1.76,7.67,11.33.09,7.9C576.05,351.46,572.58,347.65,576.41,346.17Zm11.7-.83c3.5,0,4.51,10.44-1.6,6.94C585.64,349.69,584.3,345.85,588.11,345.34Zm-37.19-6.76c32.28-2.6,66.77-6.94,98,4.36,1.09,11-3.41,24-10.44,33.71-6.2,2.63-13-.48-19.21-1.07-9,6.16.83,16.58-2,24.85C621,445,620.18,489.8,622,534.48c0,4,4.7,3.41,6.65,5.91,8,6.57,8.34,17.45,10.69,26.36,93.71,4.84,187.83,6.58,281.66,10.87,6.54-5.46-11.14-2.42-14.84-4.5-12.72,5.6-28.25-4.61-41.78,1.25-12.66-4.35-26.94,2.08-36.63-8.12-19.89-2-40.37-5.19-56.74-17.78-11.65-5.24-22.94-20.72-14.57-33.07,8.46-7.48,20.36-8.78,30.35-13.37,50-9.81,100.83-13.23,151.65-16,5-10.15,19.58-12.11,22.78.31a998.4,998.4,0,0,1,159.46,14.19c13,1.93,24.57,10.05,29.31,22.42v4.2c-7.5,19.83-29.36,25.19-46.61,33.58-8.48,5.49-19.73,2.19-27.54,8.76-9.71,1.54-20.86,6-30.11,1.19-20.26,6.82-42.68,2.12-63.85,4.8,3.62,3.87,12.65,2.31,14.88,8.85a247.78,247.78,0,0,0,.62,28.59c9.71,2.5,21.43-3.11,30.29,2,2.53-3.88-.23-12.81,7.72-10.53,9.41.4,26-5.41,26.1,9.35,10.32-.24,20.74-.93,31,.45.56,5,7.08,12.61.61,16.4-11.39-2.38-22.16,1.52-32.92-1.29-1.44,13.8-20.34,5.5-29.38,7.55-6.66.15.92-7-4.64-7.07-9.47-1.08-19.43-2.4-28.72,0-1.63,12.94,1.6,26.57-.5,39.44-8.09,6.35-20.12,1.5-29.59,3.57-.71,6-2.05,12.26-.27,18.23,13,3.18,28.79,7.39,30.9,22.91,14.83,14.78,27,32.23,41.19,47.91.81,10.78,14.36,14.73,19,24,6.79,13.71,15,25.93,20.87,40.4,8,9.63,21.64,21.44,20,34.36-27.11-3.34-55.54.11-83.06-1.38-7.71.5-2.36-12.73-10.66-9.87-271,1.39-542.08,1.88-812.88,3.58-3,.33-2.72,3.8-3.19,6-4.59,8.36-14.55,2.33-21.59,5.59h-.8c-19.2-2.05-38.64-.14-57.93-.9,1.4-11.17,4.53-24.25,15.3-29.92,10.49-12.79,19.75-24.88,25.87-40.49,2.65-10.41,16.83-15.6,13.68-27.26,9.15-19,24.63-34.16,36.47-51.33,2.34-2.89,8.84.82,9.55-3.87-.5-14.75,16-17.78,27.07-19.28-.62-4.71,3.49-12.23.14-15.66-9.94,1.58-20.48-2-29.91,2.18-2.23-15.69-.42-32.08-1.63-47.82-10.58,3.4-21.44-1.31-32,1.45,0,10.68-12.42,7.88-19.39,8.11-6.22,2.8-13.58-2.39-12.41-9.43-8,4-31.28,2.68-26.55-12.21,7.78-5.27,18.32.18,26.58-1.18-.22-4.72,1.47-11.79,8-10.12,8.91.42,24-4.56,24.64,8.79,7.78-.66,15.42,1.8,23.2,1.74,15.51,3.67,7.06-19.18,7.78-27.66a67.69,67.69,0,0,0,24.45-15.06c-23.49-.35-47-3.84-70.48-1-8.48,8.1-21.09-.26-31.16,1.07-8.66,0-13-10.44-22-9.52-14.84-.79-27.2-9.38-40.86-14.19-6.87-5.42-11.65-13.3-15.31-21.15v-5c3.36-3.26-1.1-10.42,4.27-13.11,7.48-6.69,17.75-7,26.33-11.55a1057,1057,0,0,1,107.65-16.1c-5.3-14.34-17.17-26.39-24.45-40.09-.88-7.21,8.11-10.79,13.86-11.46,45.16-7.24,95.18-16,137.35,7.37,8.45,13.61-7.55,28.8-8.35,42.46,36.47,3.65,74.1,5.12,109.86,14.36,13,1.6,26.11,8.64,32.47,20.25-2,17.65-19.74,28.1-34.33,35-19.35,11.8-46.51,9.75-62.63,22.9,69.84-2.53,140.76-3.63,211.1-7.17.26-11.27,3.84-26,16-29.79,1.91-54.05,4-109.83,4.84-162.8-7.64-5.83-18.82,5.95-25.66-1.21-3-11.5-9.76-23.29-7.35-35.14m24.7,3.66c-6.32,2.23-17.17-1.25-19.64,7.07,3.56,5.89,4.07,13.93,8.26,19,8.41-.76,19.91-5.09,25.89,3.42-.27,53.37-.6,106.49-3.58,159.81,5.52,15.23-18.22,13.39-15.9,28,1.42,6.25-4,12.48-.5,18.29,3.58-2.63,8.82-4.32,10.7-8.32-2.55-11.7,1.28-24.83,14.42-27.8,3.28-62.4-.2-126,4.34-189-6.37,3.41-4.27-9.41,1.52-7.53.65,63,6.63,127.07,7.72,190.54-1.88,5.8,5.24,7.35,9,8.68,8.34,7.94.26,20.4,3.88,29,9.33,1.3,11.57,7.6,12.66,16.1,102.5,3.44,206.18,5.95,309.09,8.42,8.88,5.53,6.54-14.19-1.16-11.31-102.78-5.62-205.27-8.07-308-12.26-6-9.72-.45-30.68-17.41-32.86-3.83-55-3.54-112.61-7.43-167,4.64-10.63,17.3-4.65,25.43-4.88,3.9-6.46,5.15-15.11,7.41-22.5-22-4.21-44.2-5.48-66.76-4.87M247.69,430.36c-24.63,1.81-49.22,5.53-73.72,9.18-2.66.23-5.21,4.07-2.47,5.93,9,5.48,20.16.85,29.57,5,22.8,3.44,46.71,8.48,69.15,3.89,5.47-5.21,13.72-12,12.12-20.36-11.1-3.57-23.17-2.79-34.65-3.65M307.52,452c-2.39,1.65-4.18,4.18-6.76,5.47-21.84,3.7-43.87,6.73-65.49,5-18.77-1.74-37.38-7.22-56.35-8.11-1.89,4.58,2.66,6.92,5,9.79,8.22,16,18.78,30.65,30.4,44.3A11.37,11.37,0,0,0,229,512.26c14.81,5.76,31.54.81,47.6,1.7,15.19-16.82,31.8-40.48,30.91-62M950.39,483.2c-1.94.54-5.63,4.4-1.74,4.54,3.76,2.49,6.75-6.36,1.74-4.54M304,487.47c-7.2,10.25-13,22.18-23.56,29.29.9,7.67-1.05,17.21-9.71,19.22-16.25,2.86-33.19,1.21-49.15-2.68-8.06-1.5-8.79-10.75-7.9-17.29-9.53-7.49-15.33-18.29-22.85-27.66-14.74,6.45-35.07,3.62-51.8,8-22.9,5.53-47.06,5.26-69.12,14.11-5.33.48-14,3.26-11,10.37C74.23,534.7,96,532.54,115,535.69,219.47,549,326.39,548.56,430,527.17c5.68-1.35,11.3-3.84,11.38-10.41-5.07-7.63-13.94-9.62-21.79-13.55-37.81-9.61-77.39-10.88-115.54-15.74m633,5.13c-49.72,4-100.71,6.51-149.9,17.38-9,2.7-25.83,2.62-26.93,14.58,9.6,7.28,22.52,8.35,33.84,11.79,88.71,11.19,178.63,14.56,267.84,5.63,25.48-6.73,53.54-4.05,76.91-17.15,4.11-17.06-20.49-18.87-32.82-20.55-45.33-6.21-91.41-11.7-137.29-10.52-3.35-.72-9.65-1.38-10.21,3.49,4.39,9,13.66,13,21.93,17.56,1.44,6.65-1.84,13.78-3.28,20.5-14.52,7.07-31.29,3.75-46.78,2.61-3.46.74-9.61-2.9-7.07-6.82,2.35-6.9-6.18-13.56-2.18-19.87,7.75.28,15.77-4.07,18.72-11.51,3-2.87,3.88-9.7-2.78-7.12M946,503c-1.71,2.58-5.89,5.48-4.69,8.94,5,2.75,8.14-6.53,4.69-8.94M220.87,518.46c-2,7,5.1,11.36,11.19,10.76-.11-2.76-8.41-3.59-4.61-7.36,6.06-2.91-4.61-3.32-6.58-3.4m712.64-.05c-3.9,8.18,3.17,17.57,12.84,15.08.08-8.48-2.9-17.49-12.84-15.08m-701.07,1.42c2.83,4.6,7.36-.68,0,0m5.68.1c4.77,4.44-1.63,6.47-4.16,9.19,11,5.34,23.8-.59,35.32.09,6.06.55,7.18-9,.76-8.92-10.48,2.52-21.38,1.15-31.92-.36M55.86,528.58C63.49,547.86,88.66,558,107,557.7c-5.89-20.88,19.74-6.72,30.17-9.91,5.28,10,17.94,19.22,29.59,17.59a1333.62,1333.62,0,0,0,145.07.34c3-.34,5.58.82,6.27,3.73-11.79,7.65-28.42-.68-39.51,6.85,15.29,1.07,30.65-.34,46-.7-.14-4-9.13-5.07-3.86-9.35,9-1,13-10,18.46-16,11.25-4.41,23.63-3,35-1.44.67,4.25-3.38,7.13-3.35,11.32,20.27-6.57,46-7.5,59.49-26-114.56,24-232.23,18.3-347.52,4.49-8.91-3.49-19-5.37-27-10m1081.19,3.36c-22.3,10.78-48,12.39-71.93,15.54,8.79,3.31,29.27-7.38,26,9.14,9.42-1.31,18.48-5.41,26.88-9.85,6.67-5.83,17.71-5.49,21.46-14.6.51-1.32-1.82-.21-2.44-.23m-372.76,2.34c13.77,16.83,37,22.66,57.89,26-1.26-4-1-9.77,2.9-11.77,5.35-1.32,14.59,5.67,17.35-.73-25.9-5-53.3-3.55-78.14-13.51M601.66,542.8c-3.89.24-5.74,7.05-.52,5.74,7.36,3.4,6.14-8.15.52-5.74M592,547c-3.61,2.55-8.13,5.17-9.26,9.78,2.64-3.44,14.38-5.78,9.26-9.78m18.85.84c-3.75,3.48,3.86,4.78,6.44,5.59-.13-3.06-2.6-7.41-6.44-5.59m440.56.21c-65.38,7.29-132.09,5-197.7.46,2.53,9.16,13.09,12.18,20.75,16.34,53.39,3.91,107.17,6.27,160.55.76,7.51-5.71,20.2-4.74,24.24-14.68.51-4.55-5.15-3.41-7.84-2.88m-937.91,3.06c-2,11.88,15.27,19.47,25.58,16.18-8.11-6.82-12.36-19.2-25.58-16.18m966.41.21c-3.65,1-12.57-1.47-10.58,5.56,2.19,6.72-6.77,6.34-8.49,10.8,7,0,14.78-1.24,18-8,6.64,3.58,11.55-13.66,1.12-8.36M365.37,553c-5.45,1.25-11.71-.07-16.74,2.54-1,6.83-8.26,10.39-11.05,15.38,12.07,1.23,24.65-5.37,30-16.66.33-1.59-1.14-1.53-2.24-1.26M599,552.89c-5.89,1.36-14.49,4.31-12.8,12.19,9.77-1.84,19.5-.91,29.3.08.35-8.53-9.89-11-16.5-12.27m228,.83c-2.63,14.17,22.27,15.5,32.32,14.92-9.41-8.13-18.16-18-32.32-14.92m236.79.17c-2,4.65-6.53,6.46-9.52,9.76,4.79.18,14.34-5.23,9.52-9.76m-721.83,1.5c-4,5-9.54,9.06-13.61,13.38,4.65,1.05,16.86-9,13.61-13.38m509-.3c1.72,3,3.92,6,7.41,7-1.73-3-3.93-6-7.41-7M599,567.31c-3.38,3.52-12-2.6-13,3,10.35-1.7,20.71,2.53,31.11.12-2.55-5.56-12.82-.77-18.16-3.07m-358.52,6.57c-4.81,5.64-13.1,8.62-17.92,13.45,14.61,1.13,32.48,2.2,40.84-12.82-7.49-1.17-15.29,0-22.92-.63m323.37.09c-7.37,4.56-16.68,1.23-24.76,2.23-89.81,3.23-179.91,5.54-269.32,8.68-5.77,1.86,2.59,5.49,3.11,8.73,1.88,8.61,12.55,3,18.79,3.89,90.91-2.53,181.1-5.47,272-8.26-.14-4.46,2.44-12.44.2-15.27m379.58,0c-4.79,1.05,2.3,5.86,4,2.68,11.28,6.92,24,8,37,5.45-10.77-9.89-26.07-6.8-41-8.13m-673.72,1.68c-7,4,6.44-.2,0,0m325,.1c-4.83,1.56-9.84,1.41-14.76,1.87-15.3,6.2-10.82,26.27-13.1,39.07-2.38,7.91,7.33,2.56,10.28,5.49,5.17-.38,5.86-6.68,8.93-9.87,7.23-15.93,29.77-5.09,33.31,8.13,4.16.87,9.22,2.15,13-.59-5-13.25.89-30.27-10.14-41.14-8.84-3.62-18.55-.4-27.52-3M263.2,582.3c-2.34,2.24-6.63,3.84-7.1,7.4,3.24-.11,10.09-4.3,7.1-7.4m717.3,6.15c-6.67,1.49-14.16-1.18-20.37,1.3,1.24,11.92-.94,24.75,1.58,35.89,4.23-4.09,9.1-11.79,16.63-11.32,6.28.43,9.58,7.75,13.76,10.35-3.32-12.11,8.46-39.29-11.6-36.22m-26.16,1.38c-.88,23.75,2,46.54-1.49,70-4.7-1.88-9.23-10.65-15.53-12.89,6,6,11.12,15.92,18.6,19,.37-25.15,1.53-53.52-1.58-76.07m-693,1.75c-5,3.1-7.83,8.64-6.26,14.59,2.1,11.48-.61,23.34,1.67,34.74,15.45-1.41,32.18,2,46.82-2.61,6.43-9.72,17.05-5.33,27.3-7.07,1.18-7.52,10.27-12.59,15.63-6.09.85,9.64,12.19,6.42,18.92,8.76.19-7.87-2.16-15,4.45-21,14.87.22,29.75-.74,44.53.93,5.72-2.37,9.53,2.77,7.24,7.83,46.55-1,93.1.67,139.59-1.13,1.1-7.34,3.1-17.19-.23-23.26-100.7,1.33-202,6.12-302.95,8.36-5-3.17.29-8.24,4.69-7.41,8.68,2.22,3.76-8.65-1.4-6.59m-41.58,1.8-8.18.7c-.72,12.11-.65,25.43-.46,36.8,3.07-12.82,23.87-15.12,28.18-1.84,7.16,15.86-20.89,27.93-27.87,12-.26,9.82-3,21.31,1,30.12,10.41-2.16,22.2,1.22,31.81-1.53.47-24.76.94-50.43-1.8-75-6.8-2-15.22-.88-22.71-1.21m29.51,3.1a456.65,456.65,0,0,0,.87,59.65c1-18.39,1.33-41.65-.87-59.65m389.89,1c-9.24,1.35-.87,16-2.37,23.23,68.79.52,137.83,1.42,206.56-.5,3.06-12.53,25.42-14.59,26.58,0,11.69.85,26.81,3.39,29.64,17.47,15.57,2.82,33.06-.19,49.26.8,1.4-11,.84-22.62.47-33.75-102.46-1.37-206.68-5.18-310.14-7.24m-40.08,11.77c-5.67.8-11.11,4.64-11,10.81,2.75,3,21.52-10.46,11-10.81m438.75.1c-8,2.65-.74,15-1.65,21,10.76,4.28,24.54-1.47,18-14,4.29-10.45-10.94-5.87-16.34-7m-889,3.13c-2.13,6.64-.79,14.25,0,21.17,5.8,1.91,12.78-.52,18.83-1-1.46-4.89.52-10.15-.59-15.15,5.31-10-14.16-2.26-18.29-5m458.63,1.9c-6.55,2.84-7.95,8.75,1.37,6.66,7.52,3.32,1.37-6.56-1.37-6.66M855.61,616c-9.13,3.42,1.31,7.14,6.66,5.33,1.18-3.36-3.22-7.42-6.66-5.33M393.92,617.8c-6.2,2.84-19.24-4.53-20.22,5.1,12.55-3.59,27.41,3,38.64-4-5.68-2.61-12.38.48-18.42-1.05m609.16.58c-.79,2.94,1.22,7,4.75,5.65,1.72-3.3-1.54-7-4.75-5.65m10.14,0c-.13,3,2.83,7.23,6.24,6.57-.24-2.81-3.17-6.82-6.24-6.57m9.7.13c.43,2.61,1.37,7.62,5,6.23,1.28-3.21-2.76-5.37-5-6.23m42.25,0c-.48,2.93,1.17,6,4.28,6.44-1-2.15-1-7.06-4.28-6.44m-68.23.74c-.1,7.68,4,4.27,0,0m76.87-.12c-.41,3.19,1.88,6.48,5.33,6.12-1.11-2.55-1.52-7.33-5.33-6.12m10.72.35c-2.57,2.18,1,6.11,3.93,5.69-2-2.67,2-7.31-3.93-5.69m-909.91.67c-2.88,1.56,1.74,8,3.88,5-1.19-1.37-1.26-6.3-3.88-5m799.62.22c-7,0-10.81,13.32-4.24,14.45-2.27-6.73,13.53-16.5,4.24-14.45m-790.42.37c-3.14,6.88,6.12,4.42,0,0m-54.48,1c-3.07,1.46,2.86,5.87,4.65,3.25-.3-2.28-2.28-4.15-4.65-3.25m9.9,0c-2.35,1.59,0,6.36,1.67,7.15-.26-1.61,2.39-8.2-1.67-7.15m52.85-.14c-2.89,5,4.49,4.31,0,0m7.46-.07c-3.14,8.78,8.53,4.38,0,0m781.79,2c-5.53,1.47-3.78,7.31,1.88,7.28,7.16,2.43,2.23-8.46-1.88-7.28m-756.44.83c-6.82-2-2.3,8.31-.09,10.6,1.66-2.51,7.54-11.35.09-10.6m366.52,1.09c-8.31,1.7-17.41-1.49-25.37,1.49a33.53,33.53,0,0,0-.22,12.27c-7.22.93-7.37-7.73-5-12.47-9.61-2.9-20,.51-29.8-.47-7.74,1.9,2.06,11.14-5.46,13.88-6-1.37-3.5-9.23-2.59-13.53-10.9.62-21.68-1.26-32.47.26-.52,3.84,1.66,13-5,11.44-3.55-2.81-1.28-7.8-1.2-11.64-11.44.25-23-.87-34.38.83,1.28,4.18,2,14-4.62,12.26.71-4-2-9.37,2.21-12.35-11.9-.8-25.95-3-36.72,2.36-.07,10.71.19,21.84.34,32.72,77-1.58,157-.68,235.25-1.2-3-3.85,1.52-8.49-1.41-12.8.72-5.92,8.52-7.5,11.15-2-.61,5,.89,11.31-2.46,14.37,70.46.48,141.1-.2,211.63-1.18,9-2.09,20.49,1.94,26.8-6.87,5.32-11.18-3.11-27.29-16.46-25.85-53-1.51-106.4-1-159.34-.71-5.7,2.43.11,16.07-8.39,11.27,6.15-18.85-15.91-9.62-25.11-11.69-9.28-3.76-.76,18.29-10.13,10.86,5.53-16.9-15.3-8.79-24.36-10.91-10.67-3.49-.92,17.6-11.79,11.9,7.25-18.55-15.59-10.79-26-11.95-10.33-2.85.87,14.38-8.22,13.44-6.35-5.49,3.2-18.16-11-13.71M337.6,626.81c-5.31,4.18,7,8.38,6.44,2.68-2.16-.76-4.05-3.26-6.44-2.68m34.7.08c-4.56-.08-1.22,11.83,2.45,6.9,3.81-8.52,13.51-3,14.28,4.11-.75,13.91,4.89,37.7-17.1,34,6,10.63,23.31,2.87,33.36,4.18,1.36-15.86.27-32.78-.64-48.83-10.22-1-21.62.58-32.35-.38m-139.66,3.23c-3.36,2.17-1,5.68,1.4,7.48,2-2,2.72-8.24-1.4-7.48m-16.95.66c.45,5.23.63,11.7,6.92,5.84-4.27-.37-3.56-5.56-6.92-5.84m760.24,2.76c-1.48,5.76,9.15,5.86,9.5.74-3.27,2.21-6.28.3-9.5-.74m-595.38.92c-2.73,6.18-11.89,6.35-15.31.59-16.5,2.28-33.69.77-50.49,2.55-14.26,1.68-16.75,28-.18,27.9,22.88.69,46,.35,69,.72-3.24-9.54,4.79-26.1-3-31.76m611,2.48c-7,9-21.39,7.38-29.84.94-1.12,9.17-.69,18.67-.76,28,10.17,1.43,20.55.15,30.89.13-.15-9.36,1-21.21-.29-29.06m-765.42,2.65c-2.35.56-6.61,1.48-6.26,4.56,5.21,3.23,17.63-4,6.26-4.56m682.73,4.15c-3.17.93-9.59-1.24-9.5,3.74-.36,9.18-6.77,14.52-14.55,17.62-47.2-.58-94.9.6-142.24.66-31.16.73-67.5-2.45-101,.7,0,18.11,5,35.7,6.41,53.72.05,15.8,14.63,25.3,19.19,39.15,118.86-.78,238.56-.43,357.82-2.88-6.65-11.3-17.9-26.7-28-36.25,4,21.5-22.42,23.81-37.4,22.81-19.26.55-43.61,3.23-57.68-12.89-4.55-5.49-.11-12.07-.76-18.26-12.33-3.44-25,0-37.51-.78-70.29.18-141,1-211.54,1.79-6.85-.11-.53-8.65,4-5.12,82.48-1.63,165.26,0,247.78-3.45,4.8-12.22,20.29-12.24,31.13-14.35,7.62-9.69.41-23.1,2.2-34.17-1.54-5.34-9.61-4.3-10.68-9.86,16.26-2.38-10.61-1.93-17.65-2.18m38.06.64c-3.63,5,7,1.51,0,0m-687.43,1.81c-3.75-1-4.19,8.42-.63,4.68,3.66-.38,5.25-6,.63-4.68m7.15.92c-2.05,4.32-6.37,7.12-9,10.74,2.18.63,18.36-12.89,9-10.74m11.87-.4c-3.18,5.56-9.8,6.88-13.3,12.12,0,11.16,2.66,22.55,1.56,33.61,13.48,2.86,29.8,3.74,34.87,18.07,84.26,1.27,168.89-.2,253.05-2.56,1.64-13.62,3.39-28,3.06-41.31-44.53-2.27-89.5.32-134.15.37-5.54,5.57-7.57,17.17-17.53,15.34-13.52-3.05-32.93,5.45-40.44-10.07-13.85-2.23-28.29,1.49-42.39,0-14.46,2.7-29.23-9.33-25.56-24.6-6.43,1.65-12.46-2.46-19.17-1m372.63,5.18c-7.34,6.76,8.21,4.43,0,0m292.27,10.73c4.73,9.92-4.93,22.43.63,33-4.82,11.32,9.76,7.86,16.84,6.41.07-9.94-1-19.81-.29-29.72-9.11,1.93-11-5.11-17.18-9.71m-684,1c-3.75,1.87-1.54,8.65-7.14,7.94-13.07,5.65-7.82,21.31-8.83,33.88,5.92,1.32,13.12,1.93,18.29-1-1-13.41-2.06-29.26-2.32-40.82m309.28,2-5,.71c-2.43,20.89-1.5,41.94-3.22,62.83,3.59,11.31-8.35,21.09-10.87,30.86,37.25.68,76,.28,112.18-1.41-6.93-5.1-13-14-16.94-22.62-3.14-21.73-6.32-43.45-7.24-65.26-1.32-1.67-.26-5.72-3.11-5.16-22-.09-43.81.19-65.76,0m-157.1,1.38c-3,2.55-.58,12.9,2.87,5.56,4-3.39,1.94-6.54-2.87-5.56m516.17,28.84c-4.64,3-10.4,2.77-15.34,5,.4,16.6,23.6,15.37,35.07,15.88-8.47-3.95-21.15.5-26.46-9-2-2.06-5.83-8.77.68-6.92,9.49,14.4,29.57,10.2,44.25,11.39,6.18-1,10.94-5.71,15.22-10,8.39,4.59-8.1,10.43-7.15,13.18,5.21-2,13.09-1.39,15.41-7.28-4.94-7.18-14.1-8.9-22.64-10.81-.46,3.57,6.33,3,5,7.3-9.2,7.19-21.83,4.58-32.7,3.89-3.54.73-9.11-.72-8.36-5.33,12.65,5.45,6.73-12.78-3-7.3m-698.31,1.76c-5.35.94-9.34,4.87-13.81,7.59-1,11.41,14.5,12,22.55,13-3.87-4.59-14.53-3.79-16.6-11.69,2.65-4.35,8,.79,10.7,2.41-2.37-4.9.84-8.61,5.74-8.64,1.37-4.56-6.32-2-8.58-2.65m44.38,2.44c-3.7,0-10.61,1.64-3.86,3.2,6.95,2.69.3,6.69-4.18,7.65,6.56,1.28,12.55-3,17.79-6.44.29-4.51-6.33-4.84-9.75-4.41m15.09,6.67c-8,3.78-14.32,11.19-23.85,10.74,9.87,3.84,20.66-3.78,30.55-5.65-.47-2.78-4.19-5-6.7-5.09m-52.28,2.4c-2.36,5,10.24.07,0,0m8,1.51c1.36,2.17,12.11,3.81,13.67,1.08-4.31-1.48-9.14-.55-13.67-1.08m665,1.65c-3,6.12-5.89,16.38,3.18,18.76,23.12,8.63,51.43,12.06,74.35.88,6.38-2.45,5-12.15,4-17.06-9.94,10.23-25.82,7.2-38.64,9-14.47-1.78-31-1.89-42.92-11.58m-433.36,2.17c-56.18,1.27-112.43,1.31-168.57,1.89-10.8-.58.24,13.94-7.07,18.1-19.17,11-42.16,8.89-63.49,8.43-12-1.61-30.73-5.12-29.47-20.79,1.46-3.33-3.72-4.25-4.76-1.43C193.45,735,180.76,746.8,172.84,762c122.81,1.32,245.5-1.81,368.41-1.87.9-8.31,8.4-13.5,11.32-21a73.33,73.33,0,0,0,1.72-24.82c-25.79-.65-52,.93-78,.15m-258,2.31c-7.52,1.66-4.68,11.8.73,14.84,16.92,9.08,38.08,7.08,56.24,4.51-3.19-3.9-1.2-15.21-8.84-12.43-15.65-.34-35.44,1.27-48.13-6.92m75.76.9c-8.51-.08-7.84,8.24-4.34,14,9.26.86,7.65-10.62,4.34-14m-15.12,4.93c-4.69,1.56-1.26,8.5-1.09,12.39,7.15,5,8.53-14.25,1.09-12.39m731.73,38.88c-55.39,2.82-111.69,1-167.27,2.1-223.9.91-447.15,1.59-671.35,4.16-.6,1.5-.26,3.65,1.78,3.46,130.48.35,261.17-1.83,391.47-1.94C721,766.88,876,768,1031.35,765.41c-.8-8.35-14.63.81-20.74-3.9m-48.68,9.24c-261.63,2.71-522.78,2.76-784.26,5.43-14.62-2.78-21.59,15.24-23.75,25.66,70.53,2.22,141.4-.88,212.15,0,229.89-2.29,459.4-1.3,689.38-4.79-.37-12.8-13.49-21.21-24.06-25.91-23.13-.72-46.34.23-69.46-.43M910.8,803.52c-252.68,1.55-505.42,2.29-757.74,4.09-5.12-.41-6.81,6.86.45,5.32,301.47-1.64,603.66-2,905-5,4.13.19,1.77-5.11-1.29-4.59-48.9-.65-97.67.58-146.39.19m69.66,10.13c-273.24,2.74-545.82,2-819,4.22-11-.15-26.66.51-28.67,14.17,311.78.07,623.73-2.5,935-3.69,9.32.71.21-12.63-2.49-15.38-28.4-.11-56.54,1.78-84.88.68M805.64,832.28c-1.9,4.23-7.73,1-11.17,1.93C577,835.34,359.65,835.67,142,837.27c-6.23,1.4-13.56,0-18.4,5.13-3.09,4.92-2.22,12.32-7.38,15.37,21.4,2.15,43.67-.06,65.36,1-1.35-13.21,12.19-11,20.51-10.13,267.14-2,533.06-1.22,800-4.65a27.27,27.27,0,0,1,16.46,1.77c1.34,2.18-2.81,8.9,2.18,8.69,22.21-1.36,44.72.82,66.94-1.21,1-9.62-8.94-23.6-20-19.81-84.18-.41-167.74.67-251.7.66-3.32-.14-8.4,1.85-10.29-1.77Z"/></svg>