<svg xmlns="http://www.w3.org/2000/svg" viewBox="0 0 1200 1200"><defs><style>.cls-1{fill:none;}.cls-2{fill:#fff;}.cls-3{fill:#d8d8d8;}.cls-4{fill:#fefefe;}</style></defs><g id="Graphic_elements" data-name="Graphic elements"><path class="cls-1" d="M370.21,714a4.6,4.6,0,0,1,2.43-1A4.6,4.6,0,0,0,370.21,714Z"/><path class="cls-1" d="M373.57,715.33a4.77,4.77,0,0,1-1.45.22A4.77,4.77,0,0,0,373.57,715.33Z"/><path class="cls-1" d="M375.17,713.69a1.13,1.13,0,0,1-.18.7A1.13,1.13,0,0,0,375.17,713.69Z"/><path class="cls-1" d="M374.74,714.69a2.7,2.7,0,0,1-.73.47A2.7,2.7,0,0,0,374.74,714.69Z"/><path class="cls-1" d="M844.89,92.56c2.13-.11,4.25-.18,6.38-.2C849.14,92.38,847,92.45,844.89,92.56Z"/><path class="cls-1" d="M744.49,117.66c18.91-19.88,43.4-34.74,70-41.26-26.64,6.52-51.13,21.38-70,41.26-33.41,34.92-52.41,81.09-62.86,127.68a453.39,453.39,0,0,0-10.09,99.06,453.39,453.39,0,0,1,10.09-99.06C692.08,198.75,711.08,152.58,744.49,117.66Z"/><path class="cls-1" d="M379.17,713.36l.4,0Z"/><path class="cls-1" d="M854.77,92.38c1.72,0,3.44.09,5.15.17C858.21,92.47,856.49,92.4,854.77,92.38Z"/><path class="cls-1" d="M244.31,744.8c23.88-10.26,49.45-15.77,74.78-21.3C293.76,729,268.19,734.54,244.31,744.8Z"/><path class="cls-1" d="M401.24,709.5l-.25,0,.25,0Z"/><path class="cls-1" d="M536.53,1036.74c-18.77,21-38.7,41.06-57.13,62.4h0c18.43-21.34,38.36-41.35,57.13-62.4Z"/><path class="cls-1" d="M416.84,717a48.25,48.25,0,0,0,12.06,2.28A48.25,48.25,0,0,1,416.84,717Z"/><path class="cls-1" d="M535,1022.94c1,4.72,2.67,9.81,1.9,14.64.77-4.83-.91-9.92-1.9-14.64-8-31.13-22.34-60.14-37.1-88.51q-4.92-9.13-9.93-18.21,5,9.07,9.93,18.21C512.62,962.8,527,991.81,535,1022.94Z"/><path class="cls-1" d="M1050.19,231c34.33,55.89,56.59,118.82,67.64,183.37,10.94,66.33,10.4,135.64-9.34,200.3-13.66,44.24-37.45,87.25-75.46,115a143.72,143.72,0,0,1-38.51,20,143.72,143.72,0,0,0,38.51-20c38-27.72,61.81-70.72,75.46-115,19.74-64.66,20.29-134,9.34-200.3-11-64.55-33.3-127.48-67.64-183.38-27.62-44.47-63.2-85.29-108.53-112.32A189.9,189.9,0,0,0,887,96.36a189.9,189.9,0,0,1,54.68,22.34C987,145.73,1022.57,186.55,1050.19,231Z"/><path class="cls-1" d="M854.25,514.56c10-21.07,11.17-45.19,8.92-68.08-4.56-28.48-13.7-57.1-31.37-80.27C819.06,349.26,799.45,337,778,335.7c-2.64-.19-5.26-.25-7.87-.2,2.61-.05,5.23,0,7.87.2,21.44,1.29,41,13.56,53.79,30.51,17.67,23.17,26.8,51.79,31.37,80.27,2.25,22.89,1.1,47-8.92,68.08-8.38,18.32-24.22,32.7-42.62,40.61-16,7-33.37,9.78-50.75,10.18,17.38-.4,34.76-3.17,50.75-10.18C830,547.26,845.88,532.88,854.25,514.56Z"/><path class="cls-1" d="M711.93,252.64c7.05-25.86,17.13-51.13,32.05-73.5,13-19.77,30-37.24,50.73-48.88C774,141.9,757,159.37,744,179.14c-14.92,22.37-25,47.64-32.05,73.5-9.37,34.89-12.79,71.18-12.32,107.23h0C699.14,323.82,702.56,287.53,711.93,252.64Z"/><path class="cls-1" d="M770.09,604.66a410.21,410.21,0,0,1-21.23-39.4h0a410.21,410.21,0,0,0,21.23,39.4c26.3,42.76,60.26,82.23,104,107.72,22.79,13.16,48.75,22,75.26,21.93-26.5.05-52.47-8.77-75.26-21.93C830.35,686.89,796.39,647.42,770.09,604.66Z"/><path class="cls-1" d="M1117.1,389c-14.71-66.4-40.48-130.71-78.52-187.23-28.46-41.71-63.9-79.87-108.15-105A195.2,195.2,0,0,0,890,79.34a195.2,195.2,0,0,1,40.48,17.47c44.25,25.11,79.69,63.27,108.15,105,38,56.52,63.81,120.83,78.52,187.23,10.73,49.05,15.55,99.66,12.29,149.8C1132.65,488.68,1127.83,438.07,1117.1,389Z"/><path class="cls-1" d="M853.72,115.06a120.2,120.2,0,0,0-20.66,1.64A120.2,120.2,0,0,1,853.72,115.06Z"/><path class="cls-1" d="M874.65,94l1.92.29Z"/><path class="cls-1" d="M882.7,95.43l.11,0Z"/><path class="cls-1" d="M873.16,93.81l.27,0Z"/><path d="M1150.55,455a606.3,606.3,0,0,0-46.27-180c-22-50.7-51.2-98.67-89-139.14C984,102.67,946.3,74.19,902.73,59.47c-29.4-9.91-61.56-12.52-91.91-5.55-28.67,6.44-55.17,21.38-76.3,41.66-35.14,33-56.86,77.84-69.77,123.73-1.17,5.62-6.31,8.78-10.21,12.44-43.78,38.85-89,76.43-138.26,108.2-23.45,14.59-47.79,28.92-74.91,35.33-7.15,1.93-14.61,1.18-21.86,2.16h0c-13.4,8.09-26.55,16.66-38.4,26.94-20.53,17.55-37.69,39.79-46.32,65.61a129.15,129.15,0,0,0-6.87,42.72,152.7,152.7,0,0,0,5,37.95c7.92,31.1,23.83,59.71,43.53,84.87,12.38,15.19,25.64,30.15,42,41.18,26.09,17.58,59.18,23.21,90,17.81,3.68-.66,7.35-1.48,11.12-1.4,9.51.31,18.94-1.2,28.42-1.61,37.25-2.43,74.62-3.46,111.93-1.83,38.73,1.45,77.54,5.37,115.33,14.27,4.92.87,7.49,5.6,10.81,8.82,32.75,35,72.75,65,119.13,79,32.11,9.8,67.25,10.53,99.3.05,24.65-7.91,47-22.24,65.47-40.35,32.78-32.05,53.58-74.42,66.34-118C1152.89,575.67,1156.15,514.65,1150.55,455Zm-25.84,125.8c-6.52,40.1-18.66,79.8-39.72,114.76-13.57,22.37-31,42.82-52.83,57.47a135.25,135.25,0,0,1-72.81,23.66c-32,.89-63.3-9.7-90.66-25.7-41.67-24.38-75.47-60.3-102.82-99.71-37.38-54.19-63-115.94-78.52-179.79-9.87-41.51-15.59-84.31-15.81-127.07a453.39,453.39,0,0,1,10.09-99.06c10.45-46.59,29.45-92.76,62.86-127.68,18.91-19.88,43.4-34.74,70-41.26A126.65,126.65,0,0,1,837.35,73,149.74,149.74,0,0,1,890,79.34a195.2,195.2,0,0,1,40.48,17.47c44.25,25.11,79.69,63.27,108.15,105,38,56.52,63.81,120.83,78.52,187.23,10.73,49.05,15.55,99.66,12.29,149.8Q1128,559.87,1124.71,580.78Z"/><path class="cls-2" d="M1117.1,389c-14.71-66.4-40.48-130.71-78.52-187.23-28.46-41.71-63.9-79.87-108.15-105A195.2,195.2,0,0,0,890,79.34,149.74,149.74,0,0,0,837.35,73a126.65,126.65,0,0,0-22.82,3.45c-26.64,6.52-51.13,21.38-70,41.26-33.41,34.92-52.41,81.09-62.86,127.68a453.39,453.39,0,0,0-10.09,99.06c.22,42.76,5.94,85.56,15.81,127.07,15.48,63.85,41.14,125.6,78.52,179.79C793.22,690.67,827,726.59,868.69,751c27.36,16,58.69,26.59,90.66,25.7A135.25,135.25,0,0,0,1032.16,753c21.84-14.65,39.26-35.1,52.83-57.47,21.06-35,33.2-74.66,39.72-114.76q3.33-20.88,4.68-42C1132.65,488.68,1127.83,438.07,1117.1,389ZM687.88,254.7c7.47-30.46,18.89-60.2,36-86.6,13.49-20.72,30.74-39.26,51.51-52.82a141.46,141.46,0,0,1,64.9-22.41c1.53-.13,3.07-.23,4.61-.31,2.13-.11,4.25-.18,6.38-.2,1.17,0,2.34,0,3.5,0,1.72,0,3.44.09,5.15.17q6.65.35,13.24,1.26l.27,0c.41.05.81.12,1.22.18l1.92.29c2,.33,4.1.7,6.13,1.11l.11,0c1.4.29,2.79.59,4.17.91a189.9,189.9,0,0,1,54.68,22.34c45.33,27,80.91,67.85,108.53,112.32,34.34,55.9,56.59,118.83,67.64,183.38,11,66.33,10.4,135.64-9.34,200.3-13.65,44.24-37.45,87.24-75.46,115a143.72,143.72,0,0,1-38.51,20,134.81,134.81,0,0,1-42.75,7.24c-32.24.8-63.93-9.83-91.43-26.15-44.07-26.22-78.91-65.57-106.2-108.52-34.26-54.53-56.87-116-68.64-179.22C674.12,380.92,673.21,316.32,687.88,254.7Z"/><path d="M754.14,622.23c27.29,42.95,62.13,82.3,106.2,108.52,27.5,16.32,59.19,27,91.43,26.15a134.81,134.81,0,0,0,42.75-7.24,143.72,143.72,0,0,0,38.51-20c38-27.71,61.8-70.72,75.46-115,19.74-64.66,20.28-134,9.34-200.3-11-64.55-33.31-127.48-67.64-183.37-27.62-44.48-63.21-85.3-108.53-112.33A189.9,189.9,0,0,0,887,96.36c-1.38-.32-2.77-.62-4.17-.91l-.11,0c-2-.41-4.08-.78-6.13-1.11L874.65,94c-.41-.06-.81-.13-1.22-.18l-.27,0q-6.58-.91-13.24-1.26c-1.71-.08-3.43-.15-5.15-.17-1.16,0-2.33,0-3.5,0-2.13,0-4.25.09-6.38.2-1.54.08-3.08.18-4.61.31a141.46,141.46,0,0,0-64.9,22.41c-20.77,13.56-38,32.1-51.51,52.82-17.1,26.4-28.52,56.14-36,86.6C673.21,316.32,674.12,380.92,685.5,443,697.27,506.22,719.88,567.7,754.14,622.23Zm99.58-507.17a119.31,119.31,0,0,1,18.88,1.63c30,4.93,57.66,19.5,81.43,38.08,39.62,31.13,69.9,72.67,93.06,117.09a508.57,508.57,0,0,1,54.22,196.54c3.35,55-2,111.48-22.94,162.85-10.81,26.37-26.11,51.45-47.39,70.68-20.7,19.08-48,31.23-76.29,32.25-1.77.08-3.54.12-5.3.13-26.51.05-52.47-8.77-75.26-21.93-43.78-25.49-77.74-65-104-107.72a410.21,410.21,0,0,1-21.23-39.4h0c4,.14,8,.18,12,.09,17.38-.4,34.76-3.17,50.75-10.18,18.4-7.91,34.24-22.29,42.62-40.61,10-21.07,11.17-45.19,8.92-68.08-4.57-28.48-13.7-57.1-31.37-80.27C819.06,349.26,799.45,337,778,335.7c-2.64-.19-5.26-.25-7.87-.2-25.22.5-49,11.81-70.53,24.37h0c-.47-36.05,2.95-72.34,12.32-107.23,7.05-25.86,17.13-51.13,32.05-73.5,13-19.77,30-37.24,50.73-48.88q2.07-1.17,4.19-2.25a115.59,115.59,0,0,1,34.16-11.31A120.2,120.2,0,0,1,853.72,115.06Z"/><path class="cls-2" d="M798.9,128q-2.11,1.08-4.19,2.25C774,141.9,757,159.37,744,179.14c-14.92,22.37-25,47.64-32.05,73.5-9.37,34.89-12.79,71.18-12.32,107.23h0c21.48-12.56,45.31-23.87,70.53-24.37,2.61-.05,5.23,0,7.87.2,21.44,1.29,41,13.56,53.79,30.51,17.67,23.17,26.81,51.79,31.37,80.27,2.25,22.89,1.1,47-8.92,68.08-8.37,18.32-24.22,32.7-42.62,40.61-16,7-33.37,9.78-50.75,10.18-4,.09-8,0-12-.09h0a410.21,410.21,0,0,0,21.23,39.4c26.3,42.76,60.26,82.23,104,107.72,22.79,13.16,48.76,22,75.26,21.93,1.76,0,3.53,0,5.3-.13,28.26-1,55.59-13.17,76.29-32.25,21.28-19.23,36.58-44.31,47.39-70.68,20.91-51.37,26.29-107.86,22.94-162.85a508.57,508.57,0,0,0-54.22-196.54c-23.16-44.42-53.44-86-93.06-117.09-23.77-18.58-51.42-33.15-81.43-38.08a120.12,120.12,0,0,0-39.54,0A115.59,115.59,0,0,0,798.9,128Z"/><path class="cls-2" d="M381.11,404.38c11.85-10.28,25-18.85,38.4-26.94h0l1.09-.72c-2.42-2-4.28-5-7.31-6.07-4,1-7.68,2.83-11.41,4.45-29.32,13.48-56.57,34.16-74.18,61.39a128.18,128.18,0,0,0-11.49,22.13c-13.32,32.7-11,69.7-.41,102.8,14.13,44.06,40,83.24,68.5,119.25,2.38,3.12,2.85,7.17,4.35,10.74,2.36,6.74,7.08,12.23,11.79,17.43-7.53,1.8-15.51,1.75-22.76,4.58.5,0,1,0,1.49-.06l.4,0c7.25-.55,14.18-3.29,21.42-3.79l.25,0h0a67.24,67.24,0,0,0,15.6,7.54,48.25,48.25,0,0,0,12.06,2.28c.41,0,.81,0,1.22.06a101.42,101.42,0,0,0,10.32-.08c23.94-1.39,46.83-11,68.26-21.32a70.11,70.11,0,0,1,10.83-4.86c-3.77-.08-7.44.74-11.12,1.4-30.78,5.4-63.87-.22-90-17.81-16.34-11-29.6-26-42-41.18-19.7-25.15-35.61-53.77-43.53-84.87a152.64,152.64,0,0,1-5-37.95A129.15,129.15,0,0,1,334.79,470C343.42,444.17,360.58,421.93,381.11,404.38Z"/><path d="M430.12,719.38c-.41,0-.81,0-1.22-.06A48.25,48.25,0,0,1,416.84,717a67.24,67.24,0,0,1-15.6-7.54h0l-.25,0c-7.24.5-14.17,3.24-21.42,3.79l-.4,0c-.49,0-1,0-1.49.06,7.25-2.83,15.23-2.78,22.76-4.58-4.71-5.2-9.43-10.69-11.79-17.43-1.5-3.57-2-7.62-4.35-10.74-28.53-36-54.37-75.19-68.5-119.25-10.57-33.1-12.91-70.1.41-102.8a128.18,128.18,0,0,1,11.49-22.13c17.61-27.23,44.86-47.91,74.18-61.39-5.85.51-11.37,2.6-16.93,4.25-21.7,6.47-43.38,13-65,19.65-58.43,18.28-117.07,36.25-174,59-9.14,4.2-19.17,7.24-27,13.77a502.83,502.83,0,0,0-45.91,58.45C63.28,545.25,54,561,49,578.4c-3.94,13.32-1.4,27.32.86,40.69,5.87,31.12,18,62,39.92,85.43a109.78,109.78,0,0,0,63.72,33.1,405.41,405.41,0,0,0,89.15,11.86c11.55,25.42,23.29,51.06,39.91,73.67,5.86,7.65,12.23,15.34,20.7,20.18,4.71,2.81,10.44,2.36,15.48,4.29,8,3.34,16.73,1.11,25.08,2,1.87.33,3.08,2,4.43,3.24,5.47,5.86,10.41,12.5,12.92,20.22,1.94,5.76-.42,12.08,2,17.75,16.22,42.39,32.84,84.65,50.48,126.46,11.08,25.82,22,51.77,35.51,76.45,3.5,6.85,9,12.54,12,19.69,4.3,10.22,9.35,20.27,16.32,29,3.1,3.51,6.87,7.45,11.87,7.62,4.37.36,7-3.87,10.58-5.58,8.62-3.89,18.05-5.71,26.64-9.68,6.26-3.56,11.58-8.52,16.83-13.41,19.88-19.39,34-44.09,43.4-70.07,2.27-5.27.62-11.17-2-16-5.41-9.82-13.74-17.53-22-24.85.25-13.67-6.29-26-12-38-19.13-38-42.75-73.4-65.82-109,4.32-4.53,8.75-9.58,9.55-16.07.54-4.67,1-10.38-2.87-13.86-17.8-17.55-31.86-41.48-30.62-67.2,1.3-22.24,15.29-41.47,31.86-55.38,5.05-4.65,11.43-7.72,16-12.91-21.43,10.32-44.32,19.93-68.26,21.32A101.42,101.42,0,0,1,430.12,719.38Zm57.81,196.84q5,9.07,9.93,18.21c14.76,28.37,29.12,57.38,37.1,88.51,1,4.72,2.67,9.81,1.9,14.64a13.32,13.32,0,0,1-1.17,3.78c-7.26,17.56-15.79,35.37-30.06,48.36-7,6.38-16.51,11.32-26.23,9.42h0c18.43-21.34,38.36-41.35,57.13-62.4-5.51-14.25-12.82-27.77-19-41.74-17.9-38.56-36.29-76.91-54-115.55q-3.8-8.28-7.56-16.58C467.4,880.14,477.87,898.07,487.93,916.22ZM368.47,715.87c-41.47,9.28-82.8,19.18-124.16,28.93,23.88-10.26,49.45-15.77,74.78-21.3l5.07-1.1c3.79-.73,7.58-1.49,11.38-2.24,11.38-2.27,22.77-4.52,34.27-5.92Zm6.52-1.48a1.42,1.42,0,0,1-.25.3,2.7,2.7,0,0,1-.73.47l-.44.17a4.77,4.77,0,0,1-1.45.22,3.62,3.62,0,0,1-.9-.13,1.21,1.21,0,0,1-1-1.4,4.6,4.6,0,0,1,2.43-1,4.5,4.5,0,0,1,2.53.65A1.13,1.13,0,0,1,375,714.39Z"/><path class="cls-3" d="M372.64,713a4.6,4.6,0,0,0-2.43,1,1.21,1.21,0,0,0,1,1.4,3.62,3.62,0,0,0,.9.13,4.77,4.77,0,0,0,1.45-.22l.44-.17a2.7,2.7,0,0,0,.73-.47,1.42,1.42,0,0,0,.25-.3,1.13,1.13,0,0,0,.18-.7A4.5,4.5,0,0,0,372.64,713Z"/><path class="cls-4" d="M335.54,720.16c-3.8.75-7.59,1.51-11.38,2.24l-5.07,1.1c-25.33,5.53-50.9,11-74.78,21.3,41.36-9.75,82.69-19.65,124.16-28.93l1.34-1.63C358.31,715.64,346.92,717.89,335.54,720.16Z"/><path class="cls-2" d="M517.5,995c6.21,14,13.52,27.49,19,41.74h0c-18.77,21-38.7,41.06-57.13,62.4h0c9.72,1.9,19.22-3,26.23-9.42,14.27-13,22.8-30.8,30.06-48.36a13.32,13.32,0,0,0,1.17-3.78c.77-4.83-.91-9.92-1.9-14.64-8-31.13-22.34-60.14-37.1-88.51q-4.92-9.13-9.93-18.21c-10.06-18.15-20.53-36.08-32-53.35q3.75,8.31,7.56,16.58C481.21,918.09,499.6,956.44,517.5,995Z"/></g></svg>