<?xml version="1.0" encoding="UTF-8" standalone="no"?>
<!-- Created with Inkscape (http://www.inkscape.org/) -->

<svg
   id="svg2265"
   sodipodi:version="0.32"
   inkscape:version="1.2.2 (b0a8486541, 2022-12-01)"
   width="311.20068"
   height="154.44046"
   sodipodi:docname="Lineup-crop.svg"
   version="1.0"
   inkscape:output_extension="org.inkscape.output.svg.inkscape"
   inkscape:export-filename="Lineup-crop.png"
   inkscape:export-xdpi="96"
   inkscape:export-ydpi="96"
   xmlns:inkscape="http://www.inkscape.org/namespaces/inkscape"
   xmlns:sodipodi="http://sodipodi.sourceforge.net/DTD/sodipodi-0.dtd"
   xmlns="http://www.w3.org/2000/svg"
   xmlns:svg="http://www.w3.org/2000/svg"
   xmlns:rdf="http://www.w3.org/1999/02/22-rdf-syntax-ns#"
   xmlns:cc="http://creativecommons.org/ns#"
   xmlns:dc="http://purl.org/dc/elements/1.1/">
  <metadata
     id="metadata2270">
    <rdf:RDF>
      <cc:Work
         rdf:about="">
        <dc:format>image/svg+xml</dc:format>
        <dc:type
           rdf:resource="http://purl.org/dc/dcmitype/StillImage" />
      </cc:Work>
    </rdf:RDF>
  </metadata>
  <defs
     id="defs2268">
    <inkscape:perspective
       sodipodi:type="inkscape:persp3d"
       inkscape:vp_x="0 : 7.6382751 : 1"
       inkscape:vp_y="0 : 1000 : 0"
       inkscape:vp_z="83.75 : 7.6382751 : 1"
       inkscape:persp3d-origin="41.875 : -32.986725 : 1"
       id="perspective7" />
    <inkscape:perspective
       id="perspective2387"
       inkscape:persp3d-origin="372.04724 : 236.55067 : 1"
       inkscape:vp_z="744.09448 : 411.94437 : 1"
       inkscape:vp_y="0 : 1000 : 0"
       inkscape:vp_x="0 : 411.94437 : 1"
       sodipodi:type="inkscape:persp3d" />
    <inkscape:perspective
       id="perspective2400"
       inkscape:persp3d-origin="372.04724 : 236.55067 : 1"
       inkscape:vp_z="744.09448 : 411.94437 : 1"
       inkscape:vp_y="0 : 1000 : 0"
       inkscape:vp_x="0 : 411.94437 : 1"
       sodipodi:type="inkscape:persp3d" />
    <inkscape:perspective
       id="perspective3229"
       inkscape:persp3d-origin="372.04724 : 236.55067 : 1"
       inkscape:vp_z="744.09448 : 411.94437 : 1"
       inkscape:vp_y="0 : 1000 : 0"
       inkscape:vp_x="0 : 411.94437 : 1"
       sodipodi:type="inkscape:persp3d" />
    <inkscape:perspective
       id="perspective3264"
       inkscape:persp3d-origin="372.04724 : 236.55067 : 1"
       inkscape:vp_z="744.09448 : 411.94437 : 1"
       inkscape:vp_y="0 : 1000 : 0"
       inkscape:vp_x="0 : 411.94437 : 1"
       sodipodi:type="inkscape:persp3d" />
    <inkscape:perspective
       id="perspective3279"
       inkscape:persp3d-origin="372.04724 : 236.55067 : 1"
       inkscape:vp_z="744.09448 : 411.94437 : 1"
       inkscape:vp_y="0 : 1000 : 0"
       inkscape:vp_x="0 : 411.94437 : 1"
       sodipodi:type="inkscape:persp3d" />
    <inkscape:perspective
       id="perspective3294"
       inkscape:persp3d-origin="372.04724 : 236.55067 : 1"
       inkscape:vp_z="744.09448 : 411.94437 : 1"
       inkscape:vp_y="0 : 1000 : 0"
       inkscape:vp_x="0 : 411.94437 : 1"
       sodipodi:type="inkscape:persp3d" />
  </defs>
  <sodipodi:namedview
     inkscape:window-height="617"
     inkscape:window-width="1844"
     inkscape:pageshadow="2"
     inkscape:pageopacity="0.0"
     borderopacity="1.0"
     bordercolor="#666666"
     pagecolor="#ffffff"
     id="base"
     inkscape:zoom="1.086276"
     inkscape:cx="240.73072"
     inkscape:cy="109.54859"
     inkscape:window-x="66"
     inkscape:window-y="66"
     inkscape:current-layer="svg2265"
     showgrid="false"
     inkscape:showpageshadow="0"
     inkscape:pagecheckerboard="0"
     inkscape:deskcolor="#d1d1d1"
     inkscape:window-maximized="0" />
  <g
     id="g10358"
     transform="translate(-0.34894922,-8.5009537)">
    <path
       id="path2413"
       style="fill:#000000"
       d="m 111.28516,8.5097656 c -1.67671,-0.034216 -2.2198,0.021178 -3.39649,0.3457032 -0.99975,0.2757267 -2.53546,0.9485711 -3.4707,1.5214842 -0.94492,0.57885 -2.49431,1.849258 -3.31055,2.714844 -2.262216,2.398969 -3.770172,5.432328 -4.185545,8.417969 -0.402561,2.893501 0.326001,5.674301 2.076172,7.919922 0.909831,1.167386 1.523593,1.698695 2.816403,2.443359 0.64191,0.36974 1.42849,0.872296 1.74805,1.117187 2.93774,2.251315 3.08229,4.375706 0.45312,6.658204 -1.49638,1.299079 -2.95942,2.150697 -7.785151,4.535156 -1.642331,0.811499 -3.296722,1.650157 -3.677735,1.863281 l -0.693359,0.386719 -0.783203,-0.01172 c -1.544511,-0.02289 -3.284372,0.260605 -4.457031,0.726563 -1.858947,0.738657 -3.447149,2.045577 -4.796875,3.947265 -0.954661,1.34506 -1.42661,2.181884 -3.033204,5.382813 -2.021859,4.028292 -3.228667,5.835217 -4.921874,7.365234 -0.399096,0.36063 -1.00039,0.833591 -1.335938,1.050781 l -0.609375,0.394531 -0.347656,-0.214843 C 71.064272,64.759268 69.888683,64.272155 68.865234,63.951172 67.685237,63.58109 66.554072,63.293966 63.384766,62.5625 60.133274,61.812067 59.413605,61.632717 58.025391,61.224609 54.694036,60.245256 52.895124,59.237742 52.185547,57.955078 51.86598,57.377416 51.793812,56.517691 52.011719,55.873047 c 0.301455,-0.89181 1.215952,-2.150025 2.226562,-3.0625 l 0.439453,-0.396485 -0.859375,-3.824218 C 51.954047,40.281398 51.317912,36.947773 50.705078,32.265625 50.438834,30.231478 50.423062,30.153134 50.021484,29.119141 49.251631,27.136904 48.298037,25.732033 46.904297,24.527344 45.975365,23.724416 45.386258,23.350866 44.386719,22.925781 39.84127,20.992686 33.531777,22.473012 28.544922,26.644531 c -2.874087,2.404177 -4.78194,5.2354 -5.574219,8.273438 -0.17902,0.686436 -0.284544,0.925336 -0.621094,1.40625 -1.361668,1.94577 -1.881118,4.30572 -1.511718,6.859375 0.241619,1.670308 0.674581,3.126063 1.875,6.294922 1.603048,4.231747 1.939453,5.526576 1.939453,7.466796 0,2.759804 -1.20997,4.822652 -3.929688,6.699219 -1.199929,0.827937 -1.500972,0.971001 -2.169922,1.025391 -0.314969,0.02561 -0.936319,0.11001 -1.380859,0.1875 -4.416586,0.769865 -7.5142269,2.981487 -9.453125,6.748047 -1.2090188,2.348665 -1.8304073,4.469311 -2.9101562,9.955078 -0.2970498,1.509169 -0.6410452,3.191231 -0.765625,3.738281 L 3.8164062,86.292969 3.2636719,86.8125 C 1.7853134,88.198474 0.83510963,89.578676 0.46875,90.875 c -0.20841981,0.737489 -0.13521849,2.123356 0.14453125,2.765625 0.62294935,1.430199 1.98264475,2.716788 4.19531255,3.966797 2.3600276,1.333259 5.1292985,2.424448 10.3085942,4.062498 1.169878,0.37 2.513878,0.79798 2.986328,0.95117 l 0.859375,0.2793 0.02344,0.93945 c 0.07938,2.99771 -0.779701,6.99847 -2.980469,13.88477 -1.639998,5.13166 -1.86232,5.84036 -2.28125,7.2793 -1.833608,6.29818 -2.632336,11.2092 -2.978515,18.29492 -0.210859,4.31585 -0.31199,15.89443 -0.207032,19.64258 h 55.824219 c -0.460339,-2.56932 -1.192151,-5.66632 -2.359375,-10.18555 -1.180573,-4.57091 -1.705545,-6.77519 -2.132812,-8.94727 -0.464555,-2.36162 -0.464038,-2.33618 -0.173828,-3.57031 0.804127,-3.41961 0.756216,-6.90582 -0.158204,-11.43359 -0.340003,-1.68354 -0.656458,-2.89721 -1.835937,-7.03516 -1.919437,-6.73393 -2.406447,-9.04569 -2.621094,-12.46094 l -0.05664,-0.88867 0.576171,-0.56054 c 3.555827,-3.47039 6.725212,-2.65139 8.59961,2.22265 1.259396,3.27485 1.578426,7.90298 0.736328,10.66797 -0.159478,0.52364 -0.159994,0.57433 -0.03516,1.60742 0.720315,5.96098 2.945178,11.54323 6.3125,15.83985 1.332212,1.69985 3.486264,3.74878 5.099609,4.84961 1.910193,1.30335 3.860303,2.23596 6.132813,2.92968 l 0.857422,0.25977 0.226562,1.07812 c 0.613703,2.91825 1.067185,6.25989 1.328125,9.77539 0.152566,2.05549 0.225564,3.71194 0.261719,5.85157 h 24.996097 c 0.15284,-0.75587 0.26833,-1.11987 0.47851,-2.36914 0.36362,-2.16119 0.64931,-3.37217 0.94141,-3.99219 0.57512,-1.22074 1.34696,-1.35023 2.46094,-0.41211 l 0.41015,0.3457 0.13868,1.64258 c 0.13203,1.56904 0.20253,3.21503 0.3125,4.78516 h 25.1582 c 0.26081,-1.27135 0.1651,-0.9142 0.55273,-2.79102 0.99897,-4.83671 1.79911,-9.25047 2.22071,-12.24219 0.13183,-0.93543 0.18302,-1.09294 1.01953,-3.13086 3.11202,-7.58165 7.37244,-16.97968 11.40429,-25.15429 0.59739,-1.21122 0.62908,-1.29888 0.70508,-2.03907 0.30034,-2.92684 0.84708,-4.89904 3.06641,-11.04687 1.61303,-4.46832 2.25762,-6.697645 2.625,-9.076172 0.19753,-1.277179 0.19935,-3.787487 0.004,-4.890626 C 163.203,90.243135 162.276,88.16757 160.7794,86.21875 l -0.57422,-0.748047 -0.28516,-2.025391 c -0.15645,-1.113823 -0.50594,-3.847207 -0.77734,-6.072265 -0.73976,-6.065055 -1.00013,-7.871595 -1.56055,-10.822266 -0.73155,-3.851801 -1.60098,-6.959997 -2.85351,-10.21289 -0.27032,-0.702033 -0.51572,-1.489092 -0.57032,-1.830079 -0.19795,-1.237554 -0.74614,-2.514801 -1.48242,-3.455078 -0.47481,-0.606368 -1.53745,-1.509158 -2.28711,-1.941406 -1.84826,-1.065674 -3.85032,-1.673963 -8.63086,-2.621094 -4.84721,-0.960342 -6.48559,-1.399775 -8.58984,-2.30664 -0.75042,-0.323407 -1.70261,-0.841774 -2.29102,-1.246094 -0.17999,-0.123671 -0.73051,-0.460456 -1.22461,-0.748047 -2.43678,-1.418352 -4.21713,-3.445036 -5.22265,-5.945312 -0.87021,-2.16385 -1.21682,-4.367244 -1.36524,-8.710938 -0.18948,-5.545393 -0.30213,-7.012527 -0.69336,-8.943359 -0.46171,-2.278592 -1.32294,-4.29782 -2.46484,-5.777344 -0.47545,-0.616033 -2.1032,-2.024186 -3.01758,-2.611328 -0.94051,-0.6039293 -2.28974,-1.1951745 -3.35547,-1.4707032 -0.65544,-0.1694539 -0.90076,-0.1932092 -2.24804,-0.2207032 z m 36.26757,80.5078124 c 0.72737,0.0946 1.35738,0.393387 1.90821,0.900391 0.75889,0.698509 1.20254,1.555568 1.55859,3.005859 0.21117,0.860239 0.20895,3.579196 -0.004,4.677734 -0.41244,2.128548 -1.20143,4.033008 -2.19726,5.306638 -0.23347,0.29855 -0.24671,0.35822 -0.31641,1.40821 -0.0775,1.16882 -0.22381,2.03031 -0.49414,2.89843 -0.15559,0.49965 -0.1845,0.54224 -0.41601,0.58204 -0.48778,0.0839 -1.28436,-0.0462 -1.85742,-0.30274 -1.19537,-0.53509 -2.02808,-2.02113 -2.4375,-4.34766 -0.1838,-1.04465 -0.20763,-4.991574 -0.0391,-6.529292 0.22703,-2.071168 0.92377,-6.363843 1.12696,-6.945313 0.0247,-0.07055 0.2977,-0.20306 0.66992,-0.326172 0.94479,-0.312486 1.77068,-0.422726 2.49804,-0.328125 z m -62.826168,5.041016 c 0.19003,-0.0072 0.36228,0.0428 0.542969,0.148437 0.968562,0.56625 1.524401,2.828914 1.720703,7.017579 0.120362,2.5681 0.218348,8.4012 0.148438,8.83008 -0.112914,0.69274 -0.06611,3.32194 0.101562,5.7207 0.205804,2.94411 0.186673,5.87425 -0.04492,6.97852 -0.451728,2.15393 -1.364237,3.32959 -2.949218,3.80078 -0.572456,0.17014 -1.794445,0.23622 -2.529297,0.13672 -0.927988,-0.12558 -3.112367,-0.72147 -3.429688,-0.93555 -0.257793,-0.17392 -0.421115,-1.62076 -0.416015,-3.66992 0.0085,-3.40776 0.435957,-5.39805 2.691406,-12.51563 2.254118,-7.11337 2.718178,-9.2497 2.798828,-12.88281 0.0492,-2.216318 0.0096,-2.083967 0.720703,-2.435547 0.246587,-0.121925 0.454502,-0.186114 0.644531,-0.193359 z" />
    <g
       id="g9901">
      <path
         style="fill:none;fill-rule:evenodd;stroke:#ffffff;stroke-width:1.03281px;stroke-linecap:butt;stroke-linejoin:miter;stroke-opacity:1"
         d="m 6.8999604,70.918724 c 3.7201596,0.410173 7.3955896,4.785997 10.0660996,7.534444 0.45755,0.470904 0.9151,0.941806 1.37265,1.412709 1.87785,1.932654 4.48507,3.249783 6.4057,4.238125 0.19292,0.09928 0.30504,0.313935 0.45755,0.470903"
         id="path2406" />
      <path
         style="fill:none;fill-rule:evenodd;stroke:#ffffff;stroke-width:1.14035px;stroke-linecap:butt;stroke-linejoin:miter;stroke-opacity:1"
         d="m 22.3527,122.33751 c 0.8366,-1.06852 -6.53527,2.9899 -8.90198,7.52411 -0.32185,0.61662 -1.39639,0.33441 -2.09458,0.50161"
         id="path3180" />
      <path
         style="fill:none;fill-rule:evenodd;stroke:#ffffff;stroke-width:1.02307px;stroke-linecap:butt;stroke-linejoin:miter;stroke-opacity:1"
         d="m 46.36289,123.25403 c -1.58063,3.00206 6.44281,2.92634 9.90857,3.58459 3.430496,0.65156 3.362333,3.37469 6.133876,4.03268"
         id="path3182" />
      <path
         style="fill:#ffffff;fill-opacity:1;fill-rule:evenodd;stroke:#ffffff;stroke-width:1px;stroke-linecap:butt;stroke-linejoin:miter;stroke-opacity:1"
         d="m 24.76893,84.59131 c 0.0103,0.815074 0.20752,6.602768 -0.44943,9.88751 -0.73674,3.683734 -0.89886,7.56655 -0.89886,11.23581 0,3.12227 -0.89887,4.85668 -0.89887,8.08978 0,2.57991 -0.34147,4.51193 -0.89886,6.74148 -0.45977,1.83908 0.6407,1.92587 4.49432,2.6966 3.3562,0.67124 7.97449,0.89886 11.23581,0.89886 2.1531,0 4.76446,0.44943 7.19091,0.44943 3.81971,0 3.14603,-2.13407 3.14603,-5.39318 0,-3.77614 0.89886,-7.38145 0.89886,-11.23581 0,-2.86559 -0.13758,-6.01688 0.89887,-8.089783 1.35976,-2.71953 2.13478,-8.426742 2.69659,-11.235806 0.55922,-2.796093 0.23287,-5.222612 -2.24716,-5.84262 -3.72172,-0.930431 -9.1726,0 -13.03353,0 -4.68291,0 -7.73102,0.916997 -12.13468,1.797729 z"
         id="path3184" />
      <path
         style="fill:none;fill-rule:evenodd;stroke:#ffffff;stroke-width:1px;stroke-linecap:butt;stroke-linejoin:miter;stroke-opacity:1"
         d="m 51.78846,83.956244 c 0.57841,-0.765347 1.07407,-2.230622 1.35063,-3.336865 0.5058,-2.023208 1.96987,-3.668688 2.46292,-5.64089 0.34426,-1.377025 1.09353,-2.705664 1.43009,-4.051906 0.24111,-0.964461 0.55816,-1.835414 0.79449,-2.780721 0.20855,-0.834187 0.577843,-1.711827 0.953391,-2.462923 0.300242,-0.600484 0.346738,-1.256997 0.476695,-1.90678 0.09193,-0.459641 0.151539,-0.859223 0.317796,-1.191737 0.182849,-0.365697 0.448691,-1.031853 0.51642,-1.370498 0.03086,-0.154285 0.138861,-0.416583 0.158899,-0.476695"
         id="path3186"
         sodipodi:nodetypes="cssssssssc" />
      <text
         xml:space="preserve"
         style="font-weight:bold;font-size:16px;font-family:Calibri;-inkscape-font-specification:'Calibri Bold';text-align:center;text-anchor:middle;fill:#ffffff;stroke-width:1.33333;stroke-linecap:round;stroke-miterlimit:3;paint-order:stroke fill markers"
         x="36.968575"
         y="108.5352"
         id="text9830"><tspan
           sodipodi:role="line"
           id="tspan9828"
           x="36.968575"
           y="108.5352"
           style="fill:#000000">A</tspan></text>
    </g>
    <g
       id="g9910">
      <path
         style="fill:none;fill-rule:evenodd;stroke:#ffffff;stroke-width:1.03791px;stroke-linecap:butt;stroke-linejoin:miter;stroke-opacity:1"
         d="m 90.652135,44.908579 c 2.852799,0.54018 5.671298,6.302945 7.719175,9.922528 0.350872,0.620158 0.701743,1.240315 1.052616,1.860474 1.440034,2.545219 3.439374,4.27982 4.912204,5.581423 0.14795,0.13074 0.23392,0.413438 0.35088,0.620157"
         id="path3208" />
      <path
         style="fill:none;fill-rule:evenodd;stroke:#ffffff;stroke-width:1.50139px;stroke-linecap:butt;stroke-linejoin:miter;stroke-opacity:1"
         d="m 101.62215,94.815872 c 1.20069,-1.290575 -9.379403,3.611246 -12.7761,9.087728 -0.461917,0.74476 -2.004095,0.40391 -3.006136,0.60585"
         id="path3210" />
      <path
         style="fill:none;fill-rule:evenodd;stroke:#ffffff;stroke-width:1.00637px;stroke-linecap:butt;stroke-linejoin:miter;stroke-opacity:1"
         d="m 125.99711,95.324429 c -1.84898,2.483239 7.53661,2.420605 11.59076,2.965096 4.01289,0.538956 3.93316,2.791475 7.17523,3.335745"
         id="path3212" />
      <path
         style="fill:#ffffff;fill-opacity:1;fill-rule:evenodd;stroke:#ffffff;stroke-width:0.915257px;stroke-linecap:butt;stroke-linejoin:miter;stroke-opacity:1"
         d="m 104.2996,62.953195 c 0.0103,0.681701 0.20785,5.522338 -0.45014,8.269589 -0.73791,3.080954 -0.90029,6.328414 -0.90029,9.397262 0,2.611364 -0.9003,4.061968 -0.9003,6.766026 0,2.157752 -0.34201,3.77363 -0.90028,5.638353 -0.4605,1.538154 0.64171,1.610743 4.50145,2.255356 3.36152,0.561403 7.98714,0.751777 11.25364,0.751777 2.15652,0 4.77202,0.375888 7.20232,0.375888 3.82577,0 3.15102,-1.784866 3.15102,-4.510687 0,-3.158239 0.90029,-6.173602 0.90029,-9.397262 0,-2.396685 -0.1378,-5.032321 0.9003,-6.766029 1.36192,-2.274525 2.13817,-7.04785 2.70087,-9.397259 0.5601,-2.33856 0.23324,-4.368021 -2.25073,-4.886575 -3.72763,-0.778182 -9.18716,0 -13.05421,0 -4.69035,0 -7.74329,0.766946 -12.15394,1.503561 z"
         id="path3214" />
      <path
         style="fill:none;fill-rule:evenodd;stroke:#ffffff;stroke-width:0.915257px;stroke-linecap:butt;stroke-linejoin:miter;stroke-opacity:1"
         d="m 131.36201,62.422047 c 0.57933,-0.640111 1.07577,-1.865619 1.35277,-2.790845 0.5066,-1.692144 1.973,-3.06837 2.46683,-4.717855 0.34481,-1.151698 1.09527,-2.262928 1.43236,-3.388881 0.24149,-0.806643 0.55905,-1.53508 0.79575,-2.325703 0.20888,-0.697687 0.57876,-1.431716 0.9549,-2.059908 0.30072,-0.502225 0.34729,-1.051311 0.47745,-1.594768 0.0921,-0.384429 0.15178,-0.718626 0.3183,-0.99673 0.18315,-0.305857 0.44941,-0.863008 0.51724,-1.14624 0.0309,-0.129039 0.13908,-0.348416 0.15916,-0.398692"
         id="path3216"
         sodipodi:nodetypes="cssssssssc" />
      <text
         xml:space="preserve"
         style="font-weight:bold;font-size:16px;font-family:Calibri;-inkscape-font-specification:'Calibri Bold';text-align:center;text-anchor:middle;fill:#ffffff;stroke-width:1.33333;stroke-linecap:round;stroke-miterlimit:3;paint-order:stroke fill markers"
         x="116.24533"
         y="83.807037"
         id="text9834"><tspan
           sodipodi:role="line"
           id="tspan9832"
           x="116.24533"
           y="83.807037"
           style="fill:#000000">B</tspan></text>
    </g>
  </g>
  <g
     id="g10378"
     transform="translate(-0.34894922,-8.5009537)">
    <path
       id="path2279"
       style="fill:#000000"
       d="m 197.60352,10.398438 c -3.89423,0.147932 -5.59725,1.759149 -8.73047,6.505859 -4.13511,6.264503 -4.25077,8.716849 -0.86524,18.261719 0.89292,2.517421 1.36076,5.263227 1.03907,6.101562 -0.76558,1.995066 -14.08682,10.751495 -19.4668,12.796875 -2.31222,0.879065 -4.42338,1.81791 -4.69141,2.085938 -1.03321,1.033211 -4.61616,20.824342 -5.14844,28.4375 -0.30763,4.399995 -0.81501,10.561255 -1.12695,13.691406 -0.51962,5.214203 -0.26124,6.236803 3.07422,12.201173 2.00232,3.58048 -0.16727,20.25872 -0.30273,23.81641 -0.15896,4.17479 -1.17673,6.39402 -1.10743,8.04296 0.0584,1.39093 0.69473,4.80039 0.64063,20.60157 h 67.50781 c -0.0651,-0.57833 -0.13069,-1.60274 -0.19336,-2.04493 -0.52159,-3.68035 -0.94726,-12.55464 -0.94726,-19.72265 v -13.03321 l 2.8789,-1.48828 c 2.85502,-1.47638 4.1211,-3.37721 4.1211,-6.18554 0,-0.80229 0.90741,-2.68788 2.01757,-4.18946 1.11016,-1.50156 2.21395,-4.07033 2.45313,-5.70898 0.23917,-1.63865 0.94786,-5.68047 1.57422,-8.98047 1.33654,-7.04164 1.38101,-9.598569 0.17969,-10.408202 -3.15279,-2.124807 -6.19466,-12.376262 -7.17774,-24.1875 -0.69358,-8.333018 -0.83477,-8.707233 -4.63086,-12.294922 -4.56304,-4.312536 -8.76012,-6.609375 -12.08398,-6.609375 -3.44668,0 -6.32313,-5.249294 -6.32813,-11.548829 -0.002,-2.777497 0.47108,-5.525769 1.05274,-6.107421 1.35795,-1.357948 2.40354,-11.368079 1.54492,-14.789063 -0.75722,-3.017028 -3.14557,-4.145052 -10.52539,-4.966797 -1.91959,-0.213747 -3.45974,-0.326654 -4.75781,-0.277343 z" />
    <path
       id="path2411"
       style="fill:#000000"
       d="m 274.98828,9.0234375 c -1.20512,-0.00226 -1.28192,0.012311 -2.13476,0.4296875 -5.45226,2.668294 -10.39101,13.752503 -11.65821,26.162109 -0.15264,1.494831 -0.2463,2.934329 -0.40234,6.144532 -0.1531,3.150236 -0.20515,3.934385 -0.34961,5.333984 -0.23154,2.242895 -0.5518,3.42289 -1.18164,4.345703 -0.4562,0.668403 -0.90861,1.011277 -2.47266,1.875 -0.86742,0.479028 -1.50513,0.964087 -2.19531,1.667969 -3.86397,3.94059 -5.10573,8.306374 -7.0332,24.746094 -1.18184,10.080023 -1.87923,20.019948 -1.77344,25.259764 0.039,1.93438 0.0875,2.42183 0.38867,3.84375 1.56123,7.36945 2.21805,18.82384 1.88477,32.86914 -0.17564,7.40058 -0.62553,14.62614 -1.26758,21.24024 h 22.11914 c 3.50913,-9.48418 6.59899,-16.98829 7.70508,-18.43164 0.22005,-0.28714 0.6215,-0.56757 0.88086,-0.61524 0.41755,-0.0768 0.82327,0.33216 1.0625,1.07422 0.444,1.37738 0.5109,3.03944 0.54883,13.78125 0.004,1.24742 -0.0204,2.86192 -0.0215,4.19141 h 20.14844 c 0.45698,-1.4561 0.94117,-2.92377 1.47656,-4.40039 0.87962,-2.42593 1.58787,-4.20092 2.75,-6.88672 1.12973,-2.61099 1.54965,-3.72424 1.85742,-4.9336 0.41685,-1.63808 0.52378,-2.41176 0.94336,-6.74218 0.33834,-3.49182 0.51209,-3.55029 1.74024,-0.5879 0.88204,2.12757 1.36241,2.82953 1.98632,2.89844 0.67723,0.0748 1.14219,-0.76437 1.45704,-2.62695 0.1353,-0.8004 0.13697,-3.63524 0.002,-4.68164 -0.18759,-1.45563 -0.39846,-2.48921 -0.86328,-4.23633 -0.79659,-2.99411 -1.1629,-9.00406 -0.87891,-14.4082 0.0287,-0.5465 0.11075,-1.71062 0.18359,-2.58789 0.31861,-3.83655 0.3264,-6.6821 0.0234,-10.25 -0.36238,-4.268721 -1.07258,-8.01031 -2.3457,-12.369144 -1.36427,-4.670955 -2.4386,-10.211878 -3.03906,-15.664062 -0.19725,-1.790861 -0.26833,-3.024221 -0.375,-6.5625 -0.0295,-0.97797 -0.0888,-2.142052 -0.13282,-2.587891 -0.30264,-3.062868 -0.85684,-5.363732 -1.70703,-7.087891 -0.51011,-1.03444 -0.79476,-1.370442 -2.17383,-2.572265 -1.47136,-1.28228 -3.17013,-2.734286 -4.95312,-4.234375 -1.46065,-1.228898 -1.9948,-1.786113 -2.46875,-2.570313 -0.67871,-1.123016 -0.94608,-2.215207 -0.94727,-3.878906 -10e-4,-1.468094 0.16868,-2.58844 0.77344,-5.099609 1.32977,-5.521418 1.91016,-9.302766 1.98438,-12.917969 0.0349,-1.699189 -0.0195,-2.816505 -0.20118,-4.105469 -0.60541,-4.296992 -2.46808,-7.427816 -5.90039,-9.916015 -2.98274,-2.16233 -7.68707,-4.1057488 -11.51757,-4.759766 -0.7377,-0.1259554 -0.99976,-0.1467111 -1.92188,-0.1484375 z m -15.0293,77.2167965 c 0.4324,-0.03955 0.79982,0.263069 1.10547,0.91211 0.41178,0.87431 0.60976,2.163242 0.61524,3.990234 0.004,1.363613 -0.1242,2.321113 -0.51172,3.802734 -1.08139,4.134678 -3.39241,8.280298 -4.61914,8.289068 -0.0734,5.1e-4 -0.20915,-0.0437 -0.30274,-0.0996 -0.31919,-0.19073 -0.41587,-0.89362 -0.37304,-2.69727 0.0518,-2.183916 0.37653,-5.133105 0.83984,-7.609375 0.62149,-3.321705 1.7077,-5.824721 2.79102,-6.433594 0.15894,-0.08934 0.31094,-0.141115 0.45507,-0.154297 z m 35.75391,0.761719 c 0.13533,0.0055 0.2597,0.03638 0.36719,0.0918 0.74792,0.385588 1.35437,1.832527 1.625,3.878906 0.099,0.748513 0.0806,3.45202 -0.0293,4.347656 -0.11985,0.976861 -0.31649,1.429688 -0.62305,1.429688 -0.0478,0 -0.18263,-0.06595 -0.29882,-0.148438 -0.36366,-0.258156 -1.01596,-1.139367 -1.55469,-2.101562 -0.56782,-1.014134 -1.23189,-2.755836 -1.45703,-3.816406 -0.29409,-1.385086 -0.0648,-2.450533 0.67773,-3.138672 0.38819,-0.359773 0.88697,-0.559429 1.29297,-0.542969 z" />
    <g
       id="g9919">
      <path
         style="fill:none;fill-rule:evenodd;stroke:#ffffff;stroke-width:0.809992px;stroke-linecap:butt;stroke-linejoin:miter;stroke-opacity:1"
         d="m 172.15748,52.412746 c 3.62304,0.259042 7.20252,3.02259 9.80332,4.758373 0.4456,0.297396 0.8912,0.594799 1.33682,0.892196 1.82883,1.220565 4.36798,2.052397 6.23847,2.676584 0.18789,0.0627 0.29709,0.198268 0.44561,0.297402"
         id="path3198" />
      <path
         style="fill:none;fill-rule:evenodd;stroke:#ffffff;stroke-width:1.09302px;stroke-linecap:butt;stroke-linejoin:miter;stroke-opacity:1"
         d="m 187.38012,97.920962 c 1.02561,-0.800758 -8.01182,2.240658 -10.91326,5.638628 -0.39457,0.4621 -1.71189,0.25061 -2.56782,0.37591"
         id="path3200" />
      <path
         style="fill:none;fill-rule:evenodd;stroke:#ffffff;stroke-width:1.02307px;stroke-linecap:butt;stroke-linejoin:miter;stroke-opacity:1"
         d="m 209.63004,97.853531 c -1.58063,3.002059 6.44281,2.926339 9.90857,3.584589 3.43049,0.65156 3.36233,3.37469 6.13387,4.03268"
         id="path3202" />
      <path
         style="fill:#ffffff;fill-opacity:1;fill-rule:evenodd;stroke:#ffffff;stroke-width:1px;stroke-linecap:butt;stroke-linejoin:miter;stroke-opacity:1"
         d="m 190.48815,60.591996 c 0.0103,0.81508 0.20752,6.60277 -0.44943,9.88751 -0.73674,3.68374 -0.89886,7.56655 -0.89886,11.23581 0,3.12227 -0.89887,4.85668 -0.89887,8.08978 0,2.57991 -0.34147,4.51193 -0.89886,6.74148 -0.45977,1.83908 0.6407,1.92587 4.49432,2.6966 3.3562,0.67124 7.97449,0.898864 11.23581,0.898864 2.1531,0 4.76446,0.44943 7.19091,0.44943 3.81971,0 3.14603,-2.134074 3.14603,-5.393184 0,-3.77614 0.89886,-7.38145 0.89886,-11.23581 0,-2.86559 -0.13758,-6.01688 0.89887,-8.08978 1.35976,-2.71953 2.13478,-8.42674 2.69659,-11.23581 0.55922,-2.79609 0.23287,-5.22261 -2.24716,-5.84262 -3.72172,-0.93043 -9.1726,0 -13.03353,0 -4.68291,0 -7.73102,0.917 -12.13468,1.79773 z"
         id="path3204" />
      <path
         style="fill:none;fill-rule:evenodd;stroke:#ffffff;stroke-width:0.757517px;stroke-linecap:butt;stroke-linejoin:miter;stroke-opacity:1"
         d="m 216.33555,63.931436 c 0.59498,-0.426947 1.10485,-1.244346 1.38933,-1.861457 0.5203,-1.128638 2.02633,-2.046561 2.53351,-3.146743 0.35412,-0.768164 1.12486,-1.509339 1.47107,-2.260333 0.24802,-0.538025 0.57416,-1.02388 0.81726,-1.551216 0.21452,-0.465344 0.5944,-0.954931 0.98071,-1.373928 0.30884,-0.334975 0.35667,-0.701212 0.49035,-1.063688 0.0946,-0.256408 0.15588,-0.479312 0.32691,-0.664807 0.18809,-0.203998 0.46155,-0.575612 0.53122,-0.764521 0.0317,-0.08607 0.14284,-0.232393 0.16345,-0.265925"
         id="path3206"
         sodipodi:nodetypes="cssssssssc" />
      <text
         xml:space="preserve"
         style="font-weight:bold;font-size:16px;font-family:Calibri;-inkscape-font-specification:'Calibri Bold';text-align:center;text-anchor:middle;fill:#ffffff;stroke-width:1.33333;stroke-linecap:round;stroke-miterlimit:3;paint-order:stroke fill markers"
         x="202.57042"
         y="84.535889"
         id="text9888"><tspan
           sodipodi:role="line"
           id="tspan9886"
           x="202.57042"
           y="84.535889"
           style="fill:#000000">C</tspan></text>
    </g>
    <g
       id="g9928">
      <path
         style="fill:none;fill-rule:evenodd;stroke:#ffffff;stroke-width:0.858876px;stroke-linecap:butt;stroke-linejoin:miter;stroke-opacity:1"
         d="m 303.76971,54.843154 c -3.58541,0.294309 -7.12773,3.434106 -9.70151,5.406208 -0.441,0.337887 -0.88198,0.675781 -1.32295,1.013666 -1.80981,1.386742 -4.3226,2.331825 -6.17368,3.040992 -0.18592,0.07124 -0.294,0.225262 -0.44097,0.337893"
         id="path3188" />
      <path
         style="fill:none;fill-rule:evenodd;stroke:#ffffff;stroke-width:0.578507px;stroke-linecap:butt;stroke-linejoin:miter;stroke-opacity:1"
         d="m 288.67304,91.494988 c -0.55397,-0.415292 4.32751,1.162058 5.8947,2.92433 0.2131,0.239653 0.92463,0.129971 1.38699,0.194956"
         id="path3190" />
      <path
         style="fill:none;fill-rule:evenodd;stroke:#ffffff;stroke-width:0.671361px;stroke-linecap:butt;stroke-linejoin:miter;stroke-opacity:1"
         d="m 265.90329,92.305197 c 0.9183,2.225226 -3.743,2.169102 -5.75645,2.657019 -1.99297,0.482958 -1.95337,2.501434 -3.56352,2.989164"
         id="path3192" />
      <path
         style="fill:#ffffff;fill-opacity:1;fill-rule:evenodd;stroke:#ffffff;stroke-width:0.831591px;stroke-linecap:butt;stroke-linejoin:miter;stroke-opacity:1"
         d="m 286.54795,64.653681 c -0.01,0.584848 -0.2,4.737707 0.43315,7.094615 0.71007,2.643206 0.8663,5.429252 0.8663,8.062065 0,2.240332 0.8663,3.48483 0.8663,5.804688 0,1.851169 0.32911,3.237458 0.86629,4.837234 0.44315,1.3196 -0.61748,1.381875 -4.33151,1.934901 -3.23466,0.481636 -7.68565,0.64496 -10.82885,0.64496 -2.07511,0 -4.59188,0.322482 -6.93045,0.322482 -3.68134,0 -3.0321,-1.531266 -3.0321,-3.869786 0,-2.709503 -0.86631,-5.296435 -0.86631,-8.062066 0,-2.056156 0.13263,-4.317311 -0.86629,-5.804686 -1.31052,-1.951353 -2.05747,-6.046464 -2.59893,-8.062064 -0.53898,-2.006288 -0.22443,-3.747396 2.16578,-4.192274 3.58691,-0.667615 8.84036,0 12.56144,0 4.5133,0 7.45101,0.657978 11.69518,1.289931 z"
         id="path3194" />
      <path
         style="fill:none;fill-rule:evenodd;stroke:#ffffff;stroke-width:0.831591px;stroke-linecap:butt;stroke-linejoin:miter;stroke-opacity:1"
         d="m 260.50705,64.198005 c -0.55744,-0.549165 -1.03516,-1.60055 -1.30169,-2.394315 -0.48748,-1.45172 -1.89853,-2.632407 -2.37372,-4.047526 -0.3318,-0.988057 -1.05394,-1.941399 -1.37831,-2.907379 -0.23234,-0.692031 -0.53794,-1.316966 -0.76569,-1.995258 -0.20101,-0.59855 -0.55694,-1.228286 -0.91889,-1.767226 -0.28935,-0.430865 -0.33415,-0.90194 -0.4594,-1.368179 -0.0886,-0.329806 -0.14606,-0.616518 -0.30631,-0.855112 -0.17622,-0.262395 -0.43242,-0.740387 -0.49771,-0.983372 -0.0297,-0.110709 -0.13384,-0.298918 -0.15313,-0.342048"
         id="path3196"
         sodipodi:nodetypes="cssssssssc" />
      <text
         xml:space="preserve"
         style="font-weight:bold;font-size:16px;font-family:Calibri;-inkscape-font-specification:'Calibri Bold';text-align:center;text-anchor:middle;fill:#ffffff;stroke-width:1.33333;stroke-linecap:round;stroke-miterlimit:3;paint-order:stroke fill markers"
         x="274.52814"
         y="83.263115"
         id="text9892"><tspan
           sodipodi:role="line"
           id="tspan9890"
           x="274.52814"
           y="83.263115"
           style="fill:#000000">D</tspan></text>
    </g>
  </g>
</svg>
