<?xml version="1.0" encoding="UTF-8" standalone="no"?>
<!-- Created with Inkscape (http://www.inkscape.org/) -->
<svg
   xmlns:dc="http://purl.org/dc/elements/1.1/"
   xmlns:cc="http://creativecommons.org/ns#"
   xmlns:rdf="http://www.w3.org/1999/02/22-rdf-syntax-ns#"
   xmlns:svg="http://www.w3.org/2000/svg"
   xmlns="http://www.w3.org/2000/svg"
   xmlns:sodipodi="http://sodipodi.sourceforge.net/DTD/sodipodi-0.dtd"
   xmlns:inkscape="http://www.inkscape.org/namespaces/inkscape"
   id="svg2265"
   sodipodi:version="0.32"
   inkscape:version="0.46"
   width="341.63174"
   height="268.67719"
   sodipodi:docbase="C:\foo\wikipedia\transfer"
   sodipodi:docname="Line_Up.svg"
   version="1.0"
   inkscape:output_extension="org.inkscape.output.svg.inkscape">
  <metadata
     id="metadata2270">
    <rdf:RDF>
      <cc:Work
         rdf:about="">
        <dc:format>image/svg+xml</dc:format>
        <dc:type
           rdf:resource="http://purl.org/dc/dcmitype/StillImage" />
      </cc:Work>
    </rdf:RDF>
  </metadata>
  <defs
     id="defs2268">
    <inkscape:perspective
       sodipodi:type="inkscape:persp3d"
       inkscape:vp_x="0 : 121.875 : 1"
       inkscape:vp_y="0 : 1000 : 0"
       inkscape:vp_z="83.75 : 121.875 : 1"
       inkscape:persp3d-origin="41.875 : 81.25 : 1"
       id="perspective7" />
    <inkscape:perspective
       id="perspective2387"
       inkscape:persp3d-origin="372.04724 : 350.78739 : 1"
       inkscape:vp_z="744.09448 : 526.18109 : 1"
       inkscape:vp_y="0 : 1000 : 0"
       inkscape:vp_x="0 : 526.18109 : 1"
       sodipodi:type="inkscape:persp3d" />
    <inkscape:perspective
       id="perspective2400"
       inkscape:persp3d-origin="372.04724 : 350.78739 : 1"
       inkscape:vp_z="744.09448 : 526.18109 : 1"
       inkscape:vp_y="0 : 1000 : 0"
       inkscape:vp_x="0 : 526.18109 : 1"
       sodipodi:type="inkscape:persp3d" />
    <inkscape:perspective
       id="perspective3229"
       inkscape:persp3d-origin="372.04724 : 350.78739 : 1"
       inkscape:vp_z="744.09448 : 526.18109 : 1"
       inkscape:vp_y="0 : 1000 : 0"
       inkscape:vp_x="0 : 526.18109 : 1"
       sodipodi:type="inkscape:persp3d" />
    <inkscape:perspective
       id="perspective3264"
       inkscape:persp3d-origin="372.04724 : 350.78739 : 1"
       inkscape:vp_z="744.09448 : 526.18109 : 1"
       inkscape:vp_y="0 : 1000 : 0"
       inkscape:vp_x="0 : 526.18109 : 1"
       sodipodi:type="inkscape:persp3d" />
    <inkscape:perspective
       id="perspective3279"
       inkscape:persp3d-origin="372.04724 : 350.78739 : 1"
       inkscape:vp_z="744.09448 : 526.18109 : 1"
       inkscape:vp_y="0 : 1000 : 0"
       inkscape:vp_x="0 : 526.18109 : 1"
       sodipodi:type="inkscape:persp3d" />
    <inkscape:perspective
       id="perspective3294"
       inkscape:persp3d-origin="372.04724 : 350.78739 : 1"
       inkscape:vp_z="744.09448 : 526.18109 : 1"
       inkscape:vp_y="0 : 1000 : 0"
       inkscape:vp_x="0 : 526.18109 : 1"
       sodipodi:type="inkscape:persp3d" />
  </defs>
  <sodipodi:namedview
     inkscape:window-height="540"
     inkscape:window-width="812"
     inkscape:pageshadow="2"
     inkscape:pageopacity="0.0"
     borderopacity="1.0"
     bordercolor="#666666"
     pagecolor="#ffffff"
     id="base"
     inkscape:zoom="1.1298716"
     inkscape:cx="61.124515"
     inkscape:cy="116.53524"
     inkscape:window-x="66"
     inkscape:window-y="66"
     inkscape:current-layer="svg2265"
     showgrid="false" />
  <path
     style="fill:#000000"
     d="M 162.91772,197.33181 L 160.71662,196.15382 L 160.92321,164.49053 C 161.03682,147.07572 160.33706,143.78323 160.2764,142.33959 C 160.2071,140.69064 161.22579,138.47245 161.38475,134.29765 C 161.52021,130.73996 163.68981,114.06159 161.68749,110.48111 C 158.35203,104.51674 158.09444,103.49416 158.61406,98.27995 C 158.926,95.149796 159.43291,88.98876 159.74054,84.58876 C 160.27282,76.975595 163.85622,57.184022 164.88943,56.15081 C 165.15746,55.882782 167.26857,54.944251 169.58079,54.065185 C 174.96078,52.019803 188.28097,43.262347 189.04655,41.267279 C 189.36825,40.428943 188.90089,37.68332 188.00797,35.165896 C 184.62243,25.621017 184.73869,23.168864 188.8738,16.904355 C 193.05144,10.575402 194.68374,9.8217615 202.36212,10.676751 C 209.74195,11.498497 212.13039,12.62528 212.88761,15.642311 C 213.74623,19.063298 212.70032,29.07326 211.34237,30.431209 C 210.76071,31.012862 210.2865,33.76126 210.28855,36.53876 C 210.29322,42.838301 213.1698,48.08876 216.61648,48.08876 C 219.94035,48.08876 224.13757,50.38379 228.70062,54.69633 C 232.49671,58.284023 232.63829,58.659933 233.33187,66.992959 C 234.31495,78.804209 237.35681,89.053928 240.5096,91.178737 C 241.71093,91.988371 241.66687,94.547112 240.33033,101.58876 C 239.70397,104.88876 238.99581,108.92948 238.75664,110.56813 C 238.51746,112.20678 237.41346,114.77606 236.3033,116.27763 C 235.19313,117.77921 234.28482,119.66419 234.28482,120.46648 C 234.28482,123.27482 233.01866,125.17504 230.16364,126.65143 L 227.28482,128.14012 L 227.28482,141.17289 C 227.28482,148.34091 227.71158,157.21685 228.23317,160.89721 C 228.75476,164.57756 229.38997,173.38463 229.64474,180.46846 C 230.08979,192.84316 230.01946,193.4313 227.85087,195.46846 C 224.92155,198.22027 223.81417,205.41662 224.16983,219.38994 C 224.35761,226.76757 224.05922,230.65566 223.22842,231.65672 C 222.55944,232.46279 222.01209,234.98092 222.01209,237.25257 C 222.01209,240.87348 222.52221,241.80657 226.14845,244.81874 C 232.93616,250.45698 232.11059,251.08876 217.95511,251.08876 L 205.62541,251.08876 L 206.63137,245.53884 C 207.39975,241.29964 207.3043,238.76081 206.22719,234.78884 C 205.29868,231.36479 204.81155,224.22689 204.80094,213.88959 C 204.79048,203.70808 204.39333,197.79864 203.67095,197.07572 C 202.9269,196.33112 201.43285,196.25153 199.17095,196.83602 L 195.78482,197.71101 C 195.41807,201.73031 189.98934,207.17833 188.98718,210.61184 C 181.03798,220.90281 175.96068,239.91708 170.72273,246.2539 C 169.03552,248.29507 174.83422,250.1471 168.14418,251.47034 C 132.99382,258.42282 150.11519,240.96967 157.97027,238.29373 C 169.55749,234.34638 165.92457,201.58655 162.91772,197.33181 z"
     id="path2279"
     sodipodi:nodetypes="cccsssssssssssssssssssssscccssssssscccssscccsssc" />
  <path
     style="fill:#000000"
     d="M 79.852394,258.87098 C 79.507741,258.70207 78.991834,258.42031 78.705933,258.24485 C 78.166936,257.91407 77.046984,257.07037 77.046984,256.99509 C 77.046984,256.97148 77.386219,256.70738 77.800838,256.4082 C 78.754868,255.7198 79.328771,255.17226 80.007486,254.30289 C 82.085968,251.64055 82.283139,248.29809 80.63299,243.69942 C 80.114534,242.25458 79.761044,241.4076 78.460048,238.49295 C 76.745498,234.65182 76.002039,232.65627 75.657308,230.97002 C 75.551524,230.45257 75.229461,229.86335 71.74261,223.80798 C 66.442913,214.60436 64.555542,211.08441 62.470483,206.51541 C 61.454892,204.28994 61.298598,203.88486 61.298598,203.47816 C 61.298598,202.9078 61.076254,201.71009 60.839598,201.00563 C 59.292781,196.40123 54.183808,193.58875 46.163785,192.92663 C 44.503861,192.78958 40.726636,192.82967 39.087236,193.00173 C 36.120326,193.31311 32.962156,193.99847 31.430846,194.66326 L 30.951316,194.87144 L 30.928786,197.31626 C 30.916396,198.66091 30.935666,204.93764 30.971606,211.26455 C 31.067126,228.07994 30.905246,236.54454 30.333996,244.60328 C 30.218846,246.22773 30.214756,246.25018 29.963816,246.63258 C 28.088976,249.48957 22.459976,252.95629 18.103026,253.93727 C 16.977946,254.19059 15.378096,254.25679 14.581376,254.08302 C 13.454336,253.83719 12.573596,253.27136 12.095436,252.48593 L 11.858156,252.09617 L 12.460096,251.36291 C 13.301336,250.33815 14.262636,249.24316 16.254006,247.04141 C 19.606096,243.33517 21.193816,241.41122 22.437586,239.54832 C 25.541436,234.89942 26.271056,230.97177 24.770566,226.98948 C 24.610176,226.56382 24.370036,226.04141 24.236926,225.82858 C 22.461886,222.99056 21.765416,221.22821 21.175056,218.08082 C 20.889676,216.55934 20.761996,215.50292 20.474556,212.28473 C 20.081786,207.88725 19.795706,205.9704 19.242366,204.02856 C 18.464946,201.30033 17.378576,199.25722 15.607756,197.19302 C 14.770486,196.21704 13.903156,194.59452 13.062846,192.43226 C 12.249706,190.33989 11.720456,188.29614 11.357606,185.84733 C 10.895396,182.72796 10.822696,181.24094 10.735916,173.13071 C 10.685556,168.42389 10.622066,165.56967 10.549686,164.75815 C 10.378056,162.83412 10.513036,148.06259 10.745766,143.29907 C 11.091946,136.21334 11.891666,131.30306 13.725276,125.00487 C 14.144206,123.56593 14.366746,122.85574 16.006746,117.72407 C 18.207516,110.83776 19.066276,106.83662 18.986896,103.83891 L 18.962026,102.89955 L 18.103026,102.62103 C 17.630576,102.46784 16.286846,102.03978 15.116966,101.66978 C 9.9376656,100.03173 7.1689556,98.940561 4.8089256,97.607301 C 2.5962556,96.357291 1.2356756,95.071291 0.61272562,93.641091 C 0.3329756,92.998821 0.2612756,91.611861 0.46969562,90.874371 C 0.83605562,89.578046 1.7855056,88.19751 3.2638656,86.811535 L 3.8164456,86.293491 L 4.0429556,85.298845 C 4.1675356,84.751794 4.5124956,83.06943 4.8095456,81.560259 C 5.8892956,76.074487 6.5089756,73.953322 7.7179956,71.604654 C 9.6568956,67.83809 12.755466,65.626396 17.172056,64.85653 C 17.616596,64.779041 18.238006,64.69469 18.552976,64.669083 C 19.221926,64.614696 19.522966,64.47257 20.722896,63.644632 C 23.442616,61.768063 24.652916,59.704817 24.652916,56.945011 C 24.652916,55.004789 24.316626,53.710005 22.713576,49.478253 C 21.513156,46.309391 21.079216,44.853154 20.837596,43.182844 C 20.468196,40.629187 20.988676,38.269083 22.350346,36.323311 C 22.686896,35.842397 22.792386,35.603537 22.971406,34.9171 C 23.763686,31.879059 25.670276,29.048992 28.544366,26.644813 C 33.531226,22.47329 39.840456,20.991727 44.385909,22.924824 C 45.385449,23.349909 45.975052,23.725357 46.903985,24.528286 C 48.297727,25.732976 49.251331,27.137614 50.021185,29.119853 C 50.422763,30.153847 50.439535,30.230902 50.705779,32.265051 C 51.318613,36.947204 51.954254,40.280621 53.818568,48.589075 L 54.677042,52.414933 L 54.238897,52.810533 C 53.228286,53.723009 52.313437,54.981063 52.011981,55.872874 C 51.794074,56.517519 51.865607,57.37761 52.185174,57.955273 C 52.894752,59.237938 54.694848,60.245589 58.026206,61.224943 C 59.414422,61.633051 60.133253,61.812545 63.384748,62.562979 C 66.554058,63.294446 67.686006,63.581134 68.866005,63.951216 C 69.889455,64.272199 71.065164,64.759793 71.575111,65.074744 L 71.921254,65.288528 L 72.531344,64.893639 C 72.866892,64.676449 73.467965,64.203686 73.867061,63.843056 C 75.56027,62.313037 76.76802,60.506058 78.789882,56.477762 C 80.396477,53.27683 80.867694,52.440464 81.822356,51.095403 C 83.172084,49.193713 84.759587,47.887402 86.618535,47.148744 C 87.791196,46.682786 89.531888,46.398943 91.0764,46.421829 L 91.859835,46.433437 L 92.552576,46.045939 C 92.933589,45.832815 94.589051,44.994487 96.231383,44.182987 C 101.05712,41.798526 102.51842,40.947099 104.01481,39.648018 C 106.64398,37.365518 106.49944,35.241695 103.5617,32.990378 C 103.24214,32.745486 102.45548,32.242604 101.81357,31.872864 C 100.52076,31.128199 99.90812,30.596389 98.998288,29.429001 C 97.248115,27.183378 96.519165,24.403522 96.921726,21.510018 C 97.337099,18.524374 98.84541,15.491202 101.10763,13.09223 C 101.92387,12.226643 103.47239,10.956623 104.41731,10.377773 C 105.35255,9.8048592 106.88952,9.1307772 107.88927,8.8550502 C 109.06596,8.5305252 109.60767,8.4754112 111.28438,8.5096272 C 112.63167,8.5371212 112.87871,8.5614152 113.53415,8.7308692 C 114.59988,9.0063982 115.94885,9.5977312 116.88936,10.201661 C 117.80374,10.788804 119.42994,12.196599 119.90539,12.812633 C 121.04729,14.292158 121.90898,16.311582 122.37069,18.590176 C 122.76192,20.52101 122.87585,21.987686 123.06533,27.533085 C 123.21375,31.876783 123.5587,34.080437 124.42891,36.244289 C 125.43443,38.744568 127.21544,40.772019 129.65223,42.190373 C 130.14633,42.477964 130.69784,42.81445 130.87783,42.938121 C 131.46624,43.342441 132.41808,43.859813 133.1685,44.18322 C 135.27275,45.090086 136.91131,45.530209 141.75853,46.490552 C 146.53907,47.437684 148.53996,48.045246 150.38822,49.110921 C 151.13788,49.543169 152.20168,50.445495 152.67649,51.051864 C 153.41277,51.992142 153.96101,53.270193 154.15896,54.507749 C 154.21351,54.848736 154.4584,55.635014 154.72872,56.337047 C 155.98126,59.589944 156.84953,62.699046 157.58108,66.550851 C 158.1415,69.501525 158.40214,71.308919 159.1419,77.37398 C 159.4133,79.59904 159.76336,82.330858 159.91981,83.444683 L 160.20428,85.469821 L 160.77968,86.219088 C 162.27628,88.16791 163.20312,90.244051 163.61545,92.571231 C 163.8109,93.674371 163.80898,96.183901 163.61171,97.461081 C 163.24433,99.839611 162.59952,102.06889 160.98649,106.53721 C 158.76716,112.68505 158.21977,114.65651 157.91943,117.58336 C 157.84347,118.32355 157.81278,118.41251 157.21539,119.62373 C 153.18353,127.79835 148.92314,137.19492 145.81111,144.77658 C 144.9746,146.8145 144.92329,146.97207 144.79146,147.9075 C 144.36986,150.89922 143.56891,155.31301 142.56994,160.14973 C 140.77179,168.85594 140.53899,170.03258 140.0083,173.09736 C 139.23534,177.56124 138.97416,179.80198 138.81527,183.33257 C 138.38449,192.9055 140.70026,198.76295 140.70003,207.71149 C 178.59882,298.74341 118.41811,238.33769 117.83839,185.79509 C 117.623,174.50076 117.2489,166.49063 116.54756,158.15621 L 116.4094,156.51448 L 115.99765,156.16772 C 114.88367,155.2296 114.11152,155.35879 113.5364,156.57953 C 113.2443,157.19955 112.95876,158.41068 112.59514,160.57187 C 112.17948,163.0425 111.91136,164.37249 111.65066,165.25697 C 111.13789,166.99667 110.4254,168.20045 109.61066,168.70365 C 109.31938,168.88354 109.25131,168.97046 109.21099,169.21389 C 109.18426,169.37526 109.05273,170.10885 108.9187,170.84409 C 108.27464,174.37713 107.85976,178.82604 107.72456,183.64918 C 107.69852,184.5779 107.66241,189.23206 107.64432,193.99175 C 107.61335,202.13199 107.56245,204.49736 107.35436,207.46524 C 107.11495,210.87982 106.6923,214.13587 106.12146,216.96352 C 105.70169,219.04282 105.69263,219.06967 105.18498,219.73944 C 103.92483,221.40207 103.09225,223.57322 102.74205,226.11001 C 102.53116,227.63777 102.50701,228.34959 102.49393,233.4272 C 102.48289,237.713 102.46156,238.51656 102.33707,239.33725 C 102.01605,241.45356 101.49177,243.04626 100.64718,244.47099 C 99.929112,245.68226 99.292165,246.41821 98.017397,247.50952 C 96.972612,248.40394 96.866055,248.52029 96.471004,249.1981 C 94.993159,251.73369 92.934939,254.42018 91.169753,256.11754 C 89.945502,257.29475 88.316612,258.42526 87.05634,258.97239 L 86.582489,259.1781 L 83.530763,259.1781 L 80.479034,259.1781 L 79.852394,258.87098 z M 85.258488,226.16278 C 86.02741,222.69001 86.517606,219.1544 86.777802,215.20458 C 86.845352,214.17911 86.920789,213.08681 86.94543,212.77724 C 87.000987,212.07921 87.159977,187.85672 87.130836,184.52865 C 87.103855,181.44592 87.10554,179.62196 87.144056,170.24605 C 87.175676,162.54923 87.138968,160.84997 86.859816,157.08917 C 86.598876,153.57366 86.144602,150.23215 85.530898,147.3139 L 85.304432,146.23705 L 84.448104,145.97564 C 82.175592,145.28192 80.225231,144.3507 78.315036,143.04734 C 76.701689,141.94651 74.547232,139.89801 73.215018,138.19815 C 69.847693,133.90153 67.622607,128.31787 66.902291,122.35689 C 66.777453,121.3238 66.778563,121.27398 66.938043,120.75034 C 67.780142,117.98535 67.460408,113.35764 66.201011,110.08279 C 64.326611,105.20874 61.15656,104.38931 57.60073,107.8597 L 57.026074,108.42055 L 57.081861,109.30818 C 57.296508,112.72343 57.78271,115.0357 59.702149,121.76964 C 60.881629,125.90759 61.198568,127.12186 61.538572,128.8054 C 62.452992,133.33318 62.501366,136.81891 61.697238,140.23852 C 61.407028,141.47265 61.405801,141.44733 61.870356,143.80896 C 62.297624,145.98104 62.823079,148.1847 64.003653,152.75561 C 66.371636,161.92391 66.969522,165.29899 67.077107,170.10533 L 67.125141,172.25124 L 67.517569,173.34178 C 68.874032,177.11135 69.515178,179.81622 70.827974,187.30777 C 71.167028,189.24261 71.573978,191.47471 71.732307,192.26799 C 72.611123,196.67114 73.695498,200.31904 74.963972,203.13949 C 76.037993,205.52757 76.368182,207.27087 76.802732,212.8476 C 77.114887,216.8536 77.368718,218.57993 77.912831,220.3975 C 78.955209,223.87951 81.023693,226.05526 84.287152,227.10238 C 84.624617,227.21066 84.924262,227.30078 84.953034,227.30267 C 84.981799,227.30455 85.119256,226.7916 85.258488,226.16278 z M 84.246247,126.55512 C 85.83123,126.08393 86.743115,124.90859 87.194844,122.75465 C 87.426439,121.65038 87.445108,118.71985 87.239308,115.77574 C 87.07163,113.37698 87.025056,110.74783 87.13797,110.05509 C 87.207876,109.62621 87.109696,103.79331 86.989338,101.22521 C 86.793035,97.036541 86.238586,94.773291 85.270023,94.207041 C 84.908644,93.995771 84.575801,94.008461 84.082627,94.252311 C 83.371553,94.603891 83.410952,94.470831 83.361752,96.687151 C 83.281104,100.32026 82.817005,102.4564 80.562885,109.56978 C 78.307434,116.68736 77.87916,118.67849 77.870706,122.08625 C 77.865622,124.13541 78.030151,125.58274 78.287945,125.75666 C 78.605266,125.97074 80.789087,126.56638 81.717076,126.69196 C 82.451929,126.79141 83.673791,126.7253 84.246247,126.55512 z M 147.59115,107.79598 C 147.82266,107.75616 147.85206,107.71519 148.00765,107.21553 C 148.27798,106.34741 148.42532,105.48468 148.50286,104.31586 C 148.57253,103.26587 148.5857,103.20726 148.81913,102.90871 C 149.81496,101.63508 150.6034,99.730351 151.01585,97.601801 C 151.22871,96.503261 151.23102,93.783261 151.01984,92.923021 C 150.66379,91.472728 150.21949,90.616433 149.4606,89.917923 C 148.35895,88.903914 146.9451,88.720028 145.05551,89.345 C 144.68329,89.468112 144.40855,89.602172 144.3839,89.672719 C 144.18071,90.25419 143.48472,94.545621 143.25769,96.616791 C 143.08913,98.154511 143.11249,102.10138 143.29633,103.14604 C 143.70576,105.47257 144.53924,106.95879 145.73461,107.49388 C 146.30768,107.7504 147.10337,107.87988 147.59115,107.79598 z"
     id="path2413"
     sodipodi:nodetypes="cssssssssssssscccssssscccssssssssssssssscccsssscccssssssssssssssscccssssscccsssscccsssssssssssssssssssssssssscccsssssssssscccccssssssssssssssssssccccccssssscccssssscccssssscccsssssssccsssssssssssccsssssssssssc" />
  <path
     style="fill:#000000"
     d="M 225.83629,250.82828 C 228.64138,250.0004 234.35003,245.35553 237.89758,241.01457 C 239.41697,239.1554 240.5821,237.39314 241.4245,235.68018 C 242.17197,234.16031 242.48649,233.11755 242.56818,231.8886 C 242.64183,230.78088 242.78924,230.04564 243.23396,228.56769 C 244.32577,224.93922 246.43666,220.00622 249.07481,214.91794 C 252.61372,208.09238 252.88946,207.54506 254.14873,204.84736 C 256.70972,199.36098 258.58057,194.64828 259.37931,191.67156 C 260.64688,186.94765 262.11559,182.24554 264.4678,175.38078 C 269.58646,160.44248 275.0543,146.54896 276.61745,144.50919 C 276.8375,144.22205 277.23954,143.94126 277.4989,143.89359 C 277.91645,143.81682 278.32132,144.22696 278.56055,144.96902 C 279.00455,146.3464 279.07065,148.00825 279.10858,158.75007 C 279.18703,180.97345 278.36394,217.4156 277.60063,225.51574 C 277.52045,226.36665 277.50273,226.49518 277.35838,227.27332 C 277.30257,227.57421 277.30091,227.73908 277.35039,228.07189 C 277.66277,230.17198 280.07737,233.86936 283.83888,238.00745 C 284.70612,238.9615 287.46721,241.66071 288.35694,242.42425 C 290.61697,244.36373 292.61256,245.69288 294.01398,246.19205 C 294.29525,246.29224 294.55902,246.34267 294.9013,246.36165 C 295.57458,246.39901 295.83917,246.27908 296.47483,245.64843 C 296.87226,245.2541 296.97932,245.10776 297.21,244.6435 C 297.63248,243.79324 297.72022,243.36388 297.72175,242.13898 C 297.72284,241.27581 297.704,241.02681 297.59903,240.51774 C 297.31408,239.13595 296.65502,237.61577 295.78482,236.33316 C 295.16637,235.42158 294.65542,234.83335 293.55962,233.77132 C 292.19708,232.45078 291.61748,231.6998 290.99647,230.45041 C 289.98575,228.41686 289.56248,226.22102 289.56498,223.02411 C 289.56834,218.72368 290.35579,213.80232 292.43099,205.1121 C 293.1924,201.92367 293.53304,200.28011 294.04075,197.34587 C 295.05608,191.47766 295.55256,186.8977 295.66782,182.33639 C 295.72807,179.95256 295.79644,178.98166 296.04527,176.97585 C 296.72978,171.45828 298.35092,165.05569 300.71305,158.54085 C 301.59267,156.11492 302.30132,154.34064 303.46345,151.65483 C 304.59318,149.04384 305.01196,147.93092 305.31973,146.72156 C 305.73658,145.08348 305.84504,144.30942 306.26462,139.97899 C 306.60296,136.48717 306.77551,136.42884 308.00366,139.39124 C 308.8857,141.51881 309.36624,142.21972 309.99015,142.28863 C 310.66738,142.36342 311.13326,141.52393 311.44811,139.66135 C 311.58341,138.86095 311.58413,136.02709 311.44929,134.98069 C 311.2617,133.52506 311.05121,132.49168 310.58639,130.74456 C 309.7898,127.75045 309.42298,121.74064 309.70697,116.33649 C 309.73569,115.78999 309.81879,114.62505 309.89164,113.74778 C 310.21025,109.91123 310.2163,107.06529 309.91338,103.49738 C 309.551,99.228658 308.84185,95.487779 307.56873,91.128941 C 306.20446,86.457981 305.12923,80.917927 304.52877,75.465737 C 304.33152,73.674874 304.26113,72.44064 304.15446,68.902357 C 304.12498,67.924386 304.06483,66.759452 304.02079,66.313613 C 303.71815,63.250742 303.16443,60.951414 302.31424,59.227254 C 301.80413,58.192812 301.52049,57.85706 300.14142,56.655236 C 298.67005,55.372955 296.97105,53.920351 295.18806,52.42026 C 293.72741,51.191361 293.19207,50.634291 292.71812,49.850091 C 292.03941,48.727074 291.77261,47.633451 291.77142,45.96975 C 291.77039,44.501654 291.94025,43.382074 292.54501,40.870902 C 293.87478,35.349479 294.4558,31.568348 294.53002,27.953141 C 294.56491,26.25395 294.51007,25.136725 294.32845,23.84776 C 293.72303,19.550763 291.86042,16.420675 288.42811,13.932473 C 285.44536,11.770141 280.74001,9.8251266 276.9095,9.1711087 C 276.1718,9.0451532 275.91038,9.0250448 274.98826,9.0233184 C 273.78314,9.0210623 273.70719,9.0363841 272.85434,9.4537616 C 267.40208,12.122058 262.46289,23.205157 261.19569,35.614776 C 261.04305,37.109608 260.9486,38.549567 260.79256,41.759773 C 260.63946,44.910013 260.58815,45.694554 260.44369,47.094154 C 260.21215,49.337051 259.89113,50.516768 259.26129,51.439582 C 258.80509,52.107986 258.3538,52.450234 256.78975,53.313958 C 255.92233,53.792986 255.28348,54.278126 254.5933,54.982009 C 250.72933,58.922603 249.48873,63.288276 247.56125,79.728012 C 246.37941,89.808045 245.68123,99.748038 245.78702,104.98786 C 245.82606,106.92224 245.87549,107.40984 246.17673,108.83176 C 247.73796,116.20122 248.39475,127.65565 248.06147,141.70097 C 247.63825,159.53376 245.69016,176.57734 243.04019,185.63116 C 242.71472,186.74308 242.2991,187.93489 241.87292,188.97821 C 240.39316,192.60079 238.83495,198.66074 237.7674,204.94458 C 237.51488,206.4309 237.36664,207.45372 237.04189,209.94965 C 235.54965,221.41862 233.89665,227.09918 230.62741,231.99318 C 229.57579,233.56747 228.42999,234.97004 226.61749,236.90177 C 225.39506,238.2046 224.75209,238.97808 224.13521,239.88787 C 223.03103,241.5164 222.33834,243.05019 221.98485,244.64927 C 221.82003,245.39505 221.76083,246.61868 221.85807,247.27044 C 222.09509,248.859 222.89651,249.98618 224.26179,250.65124 C 224.70237,250.86586 224.8175,250.89975 225.14236,250.91047 C 225.38254,250.91839 225.63048,250.88903 225.83629,250.82828 z M 256.246,103.13382 C 255.92681,102.94309 255.82958,102.24161 255.87241,100.43796 C 255.92424,98.254042 256.25027,95.304894 256.71358,92.828622 C 257.33507,89.506914 258.42112,87.002904 259.50444,86.394031 C 260.14023,86.03669 260.65603,86.287865 261.06357,87.153253 C 261.47535,88.027564 261.67426,89.315435 261.67974,91.142429 C 261.68383,92.506043 261.55481,93.463471 261.16729,94.945094 C 260.0859,99.079776 257.77633,103.22577 256.5496,103.23454 C 256.4762,103.23506 256.33959,103.18975 256.246,103.13382 z M 296.75395,96.600991 C 296.39029,96.342834 295.73853,95.461437 295.1998,94.499241 C 294.63198,93.485106 293.96688,91.74498 293.74174,90.684409 C 293.44765,89.299322 293.67825,88.233252 294.42076,87.545112 C 294.93834,87.065415 295.65071,86.871411 296.08065,87.093064 C 296.82857,87.478652 297.4346,88.925666 297.70523,90.972047 C 297.80419,91.72056 297.78628,94.425108 297.67641,95.320745 C 297.55656,96.297606 297.35863,96.750958 297.05207,96.750958 C 297.0043,96.750958 296.87014,96.683475 296.75395,96.600991 z"
     id="path2411" />
  <path
     style="fill:none;fill-rule:evenodd;stroke:#ffffff;stroke-width:1.03281057px;stroke-linecap:butt;stroke-linejoin:miter;stroke-opacity:1"
     d="M 6.8999604,70.918724 C 10.62012,71.328897 14.29555,75.704721 16.96606,78.453168 C 17.42361,78.924072 17.88116,79.394974 18.33871,79.865877 C 20.21656,81.798531 22.82378,83.11566 24.74441,84.104002 C 24.93733,84.203277 25.04945,84.417937 25.20196,84.574905"
     id="path2406" />
  <path
     style="fill:none;fill-rule:evenodd;stroke:#ffffff;stroke-width:1.14034593px;stroke-linecap:butt;stroke-linejoin:miter;stroke-opacity:1"
     d="M 22.3527,122.33751 C 23.1893,121.26899 15.81743,125.32741 13.45072,129.86162 C 13.12887,130.47824 12.05433,130.19603 11.35614,130.36323"
     id="path3180" />
  <path
     style="fill:none;fill-rule:evenodd;stroke:#ffffff;stroke-width:1.02307343px;stroke-linecap:butt;stroke-linejoin:miter;stroke-opacity:1"
     d="M 46.36289,123.25403 C 44.78226,126.25609 52.8057,126.18037 56.27146,126.83862 C 59.701956,127.49018 59.633793,130.21331 62.405336,130.8713"
     id="path3182" />
  <path
     style="fill:#ffffff;fill-opacity:1;fill-rule:evenodd;stroke:#ffffff;stroke-width:1px;stroke-linecap:butt;stroke-linejoin:miter;stroke-opacity:1"
     d="M 24.76893,84.59131 C 24.77923,85.406384 24.97645,91.194078 24.3195,94.47882 C 23.58276,98.162554 23.42064,102.04537 23.42064,105.71463 C 23.42064,108.8369 22.52177,110.57131 22.52177,113.80441 C 22.52177,116.38432 22.1803,118.31634 21.62291,120.54589 C 21.16314,122.38497 22.26361,122.47176 26.11723,123.24249 C 29.47343,123.91373 34.09172,124.14135 37.35304,124.14135 C 39.50614,124.14135 42.1175,124.59078 44.54395,124.59078 C 48.36366,124.59078 47.68998,122.45671 47.68998,119.1976 C 47.68998,115.42146 48.58884,111.81615 48.58884,107.96179 C 48.58884,105.0962 48.45126,101.94491 49.48771,99.872007 C 50.84747,97.152477 51.62249,91.445265 52.1843,88.636201 C 52.74352,85.840108 52.41717,83.413589 49.93714,82.793581 C 46.21542,81.86315 40.76454,82.793581 36.90361,82.793581 C 32.2207,82.793581 29.17259,83.710578 24.76893,84.59131 z"
     id="path3184" />
  <path
     style="fill:none;fill-rule:evenodd;stroke:#ffffff;stroke-width:1px;stroke-linecap:butt;stroke-linejoin:miter;stroke-opacity:1"
     d="M 51.78846,83.956244 C 52.36687,83.190897 52.86253,81.725622 53.13909,80.619379 C 53.64489,78.596171 55.10896,76.950691 55.60201,74.978489 C 55.94627,73.601464 56.69554,72.272825 57.0321,70.926583 C 57.27321,69.962122 57.59026,69.091169 57.82659,68.145862 C 58.03514,67.311675 58.404433,66.434035 58.779981,65.682939 C 59.080223,65.082455 59.126719,64.425942 59.256676,63.776159 C 59.348604,63.316518 59.408215,62.916936 59.574472,62.584422 C 59.757321,62.218725 60.023163,61.552569 60.090892,61.213924 C 60.121749,61.059639 60.229753,60.797341 60.249791,60.737229"
     id="path3186"
     sodipodi:nodetypes="cssssssssc" />
  <path
     style="fill:none;fill-rule:evenodd;stroke:#ffffff;stroke-width:0.85887635px;stroke-linecap:butt;stroke-linejoin:miter;stroke-opacity:1"
     d="M 303.76971,54.843154 C 300.1843,55.137463 296.64198,58.27726 294.0682,60.249362 C 293.6272,60.587249 293.18622,60.925143 292.74525,61.263028 C 290.93544,62.64977 288.42265,63.594853 286.57157,64.30402 C 286.38565,64.375258 286.27757,64.529282 286.1306,64.641913"
     id="path3188" />
  <path
     style="fill:none;fill-rule:evenodd;stroke:#ffffff;stroke-width:0.57850736px;stroke-linecap:butt;stroke-linejoin:miter;stroke-opacity:1"
     d="M 288.67304,91.494988 C 288.11907,91.079696 293.00055,92.657046 294.56774,94.419318 C 294.78084,94.658971 295.49237,94.549289 295.95473,94.614274"
     id="path3190" />
  <path
     style="fill:none;fill-rule:evenodd;stroke:#ffffff;stroke-width:0.67136121px;stroke-linecap:butt;stroke-linejoin:miter;stroke-opacity:1"
     d="M 265.90329,92.305197 C 266.82159,94.530423 262.16029,94.474299 260.14684,94.962216 C 258.15387,95.445174 258.19347,97.46365 256.58332,97.95138"
     id="path3192" />
  <path
     style="fill:#ffffff;fill-opacity:1;fill-rule:evenodd;stroke:#ffffff;stroke-width:0.83159131px;stroke-linecap:butt;stroke-linejoin:miter;stroke-opacity:1"
     d="M 286.54795,64.653681 C 286.53801,65.238529 286.34795,69.391388 286.9811,71.748296 C 287.69117,74.391502 287.8474,77.177548 287.8474,79.810361 C 287.8474,82.050693 288.7137,83.295191 288.7137,85.615049 C 288.7137,87.466218 289.04281,88.852507 289.57999,90.452283 C 290.02314,91.771883 288.96251,91.834158 285.24848,92.387184 C 282.01382,92.86882 277.56283,93.032144 274.41963,93.032144 C 272.34452,93.032144 269.82775,93.354626 267.48918,93.354626 C 263.80784,93.354626 264.45708,91.82336 264.45708,89.48484 C 264.45708,86.775337 263.59077,84.188405 263.59077,81.422774 C 263.59077,79.366618 263.7234,77.105463 262.72448,75.618088 C 261.41396,73.666735 260.66701,69.571624 260.12555,67.556024 C 259.58657,65.549736 259.90112,63.808628 262.29133,63.36375 C 265.87824,62.696135 271.13169,63.36375 274.85277,63.36375 C 279.36607,63.36375 282.30378,64.021728 286.54795,64.653681 z"
     id="path3194" />
  <path
     style="fill:none;fill-rule:evenodd;stroke:#ffffff;stroke-width:0.83159131px;stroke-linecap:butt;stroke-linejoin:miter;stroke-opacity:1"
     d="M 260.50705,64.198005 C 259.94961,63.64884 259.47189,62.597455 259.20536,61.80369 C 258.71788,60.35197 257.30683,59.171283 256.83164,57.756164 C 256.49984,56.768107 255.7777,55.814765 255.45333,54.848785 C 255.22099,54.156754 254.91539,53.531819 254.68764,52.853527 C 254.48663,52.254977 254.1307,51.625241 253.76875,51.086301 C 253.4794,50.655436 253.4346,50.184361 253.30935,49.718122 C 253.22075,49.388316 253.16329,49.101604 253.00304,48.86301 C 252.82682,48.600615 252.57062,48.122623 252.50533,47.879638 C 252.4756,47.768929 252.37149,47.58072 252.3522,47.53759"
     id="path3196"
     sodipodi:nodetypes="cssssssssc" />
  <path
     style="fill:none;fill-rule:evenodd;stroke:#ffffff;stroke-width:0.8099916px;stroke-linecap:butt;stroke-linejoin:miter;stroke-opacity:1"
     d="M 172.15748,52.412746 C 175.78052,52.671788 179.36,55.435336 181.9608,57.171119 C 182.4064,57.468515 182.852,57.765918 183.29762,58.063315 C 185.12645,59.28388 187.6656,60.115712 189.53609,60.739899 C 189.72398,60.802599 189.83318,60.938167 189.9817,61.037301"
     id="path3198" />
  <path
     style="fill:none;fill-rule:evenodd;stroke:#ffffff;stroke-width:1.09302425px;stroke-linecap:butt;stroke-linejoin:miter;stroke-opacity:1"
     d="M 187.38012,97.920962 C 188.40573,97.120204 179.3683,100.16162 176.46686,103.55959 C 176.07229,104.02169 174.75497,103.8102 173.89904,103.9355"
     id="path3200" />
  <path
     style="fill:none;fill-rule:evenodd;stroke:#ffffff;stroke-width:1.02307343px;stroke-linecap:butt;stroke-linejoin:miter;stroke-opacity:1"
     d="M 209.63004,97.853531 C 208.04941,100.85559 216.07285,100.77987 219.53861,101.43812 C 222.9691,102.08968 222.90094,104.81281 225.67248,105.4708"
     id="path3202" />
  <path
     style="fill:#ffffff;fill-opacity:1;fill-rule:evenodd;stroke:#ffffff;stroke-width:1px;stroke-linecap:butt;stroke-linejoin:miter;stroke-opacity:1"
     d="M 190.48815,60.591996 C 190.49845,61.407076 190.69567,67.194766 190.03872,70.479506 C 189.30198,74.163246 189.13986,78.046056 189.13986,81.715316 C 189.13986,84.837586 188.24099,86.571996 188.24099,89.805096 C 188.24099,92.385006 187.89952,94.317026 187.34213,96.546576 C 186.88236,98.385656 187.98283,98.472446 191.83645,99.243176 C 195.19265,99.914416 199.81094,100.14204 203.07226,100.14204 C 205.22536,100.14204 207.83672,100.59147 210.26317,100.59147 C 214.08288,100.59147 213.4092,98.457396 213.4092,95.198286 C 213.4092,91.422146 214.30806,87.816836 214.30806,83.962476 C 214.30806,81.096886 214.17048,77.945596 215.20693,75.872696 C 216.56669,73.153166 217.34171,67.445956 217.90352,64.636886 C 218.46274,61.840796 218.13639,59.414276 215.65636,58.794266 C 211.93464,57.863836 206.48376,58.794266 202.62283,58.794266 C 197.93992,58.794266 194.89181,59.711266 190.48815,60.591996 z"
     id="path3204" />
  <path
     style="fill:none;fill-rule:evenodd;stroke:#ffffff;stroke-width:0.7575168px;stroke-linecap:butt;stroke-linejoin:miter;stroke-opacity:1"
     d="M 216.33555,63.931436 C 216.93053,63.504489 217.4404,62.68709 217.72488,62.069979 C 218.24518,60.941341 219.75121,60.023418 220.25839,58.923236 C 220.61251,58.155072 221.38325,57.413897 221.72946,56.662903 C 221.97748,56.124878 222.30362,55.639023 222.54672,55.111687 C 222.76124,54.646343 223.14112,54.156756 223.52743,53.737759 C 223.83627,53.402784 223.8841,53.036547 224.01778,52.674071 C 224.11235,52.417663 224.17366,52.194759 224.34469,52.009264 C 224.53278,51.805266 224.80624,51.433652 224.87591,51.244743 C 224.90764,51.158673 225.01875,51.01235 225.03936,50.978818"
     id="path3206"
     sodipodi:nodetypes="cssssssssc" />
  <path
     style="fill:none;fill-rule:evenodd;stroke:#ffffff;stroke-width:1.03791332px;stroke-linecap:butt;stroke-linejoin:miter;stroke-opacity:1"
     d="M 90.652135,44.908579 C 93.504934,45.448759 96.323433,51.211524 98.37131,54.831107 C 98.722182,55.451265 99.073053,56.071422 99.423926,56.691581 C 100.86396,59.2368 102.8633,60.971401 104.33613,62.273004 C 104.48408,62.403744 104.57005,62.686442 104.68701,62.893161"
     id="path3208" />
  <path
     style="fill:none;fill-rule:evenodd;stroke:#ffffff;stroke-width:1.50138724px;stroke-linecap:butt;stroke-linejoin:miter;stroke-opacity:1"
     d="M 101.62215,94.815872 C 102.82284,93.525297 92.242747,98.427118 88.84605,103.9036 C 88.384133,104.64836 86.841955,104.30751 85.839914,104.50945"
     id="path3210" />
  <path
     style="fill:none;fill-rule:evenodd;stroke:#ffffff;stroke-width:1.0063684px;stroke-linecap:butt;stroke-linejoin:miter;stroke-opacity:1"
     d="M 125.99711,95.324429 C 124.14813,97.807668 133.53372,97.745034 137.58787,98.289525 C 141.60076,98.828481 141.52103,101.081 144.7631,101.62527"
     id="path3212" />
  <path
     style="fill:#ffffff;fill-opacity:1;fill-rule:evenodd;stroke:#ffffff;stroke-width:0.9152565px;stroke-linecap:butt;stroke-linejoin:miter;stroke-opacity:1"
     d="M 104.2996,62.953195 C 104.30991,63.634896 104.50745,68.475533 103.84946,71.222784 C 103.11155,74.303738 102.94917,77.551198 102.94917,80.620046 C 102.94917,83.23141 102.04887,84.682014 102.04887,87.386072 C 102.04887,89.543824 101.70686,91.159702 101.14859,93.024425 C 100.68809,94.562579 101.7903,94.635168 105.65004,95.279781 C 109.01156,95.841184 113.63718,96.031558 116.90368,96.031558 C 119.0602,96.031558 121.6757,96.407446 124.106,96.407446 C 127.93177,96.407446 127.25702,94.62258 127.25702,91.896759 C 127.25702,88.73852 128.15731,85.723157 128.15731,82.499497 C 128.15731,80.102812 128.01951,77.467176 129.05761,75.733468 C 130.41953,73.458943 131.19578,68.685618 131.75848,66.336209 C 132.31858,63.997649 131.99172,61.968188 129.50775,61.449634 C 125.78012,60.671452 120.32059,61.449634 116.45354,61.449634 C 111.76319,61.449634 108.71025,62.21658 104.2996,62.953195 z"
     id="path3214" />
  <path
     style="fill:none;fill-rule:evenodd;stroke:#ffffff;stroke-width:0.9152565px;stroke-linecap:butt;stroke-linejoin:miter;stroke-opacity:1"
     d="M 131.36201,62.422047 C 131.94134,61.781936 132.43778,60.556428 132.71478,59.631202 C 133.22138,57.939058 134.68778,56.562832 135.18161,54.913347 C 135.52642,53.761649 136.27688,52.650419 136.61397,51.524466 C 136.85546,50.717823 137.17302,49.989386 137.40972,49.198763 C 137.6186,48.501076 137.98848,47.767047 138.36462,47.138855 C 138.66534,46.63663 138.71191,46.087544 138.84207,45.544087 C 138.93415,45.159658 138.99385,44.825461 139.16037,44.547357 C 139.34352,44.2415 139.60978,43.684349 139.67761,43.401117 C 139.70852,43.272078 139.81669,43.052701 139.83677,43.002425"
     id="path3216"
     sodipodi:nodetypes="cssssssssc" />
  <path
     style="fill:#000000"
     d="M 34.314247,115.82576 C 34.121527,115.77607 33.369187,115.63658 32.642377,115.51577 C 31.053527,115.25169 29.097507,113.63224 28.157637,111.80273 C 26.141417,107.87802 26.921527,101.05005 29.954817,96.072749 L 31.260247,93.930698 L 28.319717,93.83016 L 25.379197,93.729622 L 25.379197,92.351315 L 25.379197,90.973008 L 30.109517,90.973008 L 34.839837,90.973008 L 34.839837,92.238958 C 34.839837,93.236675 34.536517,93.831685 33.408307,95.04716 C 32.620967,95.895398 31.481947,97.635328 30.877157,98.913671 C 29.921627,100.93336 29.759867,101.69897 29.642787,104.7562 C 29.528807,107.73236 29.618197,108.52175 30.222937,109.87938 C 31.197607,112.06751 32.624497,112.89173 35.440837,112.89341 C 37.363937,112.89456 37.759197,112.77212 38.820917,111.84639 C 40.701347,110.20681 41.236897,108.48499 41.417347,103.4988 C 41.561897,99.504346 41.078047,95.017476 40.289847,93.043283 C 40.138157,92.663349 40.443777,92.328945 41.323377,91.912402 C 42.840857,91.193784 43.249297,91.171547 43.249297,91.807546 C 43.249297,92.671481 46.383317,98.541177 47.784487,100.3015 L 49.144447,102.01004 L 48.480047,103.01584 C 48.114617,103.56903 47.634527,104.02164 47.413157,104.02164 C 47.191797,104.02164 46.156787,102.61239 45.113147,100.88997 C 44.028297,99.099542 43.331127,98.205378 43.485327,98.802187 C 43.989447,100.75329 43.784727,107.37458 43.156497,109.43728 C 42.400467,111.91962 40.810677,114.09039 39.136857,114.92589 C 37.930447,115.52809 35.162737,116.04452 34.314247,115.82576 z"
     id="path3235"
     sodipodi:nodetypes="csscccccccccsssssssssscccsssssc" />
  <path
     style="fill:#000000"
     d="M 108.89842,91.134746 C 105.5232,89.662876 105.25331,85.559036 108.40782,83.674936 C 109.44548,83.055166 110.04785,82.954706 112.53981,82.985796 L 115.45705,83.022196 L 115.45705,80.824336 L 115.45705,78.626466 L 110.45607,78.626466 L 105.45509,78.626466 L 105.45509,77.505706 L 105.45509,76.384946 L 110.45607,76.384946 L 115.45705,76.384946 L 115.45705,74.463646 L 115.45705,72.542336 L 110.95617,72.542336 L 106.45528,72.542336 L 106.45528,71.421576 L 106.45528,70.300816 L 110.95617,70.300816 L 115.45705,70.300816 L 115.45705,68.219406 L 115.45705,66.137996 L 116.79064,66.137996 L 118.12424,66.137996 L 118.12424,68.219406 L 118.12424,70.300816 L 121.45822,70.300816 L 124.79221,70.300816 L 124.79221,71.421576 L 124.79221,72.542336 L 121.45822,72.542336 L 118.12424,72.542336 L 118.12424,74.463646 L 118.12424,76.384946 L 121.95832,76.384946 L 125.7924,76.384946 L 125.7924,77.505706 L 125.7924,78.626466 L 121.94484,78.626466 L 118.09727,78.626466 L 118.1941,81.218476 L 118.29094,83.810496 L 120.29133,84.587296 C 123.09011,85.674136 125.7924,87.010056 125.7924,87.306836 C 125.7924,87.444336 125.43994,87.950396 125.00916,88.431416 L 124.22592,89.305986 L 123.25882,88.649936 C 122.36535,88.043836 118.31351,85.991466 118.0104,85.991466 C 117.93734,85.991466 117.79953,86.656366 117.70416,87.469026 C 117.38124,90.220666 115.37415,91.759436 112.12306,91.747846 C 111.04889,91.744016 109.71323,91.490066 108.89842,91.134746 z M 114.25614,88.775096 C 115.20383,87.864866 115.70847,85.701296 115.06454,85.309166 C 114.59963,85.026056 112.63715,84.882946 110.95617,85.009586 C 108.89821,85.164616 107.67095,87.477146 109.03912,88.621896 C 109.84992,89.300286 110.40366,89.459426 112.05486,89.488576 C 113.12893,89.507536 113.67926,89.329156 114.25614,88.775096 z"
     id="path3270"
     sodipodi:nodetypes="cscccccccccccccccccccccccccccccccccccccccccscccsssccssssc" />
  <path
     style="fill:#000000"
     d="M 195.70526,87.156119 L 195.62481,83.037839 L 194.2006,85.139589 L 192.77639,87.241349 L 192.09834,86.606479 C 191.72542,86.257299 191.4203,85.867369 191.4203,85.739959 C 191.4203,85.612549 192.39894,84.184489 193.59505,82.566479 C 195.76276,79.634169 195.76979,79.618729 195.76979,77.790959 L 195.76979,75.957269 L 193.74003,75.957269 L 191.71027,75.957269 L 191.71027,74.801259 L 191.71027,73.645249 L 193.74003,73.645249 L 195.76979,73.645249 L 195.76979,70.755219 L 195.76979,67.865188 L 196.78467,67.865188 L 197.79955,67.865188 L 197.79955,72.344729 C 197.79955,74.808479 197.86393,76.824279 197.94261,76.824279 C 198.02129,76.824279 198.8633,76.061169 199.81374,75.128479 C 201.97279,73.009749 203.77944,72.116799 205.91859,72.111119 C 210.02877,72.100199 212.22831,75.396969 211.94284,81.140569 C 211.71219,85.781389 209.98652,88.449819 206.33551,89.811299 C 203.54525,90.851799 203.48971,90.849839 202.9353,89.691079 C 202.66233,89.120559 202.439,88.607639 202.439,88.551249 C 202.439,88.494849 202.92832,88.357979 203.52637,88.247079 C 206.58013,87.680809 208.78019,85.985069 209.43632,83.691889 C 209.89392,82.092589 209.90201,78.409879 209.45083,77.092439 C 209.25638,76.524649 208.63574,75.614299 208.07163,75.069419 C 207.21823,74.245129 206.84173,74.083379 205.82986,74.106309 C 204.13642,74.144679 202.56603,75.031679 200.68804,77.010549 C 197.66571,80.195229 197.79955,79.783329 197.79955,85.900229 L 197.79955,91.274409 L 196.79263,91.274409 L 195.78571,91.274409 L 195.70526,87.156119 z"
     id="path3285"
     sodipodi:nodetypes="cccccsscccccccccccccsssssssssssssccccc" />
  <path
     style="fill:#000000"
     d="M 273.5804,86.842384 C 273.43199,86.482355 273.25418,86.103649 273.18528,86.000816 C 273.11637,85.897982 273.64199,85.656487 274.35333,85.464161 C 277.92488,84.498512 279.10907,83.023446 279.5984,78.930714 C 280.09081,74.812263 279.46229,71.677205 278.00485,70.98207 C 276.28723,70.162845 274.63049,71.266684 272.85595,74.412634 C 271.80545,76.275 271.76204,76.438757 271.76204,78.539375 L 271.76204,80.726793 L 270.84961,80.726793 L 269.93717,80.726793 L 269.93717,74.595398 L 269.93717,68.464003 L 270.84961,68.464003 L 271.76204,68.464003 L 271.76204,70.267355 C 271.76204,71.259198 271.83524,72.070706 271.9247,72.070706 C 272.01416,72.070706 272.54339,71.592863 273.10076,71.008833 C 275.78429,68.196981 279.32488,68.322252 280.92095,71.285523 C 281.50118,72.362788 281.53813,72.690445 281.53813,76.75942 C 281.53813,81.799382 281.2027,83.180297 279.56052,84.901004 C 278.57383,85.93488 276.45016,86.99724 274.69618,87.334379 C 273.94246,87.479255 273.82081,87.425618 273.5804,86.842384 z"
     id="path3300"
     sodipodi:nodetypes="cssssscccccccccssssssc" />
</svg>
