<?xml version="1.0"?>
<svg xmlns:rdf="http://www.w3.org/1999/02/22-rdf-syntax-ns#" xmlns="http://www.w3.org/2000/svg" xmlns:cc="http://creativecommons.org/ns#" xmlns:dc="http://purl.org/dc/elements/1.1/" xmlns:svg="http://www.w3.org/2000/svg" id="svg2" xml:space="preserve" viewBox="0 0 670.8 642.88" version="1.1">
  <g id="g12" transform="matrix(1.25 0 0 -1.25 -47.1 719.88)">
    <path id="path102" d="m61.887 552.69h488.23v-467.58h-488.23v467.58z" stroke="#000" stroke-miterlimit="10" stroke-width="1.0455" fill="none"/>
    <path id="path104" d="m61.364 553.21h489.27v-34.291h-489.27v34.291z" fill-rule="evenodd"/>
    <path id="path106" d="m85.797 520.92h438.57" stroke="#000" stroke-miterlimit="10" stroke-width="1.0455" fill="none"/>
    <path id="path108" d="m85.797 499.75h383.94m-408.37 0h489.27m-489.27-18.818h489.27m-346.71-396.62v461.31m249.74-460.65v468.23m-106.25-468.23v468.23m-286.06-110.43h489.27m-489.27-18.818h489.27m-489.27-18.818h489.27m-489.27-18.81h489.27m-489.27-18.818h489.27m-489.27-18.818h489.27m-489.27-18.818h489.27m-489.27-18.818h489.27m-489.27-18.81h489.27m-489.27-18.818h489.27m-489.27-18.818h489.27m-489.27-18.818h489.27m-489.27-18.818h489.27m-489.27-18.81h489.27m-489.27-18.818h489.27m-489.27-18.818h489.27m-489.27-18.818h489.27m-489.27-18.818h489.27m-489.27-18.81h489.27" stroke="#000" stroke-miterlimit="10" stroke-width=".52273" fill="none"/>
    <path id="path110" d="m347.3 518.95v34.239m105.98-34.239v34.239" stroke="#fff" stroke-miterlimit="10" stroke-width=".52273" fill="none"/>
    <path id="path112" d="m61.364 462.11h489.27" stroke="#000" stroke-miterlimit="10" stroke-width=".52273" fill="none"/>
    <path id="path120" d="m203.93 518.95v34.239" stroke="#fff" stroke-miterlimit="10" stroke-width=".52273" fill="none"/>
  </g>
<metadata><rdf:RDF><cc:Work><dc:format>image/svg+xml</dc:format><dc:type rdf:resource="http://purl.org/dc/dcmitype/StillImage"/><cc:license rdf:resource="http://creativecommons.org/licenses/publicdomain/"/><dc:publisher><cc:Agent rdf:about="http://openclipart.org/"><dc:title>Openclipart</dc:title></cc:Agent></dc:publisher><dc:title>58294main_The.Brain.in.Space-page-91-spreadsheet</dc:title><dc:date>2010-04-06T07:38:23</dc:date><dc:description>This is clipart converted and broken apart that has been released into the public domain because the document says so, and its from NASA, a USA government agency. The publication is called "The Brain in Space:"&#xD;\n&#xD;\nhttp://www.nasa.gov/audience/foreducators/topnav/materials/listbytype/The.Brain.in.Space.html</dc:description><dc:source>http://openclipart.org/detail/38353/-by-rejon-38353</dc:source><dc:creator><cc:Agent><dc:title>rejon</dc:title></cc:Agent></dc:creator><dc:subject><rdf:Bag><rdf:li>astronomy</rdf:li><rdf:li>brain</rdf:li><rdf:li>clip art</rdf:li><rdf:li>clipart</rdf:li><rdf:li>converted</rdf:li><rdf:li>government</rdf:li><rdf:li>nasa</rdf:li><rdf:li>science</rdf:li><rdf:li>space</rdf:li><rdf:li>usa</rdf:li></rdf:Bag></dc:subject></cc:Work><cc:License rdf:about="http://creativecommons.org/licenses/publicdomain/"><cc:permits rdf:resource="http://creativecommons.org/ns#Reproduction"/><cc:permits rdf:resource="http://creativecommons.org/ns#Distribution"/><cc:permits rdf:resource="http://creativecommons.org/ns#DerivativeWorks"/></cc:License></rdf:RDF></metadata></svg>
