<?xml version="1.0" encoding="UTF-8" standalone="no"?>
<!-- Created with Inkscape (http://www.inkscape.org/) -->

<svg
   id="svg1"
   sodipodi:docname="text-input.svg"
   viewBox="0 0 48.416698 30.886999"
   sodipodi:version="0.32"
   version="1.0"
   y="0"
   x="0"
   inkscape:version="1.2.2 (b0a8486541, 2022-12-01)"
   width="48.416698"
   height="30.886999"
   xmlns:inkscape="http://www.inkscape.org/namespaces/inkscape"
   xmlns:sodipodi="http://sodipodi.sourceforge.net/DTD/sodipodi-0.dtd"
   xmlns="http://www.w3.org/2000/svg"
   xmlns:svg="http://www.w3.org/2000/svg"
   xmlns:rdf="http://www.w3.org/1999/02/22-rdf-syntax-ns#"
   xmlns:cc="http://creativecommons.org/ns#"
   xmlns:dc="http://purl.org/dc/elements/1.1/">
  <defs
     id="defs9519" />
  <sodipodi:namedview
     id="base"
     bordercolor="#666666"
     inkscape:pageshadow="2"
     inkscape:window-width="1016"
     pagecolor="#ffffff"
     inkscape:zoom="6.9465338"
     inkscape:window-x="0"
     borderopacity="1.0"
     inkscape:cx="11.372578"
     inkscape:cy="33.685865"
     inkscape:window-y="0"
     inkscape:window-height="693"
     inkscape:pageopacity="0.0"
     inkscape:showpageshadow="0"
     inkscape:pagecheckerboard="0"
     inkscape:deskcolor="#d1d1d1"
     showgrid="false"
     inkscape:window-maximized="0"
     inkscape:current-layer="svg1" />
  <path
     id="path862"
     sodipodi:nodetypes="cccccc"
     style="fill:none;stroke:#333333;stroke-width:2.5;stroke-linecap:round;stroke-linejoin:round"
     d="m 1.25,1.25 h 8.1527 m -3.8823,0 V 28.89 M 1.25,29.637 h 8.3467"
     sodipodi:stroke-cmyk="(0.0000000 0.0000000 0.0000000 0.80000001)" />
  <path
     id="path837"
     style="fill:#333333;stroke-width:1pt"
     d="m 38.0767,17.8202 c 0,-1.195 0.255,-2.296 0.766,-3.303 0.512,-1.015 1.226,-1.812 2.143,-2.391 0.924,-0.579 1.977,-0.868 3.157,-0.868 0.624,0 1.267,0.075 1.928,0.225 0.662,0.143 1.218,0.391 1.669,0.745 0.451,0.353 0.677,0.83 0.677,1.432 0,0.481 -0.143,0.883 -0.429,1.206 -0.278,0.323 -0.628,0.485 -1.049,0.485 -0.203,0 -0.402,-0.034 -0.597,-0.101 -0.188,-0.068 -0.38,-0.14 -0.575,-0.215 -0.188,-0.082 -0.391,-0.15 -0.609,-0.203 -0.211,-0.052 -0.477,-0.079 -0.801,-0.079 -0.586,0 -1.082,0.139 -1.488,0.418 -0.399,0.27 -0.699,0.639 -0.902,1.105 -0.196,0.458 -0.293,0.973 -0.293,1.544 0,0.557 0.097,1.075 0.293,1.556 0.195,0.474 0.477,0.85 0.846,1.128 0.375,0.278 0.819,0.417 1.33,0.417 0.579,0 1.161,-0.109 1.748,-0.327 0.586,-0.218 0.936,-0.327 1.048,-0.327 0.271,0 0.519,0.079 0.745,0.237 0.225,0.158 0.402,0.365 0.53,0.62 0.135,0.248 0.203,0.504 0.203,0.767 0,0.556 -0.245,1.026 -0.733,1.409 -0.481,0.384 -1.057,0.662 -1.726,0.835 -0.669,0.18 -1.274,0.27 -1.815,0.27 -0.894,0 -1.714,-0.165 -2.458,-0.496 -0.737,-0.33 -1.379,-0.8 -1.928,-1.409 -0.549,-0.617 -0.966,-1.323 -1.252,-2.12 -0.285,-0.804 -0.428,-1.658 -0.428,-2.56 z m -12.843,4.454 V 7.9652 c 0,-0.541 0.169,-0.9918 0.507,-1.3527 0.338,-0.3608 0.767,-0.5412 1.285,-0.5412 0.527,0 0.959,0.1804 1.297,0.5412 0.338,0.3609 0.508,0.8117 0.508,1.3527 v 4.319 c 0.406,-0.338 0.826,-0.594 1.262,-0.767 0.444,-0.173 1.015,-0.259 1.714,-0.259 1.023,0 1.959,0.293 2.808,0.879 0.857,0.579 1.53,1.376 2.018,2.391 0.497,1.007 0.745,2.105 0.745,3.292 0,0.925 -0.139,1.778 -0.418,2.56 -0.27,0.782 -0.665,1.481 -1.184,2.097 -0.518,0.617 -1.112,1.094 -1.781,1.432 -0.669,0.331 -1.398,0.496 -2.188,0.496 -0.676,0 -1.259,-0.109 -1.747,-0.327 -0.489,-0.21 -0.936,-0.563 -1.342,-1.059 -0.15,0.323 -0.368,0.597 -0.654,0.823 -0.278,0.218 -0.624,0.327 -1.038,0.327 -0.526,0 -0.958,-0.181 -1.296,-0.542 -0.331,-0.368 -0.496,-0.819 -0.496,-1.353 z m 6.066,-7.521 c -0.767,0 -1.372,0.294 -1.815,0.88 -0.436,0.586 -0.654,1.315 -0.654,2.187 0,0.557 0.097,1.075 0.293,1.556 0.195,0.474 0.477,0.85 0.845,1.128 0.376,0.278 0.82,0.417 1.331,0.417 0.774,0 1.379,-0.293 1.815,-0.879 0.436,-0.594 0.654,-1.335 0.654,-2.222 0,-0.879 -0.218,-1.608 -0.654,-2.187 -0.436,-0.586 -1.041,-0.88 -1.815,-0.88 z m -7.6,-1.387 v 8.908 c 0,0.542 -0.169,0.993 -0.507,1.353 -0.339,0.361 -0.771,0.542 -1.297,0.542 -0.413,0 -0.763,-0.113 -1.049,-0.339 -0.278,-0.225 -0.488,-0.496 -0.631,-0.811 -0.406,0.496 -0.857,0.849 -1.353,1.059 -0.489,0.218 -1.071,0.327 -1.748,0.327 -1.03,0 -1.969,-0.289 -2.819,-0.868 -0.842,-0.586 -1.511,-1.383 -2.007,-2.39 -0.488,-1.015 -0.733,-2.124 -0.733,-3.327 0,-1.187 0.245,-2.285 0.733,-3.292 0.496,-1.015 1.169,-1.812 2.018,-2.391 0.85,-0.586 1.786,-0.879 2.808,-0.879 0.684,0 1.267,0.105 1.748,0.316 0.488,0.21 0.94,0.567 1.353,1.071 0.135,-0.308 0.346,-0.575 0.631,-0.801 0.286,-0.233 0.636,-0.349 1.049,-0.349 0.526,0 0.958,0.18 1.297,0.541 0.338,0.353 0.507,0.797 0.507,1.33 z m -6.077,1.387 c -0.767,0 -1.372,0.294 -1.816,0.88 -0.436,0.586 -0.654,1.315 -0.654,2.187 0,0.557 0.098,1.075 0.293,1.556 0.196,0.474 0.478,0.85 0.846,1.128 0.376,0.278 0.819,0.417 1.331,0.417 0.774,0 1.379,-0.293 1.815,-0.879 0.436,-0.594 0.654,-1.335 0.654,-2.222 0,-0.879 -0.218,-1.608 -0.654,-2.187 -0.436,-0.586 -1.041,-0.88 -1.815,-0.88 z" />
  <metadata
     id="metadata9516">
    <rdf:RDF>
      <cc:Work>
        <dc:format>image/svg+xml</dc:format>
        <dc:type
           rdf:resource="http://purl.org/dc/dcmitype/StillImage" />
        <cc:license
           rdf:resource="http://creativecommons.org/publicdomain/zero/1.0/" />
        <dc:publisher>
          <cc:Agent
             rdf:about="http://openclipart.org/">
            <dc:title>Openclipart</dc:title>
          </cc:Agent>
        </dc:publisher>
        <dc:date>2011-01-31T02:06:47</dc:date>
        <dc:description>Originally uploaded by Danny Allen for OCAL 0.18 this icon is part of the flat theme</dc:description>
        <dc:source>https://openclipart.org/detail/114397/ftspellcheck-from-cursor-by-anonymous</dc:source>
        <dc:creator>
          <cc:Agent>
            <dc:title>Anonymous</dc:title>
          </cc:Agent>
        </dc:creator>
        <dc:subject>
          <rdf:Bag>
            <rdf:li>flat</rdf:li>
            <rdf:li>icon</rdf:li>
            <rdf:li>theme</rdf:li>
          </rdf:Bag>
        </dc:subject>
      </cc:Work>
      <cc:License
         rdf:about="http://creativecommons.org/publicdomain/zero/1.0/">
        <cc:permits
           rdf:resource="http://creativecommons.org/ns#Reproduction" />
        <cc:permits
           rdf:resource="http://creativecommons.org/ns#Distribution" />
        <cc:permits
           rdf:resource="http://creativecommons.org/ns#DerivativeWorks" />
      </cc:License>
    </rdf:RDF>
  </metadata>
</svg>
